<?xml version="1.0" standalone="no"?>
<!DOCTYPE svg PUBLIC "-//W3C//DTD SVG 20010904//EN"
 "http://www.w3.org/TR/2001/REC-SVG-20010904/DTD/svg10.dtd">
<svg version="1.0" xmlns="http://www.w3.org/2000/svg"
 width="1328.000000pt" height="964.000000pt" viewBox="0 0 1328.000000 964.000000"
 preserveAspectRatio="xMidYMid meet">
<metadata>
Created by potrace 1.16, written by Peter Selinger 2001-2019
</metadata>
<g transform="translate(0.000000,964.000000) scale(0.100000,-0.100000)"
fill="#000000" stroke="none">
<path d="M177 9633 c-15 -15 -5 -32 23 -38 17 -4 30 -13 30 -21 0 -8 5 -14 10
-14 17 0 11 -26 -11 -46 -33 -30 -41 -51 -28 -75 10 -19 17 -21 59 -15 26 3
56 3 68 -1 19 -8 112 -135 112 -154 0 -5 7 -9 15 -9 8 0 15 -4 15 -8 0 -4 13
-16 30 -25 16 -10 35 -23 42 -30 7 -7 38 -21 68 -30 55 -18 100 -50 100 -73 0
-7 11 -21 25 -32 14 -11 25 -23 25 -26 0 -4 4 -12 10 -19 64 -78 63 -76 56
-127 -5 -36 -2 -58 9 -79 32 -62 11 -191 -31 -191 -8 0 -14 -4 -14 -8 0 -9
-38 -22 -115 -42 -39 -10 -64 -36 -103 -110 -18 -34 -41 -50 -74 -50 -15 0
-40 -11 -55 -25 -97 -88 -97 -87 -111 -68 -9 12 -12 34 -8 66 3 26 2 47 -2 48
-4 0 -15 2 -26 4 -10 2 -29 -1 -41 -7 -19 -9 -23 -18 -22 -54 0 -48 -18 -76
-65 -100 -19 -10 -34 -11 -51 -5 -27 10 -63 -14 -86 -57 -17 -32 -6 -72 19
-72 11 0 20 4 20 8 0 16 51 32 100 32 58 0 97 29 102 75 4 41 38 77 38 40 0
-8 5 -15 10 -15 6 0 10 -7 10 -15 0 -8 -4 -15 -10 -15 -6 0 -10 -26 -10 -59 0
-42 7 -70 24 -104 20 -36 25 -60 24 -113 -1 -51 3 -70 15 -79 15 -10 15 -14 2
-31 -8 -10 -15 -32 -15 -47 0 -23 3 -27 19 -22 25 8 48 -3 54 -25 3 -11 18
-21 38 -25 19 -4 54 -18 78 -31 25 -14 47 -21 50 -17 12 16 60 32 81 26 27 -7
40 10 40 54 0 25 -3 31 -16 26 -11 -4 -14 -1 -12 10 2 9 -6 23 -17 32 -15 12
-17 18 -7 22 10 4 10 9 -3 23 -18 20 -11 45 10 36 7 -2 21 4 31 15 9 10 20 17
22 14 3 -3 11 8 18 25 7 16 18 30 25 30 16 0 38 31 39 53 0 9 6 17 14 17 8 0
16 3 19 8 2 4 2 1 0 -6 -2 -9 3 -11 17 -7 11 3 24 3 30 0 14 -9 -14 -35 -37
-35 -28 0 -44 -15 -37 -34 4 -11 13 -15 23 -11 29 11 36 10 36 -5 0 -8 -7 -15
-15 -16 -32 -2 -34 -4 -14 -19 26 -18 104 -36 104 -24 0 5 12 4 26 -2 15 -5
35 -7 46 -3 19 6 19 4 4 -25 -15 -28 -15 -31 3 -41 31 -16 45 -12 58 17 9 18
10 30 2 39 -13 16 37 64 68 64 18 0 23 -5 22 -27 -3 -57 -9 -66 -40 -59 -35 7
-40 -15 -8 -38 23 -16 18 -36 -9 -36 -16 -1 -16 -1 0 -11 10 -5 15 -16 12 -24
-4 -9 0 -15 9 -15 8 0 17 5 19 12 3 7 12 9 22 5 11 -4 16 -13 12 -22 -10 -26
14 -27 26 -1 6 14 17 26 24 26 13 0 28 29 19 38 -3 3 -5 0 -5 -6 0 -7 -7 -12
-15 -12 -8 0 -15 7 -15 16 0 10 -6 14 -14 11 -8 -3 -17 1 -20 9 -9 25 -7 27
11 13 15 -12 16 -12 10 5 -6 16 -4 17 18 12 17 -4 25 -2 25 6 0 10 2 10 9 -1
6 -9 11 -10 15 -2 11 17 29 13 22 -5 -6 -15 -4 -15 17 -1 13 8 50 18 83 22 32
5 68 14 79 21 11 7 45 16 75 20 45 5 61 12 88 41 28 30 31 39 26 72 -6 35 -3
41 28 65 20 15 48 26 65 26 43 0 75 37 93 107 13 49 20 60 47 73 36 17 42 42
18 77 -14 20 -13 23 13 42 16 11 41 23 56 27 15 4 48 22 72 40 24 19 53 34 63
34 10 0 24 7 31 15 16 20 60 19 88 -1 21 -15 25 -15 43 2 10 9 19 23 19 31 0
7 11 23 25 35 15 13 25 32 25 49 0 41 28 53 68 29 17 -11 46 -19 64 -18 46 1
78 -10 114 -41 16 -15 45 -33 62 -40 30 -12 35 -11 72 13 23 15 52 31 65 36
30 11 85 2 85 -14 0 -7 15 -26 33 -43 32 -30 98 -53 155 -53 38 0 72 -33 72
-70 0 -19 7 -34 20 -42 11 -7 20 -20 20 -28 1 -26 48 -51 123 -64 43 -7 89
-23 114 -39 50 -31 56 -32 87 -11 23 14 26 14 45 -7 12 -13 21 -28 21 -33 0
-6 20 -20 43 -30 50 -22 75 -63 58 -95 -6 -11 -11 -27 -11 -36 0 -23 -47 -59
-84 -65 -23 -4 -36 -15 -51 -43 -24 -46 -58 -70 -85 -62 -11 4 -20 2 -20 -4 0
-24 -38 -9 -75 29 -43 44 -87 54 -104 22 -10 -19 -7 -78 7 -132 7 -28 5 -41
-10 -68 -20 -32 -20 -33 1 -74 22 -45 22 -45 -25 -98 -12 -14 -25 -43 -29 -65
-4 -24 -22 -58 -46 -86 -21 -26 -39 -52 -39 -59 0 -7 -7 -10 -15 -6 -10 4 -32
-10 -61 -40 -44 -43 -45 -46 -32 -74 7 -17 16 -30 20 -30 5 0 8 -18 8 -40 0
-22 -2 -40 -5 -40 -9 0 -70 44 -73 53 -2 4 -10 7 -18 7 -8 0 -20 11 -26 25 -6
14 -20 25 -32 26 -51 3 -81 -4 -93 -21 -7 -9 -26 -23 -43 -30 -16 -7 -30 -16
-30 -21 0 -5 -46 -7 -102 -6 -74 1 -102 -1 -105 -10 -3 -7 -11 -13 -19 -13 -8
0 -14 -7 -14 -15 0 -8 -9 -24 -19 -34 -11 -11 -24 -35 -29 -55 -9 -32 -8 -35
11 -38 12 -2 21 -7 19 -11 -5 -13 27 -39 39 -31 9 5 10 0 6 -15 -5 -19 -2 -22
13 -18 21 5 36 -8 41 -36 4 -17 6 -17 40 1 33 17 38 17 59 3 13 -9 41 -17 62
-18 21 -2 48 -8 60 -14 19 -10 20 -17 14 -97 -3 -47 -12 -92 -18 -99 -9 -11
-9 -16 2 -23 14 -9 44 2 54 19 3 5 31 21 62 37 31 16 59 37 63 47 7 18 8 18
24 2 16 -16 22 -38 17 -60 -1 -5 -2 -32 -1 -60 1 -47 -2 -53 -49 -103 -27 -29
-50 -57 -50 -62 0 -6 -4 -10 -10 -10 -5 0 -10 -5 -10 -10 0 -6 13 -4 30 5 16
8 37 15 48 15 10 0 27 7 38 15 10 8 24 15 31 15 6 0 24 5 40 12 15 6 37 13 47
15 11 2 27 10 36 18 9 8 25 15 34 15 10 0 101 29 201 65 101 36 188 65 194 65
6 0 11 5 11 12 0 6 3 9 6 6 5 -6 145 39 209 67 17 7 116 43 220 79 105 37 213
75 240 85 28 11 133 49 235 86 102 36 192 69 200 72 8 3 20 7 25 9 32 8 192
68 200 75 5 5 16 9 25 9 8 0 65 19 125 41 188 70 278 100 283 94 8 -7 6 -8
-88 -43 -47 -17 -116 -43 -155 -57 -38 -15 -144 -53 -235 -85 -221 -79 -325
-117 -363 -134 -18 -8 -41 -16 -52 -19 -27 -7 -165 -56 -190 -67 -11 -5 -40
-14 -65 -21 -25 -6 -47 -14 -50 -18 -3 -3 -23 -12 -45 -18 -103 -30 -165 -55
-158 -66 4 -7 0 -8 -11 -4 -9 4 -32 -1 -49 -10 -18 -9 -41 -18 -52 -20 -30 -5
-43 -23 -17 -23 12 0 22 -4 22 -10 0 -5 -7 -10 -16 -10 -9 0 -12 -5 -8 -12 5
-7 2 -9 -7 -6 -42 16 -59 18 -59 9 0 -5 8 -12 18 -14 14 -4 15 -5 1 -6 -9 0
-20 -13 -23 -27 -5 -17 -12 -24 -22 -20 -25 10 -72 -5 -77 -25 -7 -26 -26 -24
-36 4 -10 23 -11 22 -27 -30 -2 -8 -18 -12 -41 -10 -33 2 -38 -1 -41 -20 -2
-13 -8 -23 -14 -23 -6 0 -8 10 -4 24 3 14 1 28 -6 32 -6 4 -9 3 -6 -2 9 -15
-10 -54 -27 -54 -8 0 -15 5 -15 10 0 6 5 10 10 10 6 0 10 7 10 16 0 8 -5 12
-10 9 -5 -3 -10 1 -10 9 0 9 15 23 33 31 l32 14 -30 -6 c-43 -8 -43 -9 -51
-59 -3 -25 -13 -48 -20 -51 -8 -3 -12 -8 -10 -12 3 -4 -5 -20 -17 -35 -21 -26
-28 -28 -91 -27 -81 0 -144 8 -204 23 -27 7 -47 7 -53 1 -6 -6 4 -9 27 -10 47
-1 56 -15 54 -80 0 -5 -10 -8 -23 -9 -12 -1 -28 -2 -34 -3 -8 0 -13 -17 -13
-42 0 -32 -3 -40 -17 -38 -62 6 -63 5 -63 -81 l0 -80 -80 0 -80 0 0 -79 0 -80
-37 -3 c-36 -3 -38 -5 -43 -43 -5 -38 -7 -40 -37 -37 -17 2 -34 -2 -38 -8 -11
-18 -13 -60 -3 -60 5 0 16 -7 24 -15 13 -12 8 -15 -36 -21 -27 -4 -50 -10 -50
-14 0 -3 -13 -7 -30 -7 -16 0 -27 4 -24 8 2 4 -2 10 -8 13 -7 3 -1 4 15 2 15
-2 27 1 27 5 0 5 10 9 23 10 21 1 21 1 -3 8 -31 10 -92 2 -85 -10 3 -4 -8 -3
-25 3 -17 5 -44 8 -59 5 l-28 -6 -7 70 c-3 38 -2 99 4 134 11 67 10 125 -1
125 -3 0 -14 -74 -24 -165 -11 -91 -23 -165 -27 -165 -4 0 -8 -11 -8 -25 0
-17 6 -25 17 -25 42 0 -12 -16 -64 -19 -23 -2 -14 -19 12 -23 13 -3 22 -1 19
3 -3 5 11 9 30 9 20 0 36 -4 36 -10 0 -5 -11 -10 -25 -10 -14 0 -25 -4 -25
-10 0 -14 -20 -12 -52 4 -16 9 -30 11 -33 5 -4 -5 -11 -9 -16 -9 -6 0 -7 4 -4
10 4 6 -1 7 -11 3 -15 -5 -15 -7 0 -15 9 -5 20 -7 24 -4 4 2 14 0 22 -5 13 -8
13 -10 0 -19 -8 -6 -27 -9 -42 -7 -16 2 -28 0 -28 -4 0 -11 -78 -32 -93 -26
-7 3 3 8 21 12 17 4 32 12 32 17 0 5 -8 7 -19 3 -21 -6 -46 18 -35 36 5 9 -5
11 -39 7 -26 -3 -44 -2 -41 3 3 5 1 9 -4 9 -5 0 -8 10 -8 23 1 21 -4 22 -74
25 -41 2 -79 7 -85 12 -5 4 -24 7 -42 6 -23 -1 -33 3 -36 15 -4 14 -17 17 -74
18 -63 0 -71 -2 -81 -22 -9 -18 -10 -14 -5 22 l6 44 -21 -21 c-12 -12 -22 -26
-22 -32 0 -5 -5 -10 -10 -10 -7 0 -7 6 -1 18 14 27 1 74 -23 81 -17 5 -15 6
12 11 18 3 31 10 30 15 -3 10 -20 11 -75 1 -18 -3 -33 -1 -33 4 0 6 7 10 15
10 9 0 34 9 56 19 22 11 53 23 69 26 39 9 45 21 26 50 -20 30 -13 32 16 5 14
-13 25 -16 33 -10 7 6 15 6 21 0 9 -9 98 14 122 33 16 13 6 46 -21 67 -19 16
-16 47 3 35 5 -3 13 2 18 11 6 11 11 13 16 5 4 -6 3 -11 -3 -11 -6 0 -8 -7 -5
-15 5 -11 11 -12 25 -4 24 12 25 1 2 -17 -15 -11 -16 -13 -2 -14 8 0 20 5 25
10 7 7 10 4 9 -12 -2 -19 -7 -22 -28 -20 -20 2 -25 -1 -21 -12 5 -12 12 -12
52 1 26 8 53 17 61 19 11 4 11 8 -3 23 -15 16 -15 19 3 35 22 20 40 4 21 -19
-8 -10 -9 -15 -2 -15 6 0 14 5 17 10 4 6 11 8 16 5 5 -4 9 -2 9 4 0 6 12 8 30
5 23 -5 30 -3 30 9 0 10 9 14 30 13 16 -1 46 6 66 16 21 10 43 18 50 18 18 0
64 26 58 33 -3 3 3 3 15 0 12 -3 27 -1 34 5 6 5 36 15 65 23 41 10 52 17 52
33 0 17 2 18 10 6 8 -12 16 -12 62 4 53 19 95 45 51 31 -24 -7 -33 9 -11 18 7
3 2 6 -11 6 -19 1 -23 5 -19 26 3 14 1 22 -5 18 -5 -3 -13 1 -18 8 -6 10 -8 7
-8 -11 -1 -64 0 -62 -26 -42 -23 17 -38 46 -36 69 3 22 -20 25 -26 4 -3 -12
-10 -21 -15 -21 -6 0 -7 11 -4 25 5 18 2 25 -7 25 -15 0 -32 -84 -21 -101 3
-5 2 -8 -3 -7 -4 2 -9 -2 -11 -7 -1 -6 7 -11 18 -11 11 -1 23 -4 27 -8 19 -18
-48 -29 -71 -11 -16 12 -17 17 -5 32 7 10 9 15 5 11 -12 -10 -39 29 -31 42 3
6 15 10 27 10 16 0 19 5 16 25 -3 14 -2 25 2 25 13 0 -2 52 -17 57 -12 5 -12
7 -2 14 10 6 10 11 0 23 -7 9 -17 13 -22 10 -11 -6 -12 -74 -1 -73 19 3 33 -2
27 -11 -6 -10 -54 7 -68 25 -5 6 -7 0 -4 -12 4 -17 1 -23 -11 -23 -24 0 -46
16 -38 28 3 5 -2 16 -11 23 -14 12 -16 12 -8 0 6 -11 4 -13 -9 -8 -12 5 -16 2
-14 -11 2 -13 -3 -16 -20 -14 -17 1 -25 -4 -29 -18 -3 -11 -9 -20 -13 -20 -13
0 -20 44 -8 51 7 4 8 20 4 39 l-6 32 21 -23 c14 -16 19 -19 15 -7 -3 9 0 19 7
21 8 3 3 14 -12 31 -14 14 -21 26 -16 26 5 0 4 5 -3 12 -7 7 -12 16 -12 20 0
13 38 9 43 -4 2 -7 8 -10 12 -6 10 9 -23 48 -40 48 -7 0 -16 11 -19 25 -5 18
-13 25 -29 25 -28 0 -47 -18 -40 -36 3 -8 0 -14 -6 -14 -6 0 -11 5 -11 10 0
30 -58 -6 -65 -40 -5 -28 -16 -39 -22 -23 -3 8 -14 11 -30 7 -16 -4 -28 -2
-33 7 -7 10 -11 10 -24 0 -8 -7 -20 -10 -26 -6 -15 10 -2 25 23 26 15 1 11 4
-13 11 -19 5 -39 14 -45 19 -6 6 2 6 19 -1 25 -9 32 -8 51 10 12 11 27 20 33
20 20 0 14 12 -23 50 -33 34 -34 36 -20 64 19 36 19 36 -8 36 -12 0 -34 11
-49 25 -25 23 -48 32 -48 19 0 -15 22 -44 35 -44 7 0 17 -6 21 -12 4 -7 4 -10
0 -6 -4 3 -22 2 -39 -3 -22 -6 -34 -5 -40 4 -6 7 -6 5 -1 -8 4 -11 7 -32 7
-47 0 -16 4 -28 9 -28 5 0 6 -5 3 -10 -9 -15 -36 15 -29 33 3 8 -2 22 -11 31
-9 9 -12 16 -6 16 8 0 7 6 -1 20 -10 16 -15 17 -28 6 -25 -23 -57 -28 -63 -12
-4 9 2 17 14 21 10 4 19 11 19 16 0 6 4 8 8 5 5 -3 9 1 9 9 0 12 -4 12 -21 -1
-26 -18 -47 -18 -40 0 9 23 -35 27 -47 4 -8 -16 -7 -22 8 -34 10 -7 21 -14 25
-14 4 0 9 -9 13 -19 4 -12 12 -18 21 -14 7 3 14 0 14 -6 0 -6 7 -11 16 -11 13
0 14 3 5 14 -9 11 -8 15 5 20 25 9 27 8 22 -19 -3 -14 -1 -28 3 -31 5 -3 9
-12 9 -21 0 -11 -8 -14 -30 -11 -24 4 -27 2 -18 -9 9 -11 4 -13 -26 -9 -21 3
-45 11 -54 18 -13 11 -14 11 -7 -1 6 -11 3 -13 -15 -8 -12 3 -33 2 -46 -4 -22
-8 -23 -7 -15 9 5 9 19 27 30 39 28 30 27 46 -4 41 -16 -4 -25 -1 -25 8 0 7
-7 14 -15 16 -12 2 -9 10 11 33 17 19 28 25 31 18 7 -20 21 -15 28 8 6 18 12
20 48 14 23 -3 37 -3 31 2 -15 11 -24 52 -13 59 5 3 6 10 3 16 -4 7 -2 8 4 4
7 -4 12 -3 12 3 0 5 -4 13 -10 16 -12 8 -13 25 -1 25 5 0 12 -10 16 -22 4 -15
8 -19 12 -10 3 8 0 19 -6 25 -6 6 -11 18 -11 26 -1 21 -37 68 -46 59 -4 -4 -1
-14 6 -23 16 -19 10 -26 -17 -19 -14 4 -24 17 -28 35 -4 16 -13 29 -21 29 -8
0 -14 5 -14 11 0 6 7 9 15 5 25 -9 48 4 34 20 -6 7 -8 21 -5 31 13 43 16 103
4 103 -6 0 -8 3 -5 7 9 8 -40 33 -65 33 -15 0 -18 4 -12 23 4 12 12 25 18 29
6 4 7 10 4 14 -13 12 -38 -5 -48 -32 -10 -26 -11 -26 -25 -8 -10 13 -14 15
-15 5 0 -22 -33 -41 -47 -29 -18 14 -16 37 2 44 19 8 20 34 1 34 -7 0 -27 -5
-45 -11 -26 -9 -35 -8 -50 5 -21 19 -36 9 -18 -12 8 -11 8 -14 0 -9 -17 10
-45 -3 -39 -19 3 -8 0 -14 -6 -14 -20 0 1 -13 25 -16 33 -4 33 -4 18 -13 -12
-8 -12 -12 -2 -25 9 -11 10 -16 2 -16 -6 0 -11 4 -11 9 0 5 -9 11 -20 14 -11
3 -20 1 -20 -4 0 -5 -9 -9 -20 -9 -11 0 -36 -6 -55 -14 -38 -16 -75 -11 -75
10 0 17 17 18 23 2 4 -10 6 -10 6 0 1 7 15 27 31 45 17 18 30 28 28 22 -3 -11
4 -15 27 -15 8 0 15 9 15 20 0 11 5 20 10 20 6 0 10 6 10 14 0 20 -34 14 -43
-8 -6 -15 -10 -16 -22 -6 -12 10 -15 10 -15 0 0 -10 -3 -10 -15 0 -9 7 -14 24
-13 38 3 21 -3 27 -37 39 -26 9 -41 10 -43 3 -3 -7 -10 -7 -23 0 -10 6 -19 8
-19 4 0 -3 -7 -1 -16 7 -13 10 -17 10 -26 -2 -8 -11 -9 -10 -4 4 3 10 6 32 6
47 0 30 36 62 49 43 3 -5 14 -12 24 -16 21 -8 35 19 18 36 -8 8 -11 8 -11 -1
0 -7 -5 -12 -11 -12 -6 0 -9 7 -5 15 4 10 -1 15 -14 15 -11 0 -20 5 -20 10 0
16 -27 12 -33 -5 -4 -10 -18 -13 -44 -11 -21 2 -45 -2 -53 -8 -13 -10 -13 -9
-1 7 7 9 10 17 5 18 -5 0 -18 2 -29 4 -11 2 -22 -1 -26 -7 -4 -6 -25 -10 -48
-10 -23 1 -39 -3 -36 -9 4 -5 2 -9 -4 -9 -6 0 -8 -7 -4 -16 5 -14 1 -15 -24
-10 -23 5 -32 3 -37 -9 -3 -9 -4 -20 -1 -25 3 -4 -12 -15 -33 -24 -20 -9 -27
-15 -15 -12 13 2 25 0 28 -5 7 -10 33 -1 64 23 13 10 34 18 47 18 28 0 29 3 8
34 -10 16 -12 26 -5 31 6 3 11 1 11 -5 0 -7 6 -10 14 -7 8 3 26 -3 41 -15 23
-18 28 -18 48 -6 37 24 77 31 77 13 0 -13 -18 -20 -43 -16 -4 1 -20 -5 -36
-14 -16 -8 -31 -11 -35 -8 -4 4 -16 -5 -28 -20 -17 -21 -25 -24 -40 -16 -15 8
-23 7 -34 -8 -7 -10 -14 -20 -14 -23 0 -10 -39 -9 -45 0 -8 13 -58 1 -81 -21
-21 -20 -39 -26 -29 -9 3 6 -1 10 -9 10 -10 0 -14 -8 -12 -25 3 -27 26 -60 26
-37 0 7 4 12 8 12 11 0 31 -57 22 -67 -4 -4 1 -16 11 -25 15 -14 19 -15 30 -2
14 17 36 18 43 2 3 -9 8 -8 16 5 6 9 18 17 25 17 8 0 15 7 15 15 0 8 5 15 10
15 6 0 10 -5 10 -11 0 -6 8 -8 18 -5 9 3 31 -1 47 -9 33 -15 35 -14 -35 -19
-8 -1 -14 -9 -12 -18 1 -9 -7 -18 -19 -21 -27 -7 -20 -31 10 -35 17 -3 21 0
16 10 -4 7 4 1 18 -13 13 -15 23 -37 22 -50 -1 -20 -8 -24 -34 -26 -18 -1 -41
-9 -52 -19 -10 -9 -22 -14 -26 -11 -3 4 -1 7 5 7 7 0 12 5 12 10 0 6 -9 10
-19 10 -10 0 -21 7 -24 14 -4 10 -1 13 10 9 28 -11 -15 56 -50 77 -35 21 -67
26 -67 10 0 -5 11 -10 25 -10 14 0 25 -4 25 -10 0 -5 -9 -10 -19 -10 -11 0
-26 -7 -35 -15 -8 -8 -19 -15 -24 -15 -5 0 -17 -10 -28 -21 l-19 -21 43 4 c49
4 52 2 14 -14 -21 -9 -23 -12 -9 -15 22 -6 22 -15 -3 -30 -21 -14 -33 -3 -24
21 3 9 1 16 -5 16 -6 0 -11 -4 -11 -10 0 -5 -9 -10 -20 -10 -11 0 -20 5 -20
11 0 5 4 8 9 5 5 -3 11 3 14 14 6 23 -18 49 -26 28 -3 -8 -6 -6 -6 5 -1 12 5
18 17 16 36 -3 52 2 52 17 0 8 -4 13 -9 9 -5 -3 -12 -1 -16 5 -4 6 -10 8 -15
5 -5 -3 -12 5 -16 17 -9 29 -23 39 -50 32 -16 -4 -23 0 -27 17 -5 19 -8 20
-21 9 -17 -14 -22 -40 -7 -40 5 0 7 -9 4 -19 -6 -22 30 -47 62 -42 16 3 17 1
6 -13 -7 -9 -22 -16 -33 -16 -10 0 -16 -4 -13 -10 3 -5 15 -10 26 -10 10 0 19
-5 19 -10 0 -6 -10 -8 -24 -4 -16 4 -34 0 -48 -10 -19 -14 -20 -16 -4 -16 12
0 16 -5 12 -16 -3 -9 -6 -18 -6 -20 0 -2 -5 -4 -11 -4 -6 0 -9 7 -5 15 7 19
-13 19 -34 0 -14 -13 -18 -12 -33 5 -17 20 -9 28 9 10 7 -7 11 -1 11 20 0 26
-4 30 -21 25 -12 -3 -15 -2 -8 1 18 8 15 31 -6 43 -22 13 -7 14 17 1 16 -8 18
-5 15 23 -1 18 0 26 3 20 2 -7 14 -13 26 -13 16 0 18 3 9 12 -15 15 -16 32 -2
23 5 -3 10 1 10 9 0 12 -10 15 -42 13 -36 -2 -44 2 -54 22 -10 19 -10 27 2 38
16 17 18 42 4 63 -8 13 -10 12 -10 -2 0 -11 -8 -18 -20 -18 -24 0 -26 -15 -4
-28 14 -8 14 -10 0 -21 -11 -9 -16 -10 -16 -2 0 6 -6 11 -14 11 -8 0 -13 7
-12 16 0 9 -5 19 -11 21 -19 7 -28 -27 -13 -50 9 -15 10 -22 1 -25 -17 -6 -13
-22 5 -22 8 0 12 -4 9 -10 -3 -5 -21 -10 -40 -10 l-34 0 0 -280 c0 -264 1
-280 19 -290 27 -14 32 -13 25 10 -7 24 4 26 31 6 14 -11 19 -26 19 -60 0 -25
5 -46 10 -46 10 0 -15 -20 -26 -20 -10 0 -6 35 5 42 7 5 5 13 -6 25 -10 9 -18
12 -18 6 0 -6 -13 -16 -29 -23 l-30 -12 0 -91 c1 -58 5 -95 12 -100 9 -6 9
-10 0 -14 -10 -3 -13 -61 -13 -239 0 -227 1 -234 20 -234 26 0 26 -12 0 -28
-19 -12 -20 -23 -20 -242 0 -219 1 -230 19 -230 15 0 19 -7 18 -35 -1 -27 -5
-35 -19 -35 -17 0 -18 -72 -16 -1847 l3 -1848 32 1 c18 1 33 -1 33 -5 0 -9 77
-28 155 -37 64 -8 62 -8 85 -17 8 -3 44 -8 80 -10 36 -3 76 -8 90 -12 14 -4
34 -8 45 -10 11 -1 33 -8 50 -14 16 -7 37 -10 47 -8 9 3 36 -2 60 -10 24 -8
55 -13 70 -11 16 3 28 2 28 -2 0 -13 246 -63 305 -62 40 1 53 -2 40 -7 -15 -7
-6 -10 38 -16 31 -4 57 -11 57 -16 0 -5 24 -9 54 -9 30 0 57 -4 60 -9 3 -5 43
-14 88 -21 46 -7 124 -20 173 -30 140 -28 156 -31 150 -20 -3 5 45 9 122 8
l128 -1 -120 -11 -120 -12 78 -8 c42 -5 80 -12 82 -17 3 -4 39 -5 80 -3 53 4
75 2 75 -6 0 -7 -7 -10 -15 -6 -8 3 -15 2 -15 -3 0 -5 9 -11 20 -14 11 -3 18
0 17 7 -1 7 12 11 36 10 25 -1 37 3 37 12 0 19 24 18 40 -1 10 -12 10 -15 -3
-15 -8 0 -27 -6 -42 -14 l-28 -15 37 -5 c20 -3 53 -9 73 -12 21 -3 50 -12 65
-20 15 -8 43 -14 62 -14 19 0 38 -4 41 -10 3 -5 22 -10 41 -10 19 0 34 -4 34
-8 0 -11 -46 -32 -68 -31 -12 0 -9 4 8 11 22 10 12 13 -75 24 -143 18 -167 18
-163 -3 3 -17 39 -28 115 -34 17 -2 29 -7 26 -12 -3 -6 -6 -21 -7 -34 -1 -22
-10 -28 -76 -49 -41 -13 -83 -24 -92 -24 -10 0 -18 -5 -18 -11 0 -7 9 -9 23
-6 133 32 163 40 167 46 3 3 43 16 90 28 77 20 95 21 195 12 61 -5 142 -16
180 -24 39 -7 90 -17 115 -21 25 -3 50 -11 57 -16 7 -5 18 -6 24 -2 8 5 10 2
6 -8 -4 -12 4 -17 31 -21 20 -4 66 -13 102 -22 36 -9 82 -18 103 -22 26 -4 34
-9 25 -14 -9 -6 -7 -9 9 -9 12 0 23 -4 25 -10 2 -5 24 -11 50 -14 25 -2 55 -9
67 -15 11 -6 30 -11 43 -11 34 0 78 -22 78 -40 0 -12 -11 -14 -51 -11 -32 2
-55 -2 -62 -9 -10 -10 5 -11 69 -7 71 4 83 3 98 -14 13 -16 30 -19 114 -19 71
0 108 -5 131 -16 22 -11 57 -16 104 -16 56 1 68 -2 53 -10 -25 -14 -4 -27 49
-29 22 -1 31 -4 21 -6 -38 -10 56 -33 122 -31 35 2 66 -2 70 -7 4 -6 14 -11
22 -13 8 -2 18 -10 23 -17 4 -7 22 -17 40 -21 17 -4 34 -8 37 -9 3 -1 23 -5
45 -9 22 -5 51 -15 64 -23 14 -9 48 -15 85 -16 43 0 54 -2 36 -8 -14 -4 -18
-7 -10 -8 22 -1 274 -83 280 -90 3 -4 23 -8 45 -10 37 -3 60 -7 168 -30 38 -9
52 3 17 14 -25 8 -26 21 -2 27 13 4 24 -6 40 -33 21 -36 26 -39 68 -39 25 0
54 -5 65 -10 12 -7 19 -7 19 -1 0 6 7 8 16 4 11 -4 12 -8 4 -13 -7 -4 -8 -10
-4 -13 22 -12 126 -37 134 -32 6 3 10 2 10 -4 0 -5 16 -8 38 -5 28 3 32 2 17
-5 -11 -5 -15 -10 -10 -12 6 -1 19 -3 30 -5 71 -13 85 -17 85 -24 0 -5 15 -11
33 -15 34 -6 63 -17 110 -41 32 -16 97 -19 97 -5 0 5 -6 12 -12 15 -11 5 18 2
68 -8 7 -1 19 -8 28 -15 9 -7 16 -10 17 -5 1 5 4 -2 8 -16 5 -19 16 -26 46
-32 60 -10 160 -41 176 -55 16 -13 58 -24 184 -48 44 -8 105 -22 135 -30 30
-8 64 -15 77 -15 12 0 24 -4 27 -9 3 -5 31 -12 61 -16 30 -3 53 -10 50 -15 -3
-5 -1 -11 5 -15 5 -3 10 -1 10 4 0 15 23 14 56 -4 26 -13 415 -15 3272 -15
l3242 0 0 4820 0 4820 -972 0 -973 0 30 -25 c17 -13 49 -34 72 -46 49 -24 44
-38 -22 -58 -41 -13 -134 -46 -170 -61 -11 -5 -37 -14 -58 -20 -22 -7 -51 -18
-65 -26 -15 -8 -33 -14 -40 -14 -7 0 -20 -4 -30 -9 -29 -15 -494 -182 -547
-196 -60 -16 -128 -40 -172 -61 -17 -8 -46 -17 -65 -21 -18 -3 -35 -9 -38 -13
-3 -3 -48 -21 -100 -39 -97 -34 -112 -39 -165 -61 -16 -6 -55 -20 -85 -30 -52
-17 -119 -41 -347 -126 -54 -20 -116 -42 -138 -48 -22 -7 -56 -19 -75 -27 -19
-9 -53 -21 -75 -28 -22 -7 -49 -16 -60 -21 -11 -4 -29 -11 -40 -15 -11 -4 -67
-25 -125 -45 -58 -21 -186 -68 -285 -105 -99 -36 -200 -72 -225 -80 -25 -7
-129 -45 -233 -84 -103 -38 -220 -81 -260 -95 -66 -22 -150 -53 -417 -149 -52
-19 -185 -67 -295 -106 -110 -40 -216 -78 -235 -86 -19 -8 -179 -66 -355 -129
-176 -63 -459 -165 -630 -226 -170 -61 -332 -119 -360 -130 -27 -11 -69 -25
-92 -32 -24 -7 -43 -16 -43 -20 0 -5 -4 -8 -10 -8 -5 0 -10 4 -10 8 0 11 60
36 260 110 98 36 154 61 137 62 -40 0 -128 30 -121 41 3 5 0 9 -5 9 -6 0 -11
10 -11 23 0 24 -40 55 -100 77 -19 7 -39 17 -45 22 -5 4 -15 8 -22 8 -8 0 -30
7 -51 17 -42 19 -47 20 -66 22 -29 2 -47 32 -40 65 8 35 36 64 77 78 15 6 27
15 27 22 0 7 15 18 34 24 28 10 39 10 55 0 12 -7 21 -16 21 -20 0 -5 13 -8 30
-8 34 0 46 27 37 83 -3 21 1 38 11 50 13 15 14 22 4 37 -10 16 -4 30 39 95 28
41 55 75 60 75 5 0 9 9 9 19 0 10 7 21 15 25 8 3 23 21 32 41 9 19 24 35 32
35 9 0 22 9 28 19 11 17 9 21 -17 30 -35 12 -50 44 -50 104 -1 50 -16 73 -59
88 -17 6 -31 15 -31 20 0 5 -7 9 -15 9 -8 0 -22 11 -31 25 -18 28 -36 32 -57
11 -8 -8 -35 -17 -61 -20 -26 -3 -57 -11 -69 -18 -12 -7 -30 -13 -40 -15 -16
-3 -17 2 -12 41 5 33 3 51 -9 68 -9 12 -16 32 -16 44 0 21 -41 74 -57 74 -4 0
-21 12 -38 26 -21 18 -36 23 -50 18 -11 -4 -47 -7 -80 -8 -35 -1 -73 -9 -92
-19 -44 -23 -118 -22 -142 2 -10 10 -28 22 -40 26 -12 3 -21 10 -21 15 0 5
-25 23 -56 42 -78 47 -94 55 -136 74 -21 9 -44 28 -51 43 -7 14 -28 52 -45 83
-18 31 -32 64 -32 73 0 9 -7 26 -16 39 -14 22 -14 28 0 61 9 20 27 50 41 67
14 16 25 40 25 53 0 44 39 103 76 117 19 6 34 16 34 20 0 10 -4684 11 -4693 1z
m4301 -558 c29 -14 63 -25 76 -25 13 0 29 -7 36 -15 7 -8 20 -15 29 -15 19 -1
71 -44 71 -60 0 -13 16 -13 40 2 27 17 50 -3 31 -26 -9 -10 -12 -40 -9 -88 l3
-73 -30 1 c-29 0 -55 -15 -55 -33 0 -4 12 -21 26 -38 64 -73 66 -102 11 -152
-54 -50 -107 -115 -111 -137 -20 -106 -23 -110 -88 -121 -39 -6 -50 -21 -41
-54 4 -16 13 -21 39 -21 39 0 41 -9 16 -60 -28 -57 -87 -73 -126 -34 -13 12
-24 9 -85 -22 l-69 -37 -46 27 c-42 24 -46 30 -46 65 0 22 6 44 15 51 8 7 15
18 15 24 0 6 16 25 36 42 32 26 35 33 25 51 -16 31 -14 138 3 152 8 7 17 23
20 36 7 26 19 30 88 26 32 -2 42 3 75 39 21 24 41 50 44 59 3 9 9 26 13 37 7
20 61 44 98 44 9 0 21 7 28 15 10 12 8 22 -14 56 -19 28 -27 51 -24 74 2 27
-4 41 -27 65 -37 39 -60 38 -101 -6 -32 -34 -34 -38 -28 -89 6 -49 5 -54 -19
-70 -21 -13 -39 -15 -95 -10 -44 5 -76 3 -90 -4 -61 -32 -138 43 -125 124 11
74 68 145 117 145 6 0 29 9 51 20 22 11 46 20 55 20 8 1 31 9 50 20 46 25 57
25 118 -5z m6129 -659 c112 -21 228 -51 315 -82 166 -60 403 -198 525 -306 86
-77 223 -217 223 -228 0 -6 4 -10 8 -10 10 0 132 -167 132 -180 0 -6 5 -10 10
-10 6 0 10 -7 10 -16 0 -9 5 -12 12 -8 7 5 8 3 4 -5 -5 -7 -1 -20 7 -29 8 -9
38 -67 68 -129 29 -62 55 -110 58 -107 3 2 11 -10 18 -27 7 -18 11 -34 8 -37
-3 -3 -5 1 -5 8 0 7 -2 11 -5 8 -8 -7 25 -89 34 -84 3 2 7 -10 8 -27 4 -47 24
-92 34 -75 6 8 8 0 8 -22 -2 -37 16 -144 26 -160 15 -25 57 -341 47 -352 -4
-4 -63 -18 -132 -32 -107 -22 -228 -47 -455 -95 -27 -6 -115 -24 -195 -41 -80
-17 -161 -35 -180 -40 -19 -5 -91 -20 -160 -34 -142 -28 -353 -71 -420 -86
-25 -5 -115 -23 -200 -40 -85 -18 -202 -42 -260 -55 -58 -14 -163 -36 -235
-51 -71 -14 -157 -32 -190 -39 -33 -7 -87 -18 -120 -25 -33 -6 -67 -14 -75
-18 -8 -3 -19 -4 -23 -3 -5 1 -66 -10 -135 -25 -70 -14 -149 -31 -177 -36 -27
-5 -57 -12 -65 -15 -8 -3 -26 -7 -40 -8 -14 -2 -79 -15 -145 -29 -66 -14 -147
-31 -180 -37 -33 -5 -76 -14 -95 -19 -19 -5 -91 -21 -160 -35 -69 -14 -154
-32 -190 -40 -36 -7 -99 -20 -140 -29 -142 -29 -190 -41 -190 -46 0 -3 -19 -6
-43 -8 -23 -1 -89 -13 -147 -26 -58 -13 -108 -22 -111 -20 -11 6 7 136 48 354
30 158 116 450 177 600 75 181 254 527 302 581 8 8 14 20 14 26 0 6 4 13 8 15
5 2 27 30 49 63 210 309 549 641 838 822 350 218 663 326 1060 367 79 8 342
-3 422 -18z m-5484 -712 c21 -43 23 -117 2 -134 -8 -7 -15 -19 -15 -28 0 -20
-29 -41 -57 -42 -13 0 -23 -5 -23 -11 0 -5 -21 -19 -47 -30 -27 -11 -56 -24
-65 -29 -10 -6 -28 -10 -41 -10 -13 0 -28 -5 -35 -12 -19 -19 -69 -11 -105 16
-19 14 -44 26 -56 26 -47 0 -131 50 -131 77 0 7 -11 14 -25 14 -14 1 -31 2
-37 3 -7 0 -14 11 -16 23 -3 17 0 21 12 17 20 -8 21 10 1 26 -21 17 -20 90 0
90 9 0 27 8 41 17 22 14 30 15 62 3 51 -18 78 -45 64 -63 -16 -19 -11 -68 8
-75 8 -3 17 -8 20 -11 10 -12 50 -31 65 -31 8 0 15 6 15 14 0 7 16 24 35 37
38 26 40 31 24 57 -8 12 -6 27 5 54 l16 37 102 3 c150 4 160 2 181 -38z m397
-129 l0 -73 -42 -16 c-96 -34 -89 -38 -86 49 l3 76 55 23 c30 12 58 21 63 19
4 -2 7 -37 7 -78z m-4325 -315 c5 -15 12 -19 31 -14 14 4 24 2 24 -5 0 -6 -9
-11 -20 -11 -11 0 -20 -5 -20 -10 0 -6 11 -8 28 -4 l27 7 -21 -21 c-15 -14
-20 -28 -17 -46 3 -14 9 -23 14 -21 12 8 27 -25 22 -46 -6 -22 -62 -37 -73
-19 -4 7 -12 10 -18 6 -6 -3 -14 -1 -18 5 -5 9 3 10 30 5 20 -4 36 -3 36 2 0
13 -44 24 -64 16 -12 -5 -15 -2 -10 10 4 10 0 18 -10 22 -15 6 -15 9 -3 23 24
28 47 89 41 105 -3 9 -1 16 4 16 6 0 14 -9 17 -20z m-331 -255 c-3 -8 -9 -14
-12 -13 -20 2 -32 -3 -27 -12 4 -6 11 -8 16 -5 5 4 9 -2 9 -12 1 -17 1 -17 15
1 14 19 15 18 23 -4 11 -30 -4 -83 -33 -114 -12 -12 -19 -29 -17 -36 3 -9 -1
-11 -12 -7 -10 4 -15 3 -11 -3 9 -14 -8 -13 -23 2 -9 9 -13 7 -18 -5 -3 -10
-17 -17 -31 -17 -20 0 -23 3 -18 22 6 16 4 20 -7 15 -8 -3 -23 3 -32 14 -13
16 -20 17 -36 9 -24 -13 -24 -10 -7 24 8 14 17 23 20 19 4 -3 7 -2 7 4 0 6 16
13 35 15 31 3 35 1 40 -24 4 -15 11 -28 16 -28 6 0 7 -10 3 -22 -6 -19 -5 -21
8 -11 8 7 17 10 20 7 3 -3 4 21 3 52 -2 39 -9 60 -19 66 -8 5 -13 15 -10 23 4
9 0 15 -10 15 -9 0 -16 7 -16 16 0 8 4 13 8 10 5 -3 21 -7 36 -10 23 -4 26 -2
16 9 -9 11 -5 14 22 17 41 4 49 1 42 -17z m-584 -15 c0 -5 9 -10 20 -10 11 0
20 -3 21 -7 0 -5 2 -18 5 -30 3 -19 -1 -23 -24 -24 -15 -1 -20 -3 -10 -6 20
-5 20 -50 0 -62 -19 -12 -4 -40 19 -34 10 3 19 0 19 -6 0 -6 -5 -11 -11 -11
-6 0 -9 -7 -5 -15 8 -21 -8 -19 -29 5 -10 12 -25 18 -33 15 -7 -3 -18 -2 -23
1 -14 8 11 35 25 27 7 -4 7 -2 -1 7 -9 10 -15 10 -28 -4 -19 -18 -35 -21 -35
-5 0 5 -4 8 -8 5 -5 -3 -15 7 -23 21 -11 21 -11 27 -1 30 6 3 12 9 12 15 0 6
-6 5 -16 -2 -8 -8 -35 -13 -59 -13 -28 0 -46 -5 -49 -14 -3 -8 0 -13 7 -11 7
2 14 -1 17 -7 9 -23 -28 -14 -45 11 -14 22 -15 28 -4 35 8 5 22 7 32 5 10 -2
17 2 17 10 0 8 -6 14 -12 14 -9 0 -9 3 1 9 8 5 30 8 49 5 24 -3 31 -1 26 8 -5
7 -2 9 8 5 11 -4 18 2 23 16 5 17 8 19 13 7 7 -14 82 -25 80 -11 0 3 0 12 1
19 1 14 21 17 21 2z m744 -101 c-16 -17 -16 -22 -4 -29 8 -6 22 -10 30 -11 8
0 10 -2 5 -5 -6 -2 -10 -21 -8 -42 1 -38 -27 -82 -54 -82 -23 0 -14 16 15 27
23 8 24 11 10 18 -11 4 -23 1 -33 -9 -9 -9 -21 -16 -26 -16 -12 0 -7 -43 6
-52 6 -5 5 -12 -3 -20 -11 -11 -16 -10 -26 5 -7 9 -19 17 -26 17 -7 0 -11 -3
-8 -6 4 -3 2 -19 -2 -35 -6 -22 -5 -29 5 -29 7 0 15 -7 19 -15 4 -13 2 -14
-14 -5 -11 6 -20 8 -20 5 0 -4 -7 1 -16 9 -8 9 -22 16 -29 16 -8 0 -19 9 -25
19 -14 26 -13 36 3 24 6 -6 22 -13 35 -16 18 -4 22 -2 17 12 -5 16 21 51 32
44 10 -8 21 -1 26 17 6 25 -11 26 -29 3 -7 -10 -16 -14 -21 -10 -4 5 1 15 12
23 17 12 18 17 7 35 -7 11 -10 24 -7 29 3 4 0 10 -7 12 -24 8 4 26 50 33 35 4
53 13 67 31 10 13 22 24 28 24 6 0 2 -9 -9 -21z m56 -158 c0 -5 3 -17 6 -25 5
-12 2 -15 -12 -9 -12 4 -15 3 -10 -5 4 -7 3 -12 -1 -12 -5 0 -9 -9 -10 -20 -1
-12 4 -20 13 -20 11 0 13 6 9 20 -4 11 -2 21 4 21 6 1 17 2 24 3 21 3 58 -17
53 -30 -3 -7 -2 -15 1 -18 12 -11 9 -56 -3 -56 -7 0 -11 8 -10 18 0 9 -6 17
-14 17 -10 0 -14 -8 -13 -23 2 -16 -1 -21 -9 -16 -8 5 -9 2 -5 -9 11 -30 -11
-18 -27 14 -15 29 -14 30 7 25 12 -3 16 -3 9 0 -6 3 -9 11 -6 16 4 7 2 8 -5 4
-6 -4 -18 -2 -26 4 -12 10 -15 9 -15 -6 -1 -19 -1 -19 -11 0 -9 14 -13 16 -20
5 -11 -18 8 -39 29 -31 15 5 15 4 -1 -12 -17 -18 -18 -18 -32 0 -7 11 -24 19
-36 19 -12 0 -24 6 -26 13 -3 7 5 12 22 12 15 0 24 4 20 10 -3 6 -1 10 5 10 6
0 20 9 32 20 12 11 18 20 13 20 -5 0 0 7 11 15 11 8 14 15 7 15 -22 0 -14 20
7 20 11 0 20 -4 20 -9z m-343 -119 c-21 -23 -22 -46 -2 -38 25 9 66 -33 59
-61 -5 -19 -2 -23 15 -23 12 0 21 -3 21 -7 0 -5 12 -9 26 -9 14 -1 32 -11 40
-23 9 -12 22 -21 31 -21 13 0 13 2 2 16 -12 15 -11 16 8 10 18 -6 20 -4 16 14
-3 11 0 20 6 20 6 0 11 -7 11 -15 0 -8 4 -15 10 -15 5 0 7 7 4 15 -4 8 -2 15
4 15 6 0 13 -6 15 -12 3 -8 6 -6 6 5 1 18 21 25 21 7 0 -5 11 -10 25 -10 14 0
25 5 25 10 0 6 -8 10 -17 10 -12 0 -14 3 -6 11 8 8 17 5 32 -10 22 -22 46 -30
96 -34 33 -2 67 -31 59 -51 -3 -7 -22 -17 -42 -23 l-37 -10 36 -2 c24 -1 43 6
58 21 l23 21 -22 17 c-32 24 -21 54 14 40 14 -5 41 -8 60 -6 19 1 33 -1 30 -6
-3 -4 2 -8 10 -8 22 0 20 -33 -5 -64 l-21 -27 41 7 c37 6 41 5 35 -12 -14 -42
-35 -84 -51 -99 -15 -16 -18 -13 -34 31 -10 26 -16 50 -14 55 3 4 -5 5 -17 2
-21 -4 -21 -3 -7 9 15 12 15 15 -6 24 -37 18 -52 1 -30 -33 23 -34 31 -68 9
-39 -8 11 -14 15 -14 9 0 -13 -42 -5 -51 10 -4 5 -9 5 -13 -2 -4 -6 -2 -11 3
-11 6 0 11 -6 11 -14 0 -8 4 -18 10 -21 6 -3 7 1 4 9 -3 9 -2 16 4 16 5 0 12
-6 15 -14 7 -18 -21 -30 -37 -17 -15 12 -88 17 -104 7 -12 -7 -16 4 -13 32 1
6 -7 12 -18 12 -15 0 -19 5 -14 17 5 12 2 15 -9 10 -11 -4 -18 1 -22 16 -5 17
-8 19 -15 8 -5 -7 -14 -11 -20 -7 -7 4 -9 1 -5 -8 3 -8 13 -18 23 -21 23 -7
42 -60 28 -74 -8 -8 -4 -11 14 -11 21 -1 22 -2 6 -11 -13 -7 -15 -14 -8 -23 7
-8 5 -12 -9 -12 -20 0 -44 63 -34 90 3 9 1 16 -5 16 -6 0 -11 -4 -11 -10 0 -5
-13 -10 -28 -10 -15 0 -33 -5 -40 -12 -21 -21 -23 -2 -2 22 23 27 26 38 6 21
-12 -10 -14 -8 -12 11 1 13 5 29 9 35 4 6 0 16 -8 23 -12 10 -15 10 -15 0 0
-6 -6 -10 -12 -7 -7 2 -12 11 -10 21 4 21 -7 21 -23 -1 -15 -20 -37 -9 -28 14
5 13 2 15 -15 11 -20 -6 -26 1 -24 23 1 4 -6 6 -16 5 -11 -1 -18 8 -20 22 -3
16 -8 21 -21 17 -14 -4 -17 1 -16 27 0 19 -5 34 -12 34 -30 3 -33 4 -33 13 0
10 59 51 74 51 5 0 2 -8 -7 -18z m971 -85 c20 -19 37 -23 27 -7 -3 6 -2 10 3
10 6 0 9 -11 8 -24 -1 -20 -4 -22 -18 -15 -14 7 -18 6 -18 -6 0 -8 6 -15 14
-15 13 0 30 -39 21 -49 -3 -2 -5 1 -5 7 0 7 -5 12 -11 12 -7 0 -8 -7 -4 -17 4
-10 10 -24 13 -32 3 -9 1 -12 -7 -7 -14 9 -61 -19 -61 -35 0 -7 10 -9 24 -5
14 3 28 1 32 -5 5 -8 -4 -10 -30 -7 -20 2 -36 0 -36 -4 0 -4 -5 -8 -11 -8 -6
0 -9 10 -7 23 2 12 5 20 8 17 3 -2 20 9 38 25 18 16 28 31 22 33 -6 2 -19 -3
-28 -11 -20 -17 -104 -28 -99 -12 2 5 17 13 33 16 l29 7 -30 2 c-16 1 -38 2
-47 1 -10 -1 -18 1 -19 6 0 4 -2 18 -5 30 -3 15 5 28 25 42 16 12 34 21 41 21
6 0 18 7 26 15 18 18 47 15 72 -8z m-1050 -73 c8 5 10 2 6 -9 -5 -11 -2 -14
10 -9 9 3 16 2 16 -4 0 -6 9 -8 20 -5 11 3 20 1 20 -5 0 -6 8 -12 17 -14 15
-3 15 -5 -2 -21 -9 -10 -24 -16 -31 -13 -8 3 -14 1 -14 -4 0 -6 5 -10 10 -10
6 0 10 -9 10 -19 0 -11 5 -23 11 -26 7 -5 5 -15 -6 -31 -14 -21 -14 -25 -1
-30 8 -3 24 0 37 6 20 11 21 10 16 -9 -4 -16 0 -22 19 -27 13 -3 24 -10 24
-15 0 -11 -3 -11 -34 0 -17 7 -26 7 -30 -2 -3 -8 -11 -5 -23 9 -19 21 -19 21
-35 2 -16 -20 -17 -20 -42 -2 -33 25 -32 31 4 31 27 0 59 24 60 44 0 4 -18 9
-40 13 -22 3 -40 11 -40 16 0 6 -8 10 -17 11 -11 0 -13 3 -5 6 17 7 15 23 -4
23 -11 0 -14 6 -8 23 4 12 11 25 17 28 5 4 3 10 -6 15 -11 7 -12 15 -6 33 9
23 10 23 23 6 7 -10 18 -15 24 -11z m228 -295 c3 -6 15 -9 25 -6 15 4 19 0 19
-24 0 -19 8 -34 25 -45 14 -9 25 -22 25 -30 0 -18 -21 -29 -30 -14 -5 9 -9 8
-13 -4 -3 -8 -1 -17 6 -20 8 -3 6 -8 -6 -16 -14 -9 -15 -15 -6 -31 12 -22 7
-35 -10 -25 -6 4 -8 13 -4 21 3 8 0 15 -6 15 -6 0 -10 3 -10 8 3 19 -2 24 -15
13 -10 -9 -17 -7 -27 6 -8 9 -9 14 -3 10 15 -9 23 12 14 37 -6 17 -7 17 -13 3
-3 -8 -16 -21 -29 -28 -23 -12 -23 -12 -5 9 14 15 15 21 5 24 -8 3 0 17 25 41
31 31 34 37 17 37 -13 0 -18 5 -14 15 7 18 20 19 30 4z m10666 -1679 c3 -16 2
-33 -1 -38 -3 -4 -44 -9 -91 -10 -47 -1 -107 -7 -135 -12 -27 -5 -99 -11 -160
-14 -60 -3 -193 -13 -295 -21 -102 -8 -264 -20 -360 -26 -96 -7 -181 -15 -189
-19 -17 -9 87 -19 264 -25 170 -5 397 -17 393 -20 -2 -2 -77 -8 -168 -14 -91
-7 -190 -14 -220 -16 -30 -3 -149 -12 -265 -20 -115 -8 -232 -17 -260 -20 -27
-2 -41 -2 -30 1 11 3 24 10 30 15 5 5 15 9 23 9 8 0 20 7 27 17 12 16 142 36
233 34 23 -1 42 3 42 8 0 11 -179 26 -206 17 -11 -3 -53 -6 -94 -7 -41 0 -138
-7 -215 -14 -77 -8 -241 -21 -365 -30 -231 -16 -296 -27 -283 -48 4 -8 2 -8
-9 1 -20 16 -192 11 -538 -17 -1297 -105 -1205 -99 -1213 -72 -3 11 -1 23 3
26 9 6 205 26 550 56 151 13 240 25 250 33 31 26 44 30 36 11 -6 -17 0 -17 91
-11 114 8 381 30 608 50 180 16 253 23 854 71 337 28 428 38 442 51 11 10 19
12 24 5 8 -14 78 -14 198 -2 51 6 151 15 222 21 72 5 216 17 320 26 306 26
367 31 426 32 56 2 57 1 61 -28z m320 -74 c40 -2 120 -4 178 -6 100 -2 102 -3
45 -10 -33 -5 -127 -13 -210 -19 -82 -6 -202 -16 -265 -21 -185 -17 -491 -40
-503 -39 -23 2 89 29 120 29 17 0 35 5 38 10 3 6 25 11 48 11 l42 2 -35 7 -35
7 32 2 c17 0 34 -3 38 -8 9 -15 67 -10 61 5 -4 10 11 12 60 11 35 -1 65 2 67
7 4 11 151 25 204 19 24 -2 75 -6 115 -7z m-2522 -176 c0 -6 11 -8 28 -4 34 7
16 7 285 -1 125 -4 226 -9 223 -12 -5 -5 -136 -17 -371 -33 -88 -6 -173 -13
-190 -15 -97 -11 -269 -15 -255 -6 8 6 31 11 50 12 31 1 32 2 10 8 -21 6 -15
9 35 19 136 26 159 31 123 27 -21 -2 -40 -1 -42 3 -2 4 20 9 50 10 34 2 54 -1
54 -8z m-650 -76 c268 -9 289 -18 80 -33 -96 -6 -215 -16 -265 -21 -196 -20
-233 -22 -239 -12 -10 16 38 40 100 50 54 9 56 10 19 11 -33 2 -36 4 -20 12
11 5 47 7 80 4 33 -2 143 -7 245 -11z m3132 -34 c2 -6 20 -5 48 1 39 9 166 7
176 -3 3 -4 -276 -22 -706 -48 -91 -6 -241 -15 -335 -20 -272 -17 -839 -49
-977 -57 -83 -4 -128 -3 -128 4 0 6 63 13 153 17 83 4 166 9 182 11 17 2 91 9
165 14 74 6 184 16 244 21 61 6 137 10 170 10 34 -1 124 3 201 9 77 6 237 16
355 22 118 7 251 15 295 19 125 11 153 11 157 0z m-1525 -667 c-4 -131 -7
-244 -7 -250 0 -22 -36 -14 -56 12 -13 17 -28 25 -50 25 -30 0 -71 -30 -57
-43 8 -9 -380 -9 -402 -1 -8 4 -23 20 -31 36 -13 24 -14 60 -8 229 5 139 11
202 19 205 12 5 312 19 489 22 l109 2 -6 -237z m-8120 -300 c-10 -49 -23 -113
-29 -143 -13 -75 -34 -116 -60 -124 -13 -3 -25 -1 -26 5 -3 6 -9 6 -18 -2 -10
-8 -14 -9 -14 0 0 6 12 16 26 21 25 10 54 33 54 44 0 3 -7 6 -15 6 -20 0 -19
29 3 82 11 24 22 61 26 82 4 22 22 56 39 77 18 21 32 39 33 39 0 0 -8 -39 -19
-87z m697 -82 c-13 -28 -15 -43 -7 -72 7 -25 6 -51 -2 -82 -22 -87 -2 -124 75
-137 39 -6 39 -22 0 -26 -72 -8 -75 -9 -81 -34 l-7 -25 -1 28 c-1 34 -21 36
-21 2 0 -14 -5 -25 -11 -25 -6 0 -8 11 -5 28 3 15 10 77 16 137 6 61 16 137
21 170 6 33 10 78 10 100 l-1 40 15 -34 c14 -31 14 -38 -1 -70z m-569 -49 c3
-3 5 12 5 33 0 36 1 38 15 19 14 -19 15 -19 21 4 12 40 24 23 17 -25 -13 -105
-21 -139 -22 -108 -1 23 -3 27 -11 15 -5 -8 -7 -23 -4 -32 4 -15 0 -17 -28
-14 -24 2 -33 8 -33 22 0 15 -9 20 -38 22 -24 2 -37 8 -34 15 2 7 13 11 24 10
22 -2 36 31 49 122 l8 50 13 -64 c7 -36 15 -67 18 -69z m484 -1 c17 -11 5 -32
-14 -25 -20 8 -155 -16 -155 -27 0 -5 -6 -9 -14 -9 -7 0 -29 -15 -49 -34 -34
-32 -42 -34 -102 -35 -36 0 -70 -3 -75 -6 -13 -8 -13 17 0 50 9 23 14 25 45
19 27 -5 35 -3 35 9 0 8 7 17 15 21 8 3 15 12 15 20 0 8 10 17 23 19 42 8 262
7 276 -2z m-1003 -398 c-2 -16 -5 -31 -5 -35 -1 -5 -11 -8 -23 -8 -19 0 -20 2
-8 11 13 9 13 10 0 6 -18 -4 -45 -74 -55 -138 -7 -45 -6 -46 27 -55 25 -8 32
-15 30 -30 -6 -37 -12 -44 -38 -44 -22 0 -25 -2 -14 -15 7 -8 18 -15 25 -15 6
0 12 -7 12 -15 0 -10 -7 -14 -19 -10 -10 3 -28 7 -40 10 -22 5 -21 5 2 -9 14
-9 33 -15 43 -16 23 0 22 -16 -3 -23 -11 -3 -20 -14 -20 -24 0 -28 -10 -34
-32 -22 -19 10 -20 18 -13 112 7 102 20 168 52 264 15 46 20 52 39 47 19 -5
22 -3 17 15 -4 15 -1 21 11 21 13 0 16 -7 12 -27z m610 -10 c8 -3 14 -11 14
-19 0 -18 15 -18 45 2 23 15 25 15 25 0 0 -9 1 -16 3 -17 56 -11 90 -9 101 6
12 17 13 17 18 -3 6 -23 48 -27 48 -5 0 19 57 16 64 -3 3 -8 10 -13 15 -9 6 3
15 -4 22 -16 l11 -22 -128 8 c-71 4 -163 8 -204 10 -41 2 -142 7 -225 10 -82
4 -148 5 -145 2 6 -6 126 -16 198 -17 l42 0 0 -63 c0 -39 -5 -71 -14 -83 -9
-11 -12 -30 -9 -46 4 -23 1 -29 -18 -37 -13 -4 -31 -6 -39 -4 -9 3 -8 0 3 -7
14 -9 15 -15 7 -25 -7 -8 -7 -16 -2 -19 6 -3 13 1 16 10 9 22 26 7 22 -19 -3
-12 -5 -30 -5 -39 -1 -12 -9 -18 -23 -17 -17 0 -19 2 -8 7 17 8 26 42 10 42
-5 0 -10 -5 -10 -11 0 -27 -20 6 -21 34 l-1 32 -19 -40 c-16 -34 -24 -40 -20
-12 2 12 -27 8 -31 -5 -3 -9 -6 -9 -11 -1 -5 7 1 17 13 23 21 11 27 44 9 55
-15 10 -61 -4 -54 -15 3 -6 -3 -10 -14 -10 -12 0 -21 -5 -21 -11 0 -5 3 -8 8
-5 4 2 15 -2 25 -9 12 -8 14 -15 7 -20 -5 -3 -8 -11 -5 -16 4 -5 1 -9 -4 -9
-6 0 -11 7 -11 15 0 21 -105 22 -113 1 -5 -12 5 -16 41 -19 45 -3 44 -3 -12
-5 -56 -2 -58 -1 -52 21 3 12 6 44 6 70 l0 49 114 -7 113 -7 22 45 c12 25 38
62 57 82 19 21 33 42 31 49 -2 7 -52 14 -132 19 -107 6 -132 5 -152 -8 -23
-15 -23 -15 -23 30 l0 45 63 -1 c34 0 116 -4 182 -9 66 -4 124 -4 128 0 5 4
-44 11 -110 14 -239 13 -280 25 -64 20 112 -3 210 -8 217 -11z m7780 -64 c-3
-21 -3 -69 0 -107 l7 -68 321 -1 c176 -1 332 -4 346 -6 32 -6 49 4 24 14 -16
7 -16 8 7 8 23 1 25 -2 25 -44 1 -41 -2 -45 -23 -45 -13 0 -23 5 -23 11 0 5 4
8 9 4 12 -7 24 12 16 25 -5 8 -11 8 -19 1 -18 -15 -86 -24 -86 -12 0 5 -18 9
-40 9 -27 0 -40 -5 -40 -14 0 -16 -30 -18 -104 -8 -31 5 -46 11 -46 22 0 10
-3 12 -12 4 -9 -7 -79 -9 -198 -6 -219 5 -591 22 -597 28 -2 2 89 4 202 4 114
0 209 3 212 5 3 3 5 56 4 117 -1 82 1 110 10 105 7 -5 9 -22 5 -46z m-7237 -6
l93 -6 -6 -31 c-12 -58 -66 -87 -66 -35 0 23 -22 49 -42 49 -7 0 -20 -8 -29
-18 -28 -33 -30 -40 -10 -35 15 4 19 0 16 -14 -2 -10 -4 -22 -4 -28 -1 -5 -5
-5 -9 2 -4 7 -30 14 -57 16 l-49 4 -1 52 -1 51 36 0 c20 0 79 -3 129 -7z
m1399 -230 c-2 -37 -11 -83 -20 -100 -9 -18 -12 -33 -7 -33 5 0 9 5 9 11 0 5
5 7 11 4 6 -4 9 -24 6 -46 -5 -44 -17 -65 -17 -31 0 12 -4 22 -9 22 -6 0 -6
-13 0 -32 7 -27 6 -35 -8 -46 -13 -9 -14 -15 -5 -24 9 -9 12 -8 12 5 0 9 5 17
11 17 8 0 9 -21 5 -67 -3 -38 -8 -111 -11 -163 -3 -52 -8 -116 -11 -141 l-5
-46 -57 4 c-73 5 -102 11 -102 22 0 4 11 6 25 3 16 -3 25 0 25 8 0 7 -7 10
-15 6 -8 -3 -21 2 -30 10 -11 12 -15 12 -15 2 0 -10 -2 -10 -9 1 -5 7 -13 11
-18 8 -23 -14 -40 18 -35 66 4 42 7 47 29 47 14 0 22 4 18 11 -4 6 -13 8 -21
5 -11 -4 -14 7 -14 53 0 32 2 60 5 63 3 2 8 52 11 109 3 57 7 118 9 134 2 17
4 34 4 38 1 5 29 7 64 6 l62 -3 0 72 c0 80 12 98 17 25 3 -46 4 -47 37 -48 29
0 35 4 37 25 3 34 -5 62 -17 55 -13 -9 -11 3 4 20 21 23 30 -1 25 -72z m6920
71 c41 -5 43 -7 28 -23 -9 -10 -16 -26 -17 -37 0 -17 -1 -16 -9 4 -9 20 -16
22 -85 22 -42 0 -74 -3 -72 -7 3 -5 1 -17 -2 -27 -6 -15 -19 -20 -67 -22 -32
-2 -72 -1 -87 2 -40 8 -20 25 31 26 22 0 43 5 45 12 3 7 -12 10 -45 9 -45 -2
-49 0 -45 18 3 10 1 19 -5 19 -5 0 -7 3 -5 8 6 8 267 5 335 -4z m-9143 -203
c66 -6 126 -11 133 -11 22 0 12 -25 -20 -47 l-31 -22 -18 22 c-21 26 -18 32
10 18 13 -8 22 -8 26 -1 4 6 3 10 -2 9 -4 -1 -17 2 -27 6 -13 6 -23 3 -31 -8
-15 -21 -83 -23 -99 -3 -7 9 -25 12 -54 8 -34 -3 -45 -9 -52 -28 -14 -36 -22
-29 -19 19 3 54 4 55 36 51 16 -1 82 -8 148 -13z"/>
<path d="M10225 8269 c-189 -19 -272 -32 -379 -59 -115 -29 -341 -110 -384
-137 -13 -8 -38 -20 -55 -26 -18 -7 -72 -34 -120 -62 -49 -27 -97 -54 -108
-60 -10 -5 -19 -13 -19 -17 0 -5 -5 -8 -11 -8 -6 0 -37 -20 -69 -45 -59 -45
-77 -55 -64 -33 4 7 3 8 -5 4 -6 -4 -9 -11 -6 -16 3 -5 -12 -21 -32 -37 -48
-35 -166 -135 -175 -148 -4 -5 -11 -6 -15 -1 -4 4 3 16 16 27 13 11 21 22 18
25 -9 10 -49 -37 -43 -51 2 -7 -17 -34 -45 -60 -27 -25 -49 -49 -49 -53 0 -4
-12 -15 -26 -26 l-26 -19 6 24 c6 20 5 21 -4 6 -6 -9 -8 -22 -5 -27 3 -5 1
-15 -5 -22 -5 -7 -38 -48 -71 -91 -34 -43 -66 -74 -71 -70 -7 3 -8 1 -4 -6 4
-6 -3 -24 -16 -39 -13 -16 -34 -43 -47 -60 -20 -27 -26 -30 -40 -19 -14 10
-14 10 -3 -4 11 -14 7 -26 -25 -77 -27 -44 -43 -59 -55 -56 -9 3 -19 0 -23 -5
-3 -7 0 -8 9 -5 9 3 16 1 16 -5 0 -13 -27 -58 -47 -79 -7 -7 -13 -20 -13 -29
0 -10 -6 -13 -16 -9 -12 4 -15 2 -10 -9 7 -20 -24 -86 -37 -78 -6 3 -7 1 -3
-5 3 -6 -2 -26 -12 -44 -10 -18 -34 -67 -52 -108 -19 -41 -37 -77 -40 -80 -4
-3 -21 -48 -38 -100 -40 -118 -55 -160 -68 -185 -6 -11 -19 -55 -29 -98 -9
-42 -21 -80 -26 -83 -5 -3 -9 -16 -9 -29 0 -13 -9 -61 -19 -107 -11 -46 -22
-107 -26 -137 l-6 -53 28 7 c15 4 105 24 198 45 94 21 220 50 280 64 61 14
207 46 325 71 118 25 256 55 305 66 50 11 162 35 250 53 88 19 266 57 395 85
484 107 625 138 940 206 63 14 147 32 185 40 39 9 131 29 205 45 74 16 182 40
240 53 58 14 159 37 225 52 66 15 136 31 155 36 19 5 98 23 175 40 77 16 156
34 176 39 42 12 43 -9 -5 190 -113 468 -366 865 -709 1107 -138 98 -161 111
-308 176 -105 47 -258 89 -369 102 -19 2 -48 6 -65 9 -62 11 -163 13 -240 5z
m-19 -237 c8 -17 13 -20 17 -10 6 15 7 -113 7 -846 0 -329 -4 -555 -10 -565
-7 -12 -9 -13 -10 -2 0 8 -2 12 -5 9 -3 -3 1 -18 10 -34 8 -16 15 -36 14 -44
0 -8 -7 -1 -15 15 -14 30 -14 30 -12 -23 3 -58 6 -56 -80 -67 -28 -4 -49 -11
-46 -16 3 -6 -5 -7 -21 -3 -18 5 -30 2 -36 -7 -6 -11 -13 -11 -26 -3 -17 11
-18 39 -16 460 2 415 1 443 -12 364 -16 -100 -24 -130 -35 -130 -5 0 -11 -14
-15 -31 -4 -17 -9 -28 -12 -25 -6 6 26 107 38 121 5 5 9 23 8 40 0 25 -3 21
-19 -26 -10 -31 -26 -71 -34 -88 -10 -18 -14 -42 -11 -58 6 -25 5 -26 -8 -11
-16 20 -27 14 -27 -14 0 -11 -4 -16 -10 -13 -5 3 -10 0 -10 -7 0 -8 -15 -30
-33 -50 -36 -39 -39 -72 -5 -41 20 18 21 17 10 -3 -6 -11 -19 -27 -28 -35 -12
-9 -15 -9 -10 -1 16 27 -7 31 -33 5 -14 -16 -35 -32 -45 -38 -15 -9 -14 -10 8
-11 14 -1 23 2 20 7 -3 5 -3 9 0 9 3 0 7 -4 11 -9 3 -6 -16 -26 -42 -46 -37
-28 -53 -34 -75 -30 -17 4 -28 2 -28 -4 0 -6 7 -7 17 -4 11 4 14 3 9 -6 -4 -6
-19 -10 -34 -9 -19 2 -29 -3 -38 -21 -14 -27 -7 -62 7 -39 5 7 8 -41 7 -112
-1 -69 -3 -106 -5 -82 -7 72 -23 46 -25 -40 0 -46 -2 -87 -3 -93 -2 -5 -3 -18
-4 -27 -1 -13 -13 -20 -42 -24 -29 -5 -37 -9 -27 -16 9 -6 6 -7 -10 -3 -12 4
-48 -1 -80 -11 -31 -10 -63 -16 -69 -15 -7 1 -13 -2 -13 -8 0 -5 -20 -9 -44
-9 -25 0 -54 -3 -65 -7 -18 -5 -22 1 -36 52 -8 32 -22 81 -30 108 -8 28 -26
94 -41 148 -15 53 -30 97 -34 97 -3 0 -6 -30 -6 -67 2 -175 -5 -363 -13 -363
-5 0 -9 48 -10 107 -1 59 -4 109 -6 112 -3 2 -5 -45 -5 -105 0 -72 4 -114 12
-122 9 -9 5 -12 -21 -12 -18 0 -30 -4 -27 -9 3 -4 -6 -6 -21 -3 -19 4 -24 2
-18 -8 5 -9 2 -10 -14 -5 -12 4 -28 2 -35 -4 -6 -5 -23 -7 -35 -4 -24 6 -24 7
-17 122 3 64 11 314 17 556 6 242 14 490 17 550 l7 110 70 23 c91 31 169 31
221 1 63 -37 103 -69 109 -90 4 -11 11 -17 16 -14 5 4 9 -3 9 -14 0 -11 4 -22
9 -25 5 -4 15 -38 21 -78 14 -83 7 -190 -15 -239 l-16 -34 4 33 c2 17 0 32 -5
32 -4 0 -8 -12 -8 -27 0 -14 -7 -35 -17 -45 -9 -10 -13 -21 -10 -25 4 -4 14 2
22 13 31 42 13 -10 -25 -69 -22 -34 -40 -55 -39 -47 0 8 6 24 14 34 8 11 15
27 14 35 0 14 -1 14 -6 1 -3 -8 -9 -17 -13 -20 -12 -9 -40 -90 -31 -90 5 0 11
6 14 13 2 6 8 -1 12 -18 16 -70 48 -183 60 -215 8 -19 17 -55 21 -80 3 -25 13
-61 21 -80 8 -19 15 -57 15 -83 1 -27 5 -42 8 -35 9 16 18 365 26 1008 4 261
9 478 13 481 3 4 44 16 90 29 111 29 223 25 296 -10 93 -46 189 -156 220 -255
12 -37 13 -32 14 81 1 66 4 176 8 243 l6 122 101 -3 c94 -3 101 -5 112 -26z
m457 -43 c51 -17 96 -35 102 -40 6 -6 8 -54 6 -114 -2 -64 1 -105 7 -105 5 0
7 20 4 46 -3 30 -1 45 5 41 14 -9 17 -157 3 -157 -6 0 -8 5 -4 12 4 7 3 8 -5
4 -6 -4 -33 6 -59 22 -57 37 -135 72 -157 72 -30 0 -74 -33 -74 -54 1 -12 -2
-153 -6 -315 -7 -266 -1 -510 12 -497 3 2 5 71 5 153 l1 148 8 -174 c4 -100
12 -178 19 -185 8 -8 44 24 131 111 107 109 122 121 139 111 17 -11 19 -24 17
-149 -2 -159 -13 -167 -16 -11 -3 141 -11 145 -11 5 l0 -110 -117 -117 c-135
-133 -143 -139 -199 -156 -85 -25 -160 29 -189 136 -11 42 -6 941 6 1054 13
125 23 159 62 216 63 92 149 107 310 53z m363 -215 c53 -37 278 -265 342 -349
30 -38 61 -86 69 -107 9 -21 20 -35 26 -31 5 3 7 1 4 -5 -8 -11 23 -72 36 -72
5 0 5 -4 2 -10 -3 -5 -1 -18 5 -27 11 -17 11 -17 6 0 -4 11 -2 16 5 12 6 -4 8
-13 5 -21 -3 -7 4 -39 15 -71 44 -130 35 -219 -31 -275 -34 -29 -60 -39 -192
-71 -285 -68 -390 -88 -421 -81 -57 12 -58 25 -54 537 3 499 4 511 58 568 34
37 73 38 125 3z m-2257 -368 c6 -7 9 -29 7 -47 -2 -19 -7 -256 -11 -528 -4
-272 -11 -540 -14 -595 -6 -99 -6 -101 -31 -102 -14 -1 -32 -4 -40 -7 -14 -5
-42 -12 -102 -24 l-28 -5 0 130 0 130 -64 -3 c-36 -1 -79 -10 -97 -19 -18 -9
-40 -16 -50 -16 -28 0 -49 -11 -43 -22 4 -6 -1 -8 -13 -4 -15 5 -21 -1 -30
-34 -8 -30 -7 -40 1 -37 11 4 12 8 15 49 1 15 4 19 11 12 6 -6 6 -22 0 -44 -6
-19 -10 -48 -10 -65 0 -20 -3 -25 -9 -17 -4 7 -7 -14 -5 -49 2 -71 -2 -89 -22
-89 -8 0 -14 -4 -14 -10 0 -5 -13 -7 -29 -4 -17 4 -41 0 -59 -10 -17 -9 -45
-16 -62 -16 -29 0 -31 2 -26 28 3 15 13 68 21 117 33 195 111 422 220 650 56
115 66 131 201 335 105 158 229 310 253 310 10 0 24 -6 30 -14z"/>
<path d="M9557 7642 c9 -35 10 -206 3 -455 -4 -161 -8 -200 -20 -207 -24 -15
-2 -12 29 4 25 13 49 37 103 104 54 66 88 180 90 297 1 117 -15 182 -60 233
-34 39 -41 43 -95 47 l-57 4 7 -27z"/>
<path d="M9030 7161 c0 -126 -3 -171 -12 -174 -7 -3 -3 -6 8 -6 34 -1 67 85
72 185 3 68 0 88 -17 123 -12 22 -28 41 -36 41 -13 0 -15 -26 -15 -169z"/>
<path d="M11054 7399 c-4 -6 0 -15 7 -20 11 -6 14 -54 16 -230 2 -138 6 -225
13 -229 5 -3 49 4 97 16 115 29 122 38 88 128 -68 181 -196 375 -221 335z"/>
<path d="M8550 6875 c-1 -5 -1 -18 0 -29 1 -13 -2 -16 -12 -10 -7 4 -10 4 -6
-1 8 -8 -5 -32 -71 -135 -19 -30 -36 -57 -36 -60 -1 -3 -9 -29 -18 -59 -9 -30
-15 -56 -14 -58 2 -1 39 8 83 21 l79 23 6 133 c4 74 3 145 -1 159 -5 14 -9 22
-10 16z"/>
<path d="M9882 3518 c2 -50 6 -62 18 -59 8 2 26 4 40 5 14 1 31 5 38 10 8 5
18 4 25 -3 16 -16 27 -14 27 7 1 16 1 16 14 0 32 -43 80 1 69 65 -5 32 -9 37
-34 37 -31 0 -39 -9 -50 -54 l-7 -31 -1 30 c-3 66 -45 74 -57 10 -8 -42 -17
-39 -18 7 -1 30 -4 33 -34 36 l-33 3 3 -63z"/>
<path d="M10075 3397 c4 -12 7 -39 7 -59 -1 -27 3 -38 13 -38 11 0 15 12 15
45 0 32 4 45 14 45 11 0 14 -11 13 -42 -2 -40 0 -43 26 -46 19 -2 27 1 27 12
0 9 -7 16 -15 16 -20 0 -19 16 1 24 23 9 27 8 21 -8 -3 -8 1 -22 8 -33 14 -17
14 -17 15 1 0 20 0 20 14 0 12 -15 17 -16 27 -7 10 10 9 16 -1 28 -11 14 -11
18 -1 25 9 5 11 17 7 34 -5 21 -12 26 -36 26 -25 0 -30 -4 -30 -25 0 -18 -5
-25 -20 -25 -23 0 -27 15 -5 24 33 12 11 24 -46 25 -59 0 -61 -1 -54 -22z"/>
<path d="M5096 9628 c-3 -7 -9 -28 -15 -47 -20 -62 -15 -79 26 -90 37 -11 39
-10 83 38 l45 49 110 1 c89 0 113 -3 128 -17 14 -13 39 -17 96 -18 42 -1 97
-7 122 -13 51 -14 60 -10 163 69 53 41 92 39 183 -7 60 -29 78 -34 96 -26 16
8 36 5 77 -9 30 -11 72 -24 92 -30 38 -10 71 -51 84 -103 4 -18 13 -25 31 -25
51 0 110 -51 120 -104 3 -17 11 -42 18 -56 7 -14 17 -38 21 -55 8 -25 15 -30
47 -33 35 -3 37 -2 37 27 0 18 -9 39 -23 53 -30 30 -57 73 -57 93 0 10 -9 15
-26 15 -19 0 -25 4 -20 15 3 8 8 38 12 67 7 53 45 118 68 118 7 0 22 9 34 20
12 11 25 20 29 20 5 0 35 13 68 30 l60 29 -853 1 c-674 0 -853 -3 -856 -12z"/>
<path d="M8026 9486 c-20 -9 -41 -11 -67 -5 -27 6 -66 3 -136 -11 -54 -11
-109 -20 -123 -21 -27 -1 -86 -61 -76 -78 3 -5 22 -12 41 -15 29 -6 33 -9 22
-20 -7 -8 -28 -17 -45 -21 -18 -3 -32 -11 -32 -16 0 -5 -11 -9 -25 -9 -41 0
-48 -35 -23 -126 17 -63 19 -83 10 -108 -7 -19 -8 -32 -2 -36 5 -3 7 -18 5
-33 -3 -15 -1 -27 5 -27 5 0 10 6 10 14 0 19 37 31 54 16 8 -6 12 -20 9 -31
-5 -17 -13 -20 -47 -17 -41 3 -41 3 -44 -35 -4 -50 18 -69 62 -54 17 5 38 18
47 27 15 15 37 20 134 32 11 2 22 5 25 8 23 26 74 51 93 46 22 -5 67 26 67 48
0 15 52 66 67 66 7 0 13 5 13 10 0 6 17 27 39 49 37 37 40 38 85 31 35 -5 56
-2 87 12 45 20 79 23 79 8 0 -5 8 -10 18 -10 11 0 27 -9 37 -20 20 -22 64 -27
83 -8 16 16 15 28 -1 28 -21 0 -52 43 -57 80 -3 24 -12 38 -27 45 -13 5 -23
13 -23 17 0 5 -7 8 -16 8 -11 0 -15 6 -11 20 6 24 -11 46 -41 53 -13 3 -22 3
-19 0 3 -3 2 -16 -4 -29 -7 -21 -5 -26 14 -33 12 -5 25 -7 30 -4 4 2 7 -13 7
-34 0 -42 -26 -68 -51 -52 -8 5 -25 9 -39 9 -15 0 -32 6 -39 13 -9 9 -49 11
-145 9 -107 -2 -135 0 -145 12 -18 22 -10 56 20 78 20 15 30 17 53 8 15 -5 59
-10 97 -10 75 0 119 18 119 49 0 19 -47 50 -94 62 -17 4 -40 10 -51 13 -11 3
-33 -1 -49 -8z"/>
<path d="M7 9413 c-13 -13 -8 -554 5 -591 11 -28 11 -36 0 -39 -9 -4 -12 -46
-12 -169 l0 -164 41 -25 c46 -29 74 -26 83 9 3 13 17 34 31 47 13 13 25 34 25
45 0 12 9 50 20 84 24 76 19 117 -20 157 -16 17 -30 45 -34 69 -6 36 -4 45 15
63 25 23 45 26 83 11 27 -10 56 -4 56 12 0 15 -23 35 -50 43 -37 11 -48 23
-55 57 -4 17 -16 49 -26 72 -18 41 -25 116 -12 130 24 23 -1 116 -31 116 -7 0
-34 18 -59 40 -48 43 -50 44 -60 33z"/>
<path d="M1811 7377 c-25 -25 -8 -81 24 -82 6 0 10 -5 10 -11 0 -16 31 -44 49
-44 9 0 16 -8 16 -17 1 -17 1 -17 11 0 8 13 18 17 35 13 13 -4 24 -3 24 1 0 5
23 18 50 31 93 43 58 59 -137 62 -7 0 -13 6 -13 14 0 29 -49 53 -69 33z"/>
<path d="M2070 7110 c0 -5 -10 -10 -22 -11 -13 0 -18 -3 -12 -5 13 -6 7 -44
-7 -44 -5 0 -9 7 -9 16 0 8 -4 13 -10 9 -5 -3 -9 -18 -8 -33 1 -15 -1 -34 -4
-42 -2 -8 -3 -12 -1 -7 8 14 25 7 19 -8 -4 -10 1 -15 15 -15 12 0 19 -5 16
-12 -2 -7 -15 -13 -29 -12 -20 1 -24 -3 -21 -17 3 -10 12 -24 20 -31 12 -10
17 -9 27 3 6 9 23 19 39 23 31 7 34 22 10 49 -17 18 -17 20 10 39 27 20 35 38
17 38 -5 0 -10 -7 -10 -15 0 -8 -4 -15 -10 -15 -12 0 -13 20 -1 39 8 12 12 12
25 2 13 -11 16 -11 16 0 0 8 -9 20 -20 27 -17 10 -21 10 -26 -3 -4 -8 -10 -15
-15 -15 -6 0 -5 8 1 19 13 25 13 31 0 31 -5 0 -10 -4 -10 -10z"/>
<path d="M2137 7028 c-3 -12 -2 -29 4 -39 15 -28 11 -64 -11 -89 -16 -18 -20
-20 -20 -7 0 23 -9 21 -34 -6 -17 -19 -19 -26 -9 -35 7 -7 19 -12 28 -12 8 0
15 -4 15 -10 0 -5 10 -10 23 -9 12 0 16 3 10 6 -7 2 -13 14 -13 25 0 14 5 18
15 14 8 -3 21 4 29 16 8 11 19 17 25 13 6 -3 11 1 11 9 0 9 8 16 17 16 13 0
14 -3 5 -12 -16 -16 -15 -28 2 -28 10 0 13 -10 11 -37 -5 -49 3 -73 21 -73 12
0 12 4 4 21 -11 20 -11 20 14 4 23 -16 24 -15 19 4 -4 16 -1 21 16 21 11 0 20
-3 18 -7 -1 -5 1 -9 6 -10 8 -3 9 1 1 22 -4 8 -14 15 -24 15 -22 0 -35 16 -20
25 5 3 10 13 10 21 0 8 -4 12 -10 9 -5 -3 -10 0 -10 8 0 13 -33 31 -53 28 -4
-1 -10 6 -13 14 -8 20 -24 19 -24 -1 0 -14 -3 -14 -15 -4 -12 10 -15 10 -15 0
0 -8 -3 -10 -7 -6 -5 4 1 14 11 22 18 12 18 17 6 54 -14 44 -34 52 -43 18z"/>
</g>
</svg>
