<?xml version="1.0" encoding="UTF-8"?>
<svg width="40px" height="35px" viewBox="0 0 40 35" version="1.1" xmlns="http://www.w3.org/2000/svg" xmlns:xlink="http://www.w3.org/1999/xlink">
    <title>Group</title>
    <g id="Page-1" stroke="none" stroke-width="1" fill="none" fill-rule="evenodd">
        <g id="Group">
            <g id="Chip">
                <path d="M6.87,29.5 C3.357,29.5 0.5,26.642 0.5,23.129 L0.5,6.871 C0.5,3.358 3.357,0.5 6.87,0.5 L29.13,0.5 C32.643,0.5 35.5,3.358 35.5,6.871 L35.5,23.13 C35.5,26.643 32.643,29.501 29.13,29.501 L6.87,29.501 L6.87,29.5 Z" id="Path" fill="#F5CE85" fill-rule="nonzero"></path>
                <path d="M29.13,1 C32.367,1 35,3.633 35,6.87 L35,23.13 C35,26.367 32.367,29 29.13,29 L6.87,29 C3.633,29 1,26.367 1,23.13 L1,6.87 C1,3.633 3.633,1 6.87,1 L29.13,1 M29.13,0 L6.87,0 C3.076,0 0,3.076 0,6.87 L0,23.13 C0,26.924 3.076,30 6.87,30 L29.13,30 C32.924,30 36,26.924 36,23.13 L36,6.87 C36,3.076 32.924,0 29.13,0 L29.13,0 Z" id="Shape" fill="#967A44" fill-rule="nonzero"></path>
                <path d="M35.5,18.5 L27,18.5 C23.962,18.5 21.5,20.962 21.5,24 L21.5,24 C21.5,27.038 23.962,29.5 27,29.5 L27,29.5 M0.5,18.5 L9,18.5 C12.038,18.5 14.5,20.962 14.5,24 L14.5,24 C14.5,27.038 12.038,29.5 9,29.5 L9,29.5 M35.5,11.5 L25,11.5 C23.067,11.5 21.5,9.933 21.5,8 L21.5,8 C21.5,6.067 23.067,4.5 25,4.5 L27.061,4.5 M26.5,18.462 L26.5,11 M0.5,11.5 L11,11.5 C12.933,11.5 14.5,9.933 14.5,8 L14.5,8 C14.5,6.067 12.933,4.5 11,4.5 L8.939,4.5 M9.5,18.462 L9.5,11" id="Shape" stroke="#967A44"></path>
            </g>
            <g id="icons8-ok" transform="translate(24.000000, 19.000000)" fill-rule="nonzero">
                <path d="M16,8 C16,12.418 12.418,16 8,16 C3.582,16 0,12.418 0,8 C0,3.582 3.582,0 8,0 C12.418,0 16,3.582 16,8 Z" id="Path" fill="#4CAF50"></path>
                <polygon id="Path" fill="#CCFF90" points="11.8724442 4 6.38710328 9.66571176 4.12795903 7.33309027 3 8.49856763 6.38710328 12 13 5.16547737"></polygon>
            </g>
        </g>
    </g>
</svg>