<?xml version="1.0" encoding="UTF-8"?>
<svg width="22px" height="23px" viewBox="0 0 22 23" version="1.1" xmlns="http://www.w3.org/2000/svg" xmlns:xlink="http://www.w3.org/1999/xlink">
    <!-- Generator: Sketch 63.1 (92452) - https://sketch.com -->
    <title>icons8-squared_menu</title>
    <desc>Created with Sketch.</desc>
    <g id="Page-1" stroke="none" stroke-width="1" fill="none" fill-rule="evenodd" opacity="0.361700149">
        <g id="Desktop-HD-Copy" transform="translate(-134.000000, -472.000000)" fill="#000000" fill-rule="nonzero">
            <g id="Group-2" transform="translate(94.000000, 444.000000)">
                <g id="icons8-squared_menu" transform="translate(40.000000, 28.000000)">
                    <path d="M2.61904762,0 C1.17258756,0 0,1.22588699 0,2.73809524 C0,4.25030348 1.17258756,5.47619048 2.61904762,5.47619048 C3.31366224,5.47619048 3.97982725,5.18771341 4.47099395,4.67422095 C4.96216066,4.16072848 5.23809524,3.46428325 5.23809524,2.73809524 C5.23809524,2.01190723 4.96216066,1.31546199 4.47099395,0.801969528 C3.97982725,0.288477063 3.31366224,0 2.61904762,0 Z M11,0 C9.55353994,0 8.38095238,1.22588699 8.38095238,2.73809524 C8.38095238,4.25030348 9.55353994,5.47619048 11,5.47619048 C11.6946146,5.47619048 12.3607796,5.18771341 12.8519463,4.67422095 C13.343113,4.16072848 13.6190476,3.46428325 13.6190476,2.73809524 C13.6190476,2.01190723 13.343113,1.31546199 12.8519463,0.801969528 C12.3607796,0.288477063 11.6946146,0 11,0 Z M19.3809524,0 C17.9344923,0 16.7619048,1.22588699 16.7619048,2.73809524 C16.7619048,4.25030348 17.9344923,5.47619048 19.3809524,5.47619048 C20.075567,5.47619048 20.741732,5.18771341 21.2328987,4.67422095 C21.7240654,4.16072848 22,3.46428325 22,2.73809524 C22,2.01190723 21.7240654,1.31546199 21.2328987,0.801969528 C20.741732,0.288477063 20.075567,0 19.3809524,0 L19.3809524,0 Z M2.61904762,8.76190476 C1.17258756,8.76190476 0,9.98779176 0,11.5 C0,13.0122082 1.17258756,14.2380952 2.61904762,14.2380952 C4.06550768,14.2380952 5.23809524,13.0122082 5.23809524,11.5 C5.23809524,10.773812 4.96216066,10.0773668 4.47099395,9.56387429 C3.97982725,9.05038182 3.31366224,8.76190476 2.61904762,8.76190476 Z M11,8.76190476 C9.55353994,8.76190476 8.38095238,9.98779176 8.38095238,11.5 C8.38095238,13.0122082 9.55353994,14.2380952 11,14.2380952 C12.4464601,14.2380952 13.6190476,13.0122082 13.6190476,11.5 C13.6190476,9.98779176 12.4464601,8.76190476 11,8.76190476 Z M19.3809524,8.76190476 C17.9344923,8.76190476 16.7619048,9.98779176 16.7619048,11.5 C16.7619048,13.0122082 17.9344923,14.2380952 19.3809524,14.2380952 C20.8274124,14.2380952 22,13.0122082 22,11.5 C22,10.773812 21.7240654,10.0773668 21.2328987,9.56387429 C20.741732,9.05038182 20.075567,8.76190476 19.3809524,8.76190476 L19.3809524,8.76190476 Z M2.61904762,17.5238095 C1.17258756,17.5238095 0,18.7496965 0,20.2619048 C0,21.774113 1.17258756,23 2.61904762,23 C3.31366224,23 3.97982725,22.7115229 4.47099395,22.1980305 C4.96216066,21.684538 5.23809524,20.9880928 5.23809524,20.2619048 C5.23809524,19.5357168 4.96216066,18.8392715 4.47099395,18.3257791 C3.97982725,17.8122866 3.31366224,17.5238095 2.61904762,17.5238095 L2.61904762,17.5238095 Z M11,17.5238095 C9.55353994,17.5238095 8.38095238,18.7496965 8.38095238,20.2619048 C8.38095238,21.774113 9.55353994,23 11,23 C11.6946146,23 12.3607796,22.7115229 12.8519463,22.1980305 C13.343113,21.684538 13.6190476,20.9880928 13.6190476,20.2619048 C13.6190476,18.7496965 12.4464601,17.5238095 11,17.5238095 L11,17.5238095 Z M19.3809524,17.5238095 C17.9344923,17.5238095 16.7619048,18.7496965 16.7619048,20.2619048 C16.7619048,21.774113 17.9344923,23 19.3809524,23 C20.075567,23 20.741732,22.7115229 21.2328987,22.1980305 C21.7240654,21.684538 22,20.9880928 22,20.2619048 C22,19.5357168 21.7240654,18.8392715 21.2328987,18.3257791 C20.741732,17.8122866 20.075567,17.5238095 19.3809524,17.5238095 L19.3809524,17.5238095 Z" id="Shape"></path>
                </g>
            </g>
        </g>
    </g>
</svg>