<?xml version="1.0" encoding="utf-8"?>
<svg xmlns="http://www.w3.org/2000/svg" viewBox="0 0 128 128" fill="#000000"><path d="M 64 6 C 32 6 6 32 6 64 C 6 96 32 122 64 122 C 96 122 122 96 122 64 C 122 32 96 6 64 6 z M 64 12 C 92.7 12 116 35.3 116 64 C 116 92.7 92.7 116 64 116 C 35.3 116 12 92.7 12 64 C 12 35.3 35.3 12 64 12 z M 85.037109 48.949219 C 84.274609 48.974219 83.500391 49.300391 82.900391 49.900391 L 62 71.599609 L 51.099609 59.900391 C 49.999609 58.700391 48.100391 58.599219 46.900391 59.699219 C 45.700391 60.799219 45.599219 62.700391 46.699219 63.900391 L 59.800781 78 C 60.400781 78.6 61.1 79 62 79 C 62.8 79 63.599219 78.699609 64.199219 78.099609 L 87.199219 54 C 88.299219 52.8 88.299609 50.900781 87.099609 49.800781 C 86.549609 49.200781 85.799609 48.924219 85.037109 48.949219 z" fill="#000000"/></svg>
