<svg xmlns="http://www.w3.org/2000/svg" viewBox="0 0 40 40"><path fill="#f5ce85" d="M8.87,34.5c-3.513,0-6.37-2.858-6.37-6.371V11.871C2.5,8.358,5.357,5.5,8.87,5.5h22.26 c3.513,0,6.37,2.858,6.37,6.371v16.259c0,3.513-2.857,6.371-6.37,6.371H8.87z"/><path fill="#967a44" d="M31.13,6C34.367,6,37,8.633,37,11.87V28.13c0,3.237-2.633,5.87-5.87,5.87H8.87 C5.633,34,3,31.367,3,28.13V11.87C3,8.633,5.633,6,8.87,6H31.13 M31.13,5H8.87C5.076,5,2,8.076,2,11.87V28.13 C2,31.924,5.076,35,8.87,35H31.13c3.794,0,6.87-3.076,6.87-6.87V11.87C38,8.076,34.924,5,31.13,5L31.13,5z"/><path fill="none" stroke="#967a44" stroke-miterlimit="10" d="M37.5 23.5H29c-3.038 0-5.5 2.462-5.5 5.5v0c0 3.038 2.462 5.5 5.5 5.5h0M2.5 23.5H11c3.038 0 5.5 2.462 5.5 5.5v0c0 3.038-2.462 5.5-5.5 5.5h0M37.5 16.5H27c-1.933 0-3.5-1.567-3.5-3.5v0c0-1.933 1.567-3.5 3.5-3.5h2.061M28.5 23.462L28.5 16M2.5 16.5H13c1.933 0 3.5-1.567 3.5-3.5v0c0-1.933-1.567-3.5-3.5-3.5h-2.061M11.5 23.462L11.5 16"/></svg>