<svg width="76" height="76" viewBox="0 0 76 76" fill="none" xmlns="http://www.w3.org/2000/svg">
<path d="M10.64 13.6801C6.46004 13.6801 3.04004 17.1001 3.04004 21.2801V54.7201C3.04004 58.9001 6.46004 62.3201 10.64 62.3201H65.36C69.54 62.3201 72.96 58.9001 72.96 54.7201V21.2801C72.96 17.1001 69.54 13.6801 65.36 13.6801H10.64ZM10.64 16.7201H65.36C67.8953 16.7201 69.92 18.7447 69.92 21.2801V24.3201H6.08004V21.2801C6.08004 18.7447 8.10473 16.7201 10.64 16.7201ZM6.08004 31.9201H69.92V54.7201C69.92 57.2554 67.8953 59.2801 65.36 59.2801H10.64C8.10473 59.2801 6.08004 57.2554 6.08004 54.7201V31.9201ZM13.68 36.4801V39.5201H38V36.4801H13.68Z" fill="#FFFEFE"/>
</svg>
