<?xml version="1.0" encoding="UTF-8"?>
<svg xmlns="http://www.w3.org/2000/svg" xmlns:xlink="http://www.w3.org/1999/xlink" width="64pt" height="64pt" viewBox="0 0 64 64" version="1.1">
<g id="surface1">
<path style=" stroke:none;fill-rule:nonzero;fill:#FFFFFF;fill-opacity:1;" d="M 0 12 L 0 16 L 38 16 L 38 46 L 25.6875 46 C 24.796875 42.5625 21.703125 40 18 40 C 14.296875 40 11.203125 42.5625 10.3125 46 L 8 46 L 8 36 L 4 36 L 4 50 L 10.3125 50 C 11.203125 53.4375 14.296875 56 18 56 C 21.703125 56 24.796875 53.4375 25.6875 50 L 42.3125 50 C 43.203125 53.4375 46.296875 56 50 56 C 53.703125 56 56.796875 53.4375 57.6875 50 L 64 50 L 64 33.6875 L 63.875 33.375 L 59.875 21.375 L 59.4375 20 L 42 20 L 42 12 Z M 2 20 L 2 24 L 20 24 L 20 20 Z M 42 24 L 56.5625 24 L 60 34.25 L 60 46 L 57.6875 46 C 56.796875 42.5625 53.703125 40 50 40 C 46.296875 40 43.203125 42.5625 42.3125 46 L 42 46 Z M 4 28 L 4 32 L 16 32 L 16 28 Z M 18 44 C 20.234375 44 22 45.765625 22 48 C 22 50.234375 20.234375 52 18 52 C 15.765625 52 14 50.234375 14 48 C 14 45.765625 15.765625 44 18 44 Z M 50 44 C 52.234375 44 54 45.765625 54 48 C 54 50.234375 52.234375 52 50 52 C 47.765625 52 46 50.234375 46 48 C 46 45.765625 47.765625 44 50 44 Z "/>
</g>
</svg>
