<?xml version="1.0" encoding="UTF-8"?>
<svg width="469px" height="411px" viewBox="0 0 469 411" version="1.1" xmlns="http://www.w3.org/2000/svg" xmlns:xlink="http://www.w3.org/1999/xlink">
    <!-- Generator: Sketch 63.1 (92452) - https://sketch.com -->
    <title>3544857</title>
    <desc>Created with Sketch.</desc>
    <defs>
        <polygon id="path-1" points="0.60218359 0.927 122.452167 0.927 122.452167 118.648117 0.60218359 118.648117"></polygon>
        <polygon id="path-3" points="0.525 0.934 434.411 0.934 434.411 162.306 0.525 162.306"></polygon>
    </defs>
    <g id="Page-1" stroke="none" stroke-width="1" fill="none" fill-rule="evenodd">
        <g id="3544857">
            <g id="Group-3" transform="translate(317.000000, 0.000000)">
                <mask id="mask-2" fill="white">
                    <use xlink:href="#path-1"></use>
                </mask>
                <g id="Clip-2"></g>
                <path d="M117.129,98.642 L27.531,118.486 C23.87,119.297 20.245,116.986 19.433,113.324 L0.764,29.03 C-0.046,25.369 2.264,21.744 5.925,20.933 L95.523,1.089 C99.184,0.278 102.81,2.589 103.621,6.25 L122.29,90.544 C123.101,94.205 120.791,97.831 117.129,98.642" id="Fill-1" fill="#E4E4DE" mask="url(#mask-2)"></path>
            </g>
            <path d="M399.00805,70.651 C399.012,70.666 398.778,70.734 398.327,70.85 C397.836,70.97 397.175,71.133 396.345,71.337 C394.574,71.752 392.078,72.337 388.993,73.059 C382.708,74.487 374.034,76.459 364.273,78.677 L364.071,78.723 L363.998,78.529 C363.521,77.261 363.016,75.919 362.505,74.559 C358.175,62.927 354.311,52.546 351.786,45.762 L351.961,45.857 C349.167,46.452 346.936,46.928 345.357,47.264 C344.62,47.413 344.035,47.53 343.595,47.618 C343.195,47.694 342.985,47.727 342.981967,47.713 C342.979,47.699 343.182,47.639 343.577,47.536 C344.012,47.428 344.59,47.285 345.322,47.105 C346.893,46.735 349.113,46.214 351.894,45.561 L352.022,45.53 L352.07,45.655 C354.633,52.425 358.557,62.784 362.954,74.391 C363.464,75.751 363.967,77.094 364.443,78.361 L364.169,78.213 C373.943,76.054 382.629,74.136 388.922,72.746 C392.021,72.083 394.528,71.547 396.307,71.166 C397.145,70.997 397.811,70.862 398.307,70.761 C398.764,70.674 399.005,70.635 399.00805,70.651" id="Fill-4" fill="#FAF9F6"></path>
            <path d="M361.599,71.464 C361.597,71.458 361.655,71.438 361.769,71.406 C361.906,71.369 362.074,71.325 362.278,71.272 C362.761,71.154 363.421,70.993 364.259,70.789 C366.028,70.377 368.545,69.789 371.69,69.055 C378.076,67.603 387.006,65.572 397.344,63.22 L397.165,63.455 C396.958,58.963 396.733,54.106 396.501,49.079 C396.384,46.493 396.269,43.953 396.16,41.53 L396.448,41.751 C384.427,44.411 373.817,46.76 366.172,48.452 C362.387,49.269 359.338,49.927 357.198,50.389 C356.17,50.602 355.361,50.769 354.775,50.89 C354.519,50.938 354.312,50.977 354.145,51.008 C354.003,51.033 353.929,51.042 353.92699,51.035 C353.926,51.027 353.997,51.004 354.135,50.966 C354.299,50.922 354.504,50.87 354.755,50.804 C355.337,50.664 356.14,50.469 357.161,50.223 C359.294,49.728 362.332,49.022 366.104,48.146 C373.74,46.414 384.338,44.011 396.344,41.289 L396.62,41.226 L396.632,41.509 C396.744,43.931 396.86,46.472 396.979,49.058 C397.205,54.085 397.422,58.942 397.624,63.434 L397.632,63.627 L397.444,63.669 C387.091,65.953 378.148,67.926 371.754,69.338 C368.595,70.016 366.068,70.559 364.294,70.94 C363.448,71.113 362.783,71.25 362.296,71.349 C362.087,71.388 361.918,71.419 361.778,71.445 C361.661,71.464 361.601,71.471 361.599,71.464" id="Fill-5" fill="#FAF9F6"></path>
            <path d="M375.033,85.939 C374.991,85.95 374.92,85.639 374.651,85.156 C374.386,84.681 373.863,84.024 372.969,83.635 C372.1,83.238 370.821,83.202 369.756,83.902 C368.692,84.565 367.975,86.016 368.309,87.445 C368.617,88.88 369.884,89.887 371.129,90.032 C372.391,90.211 373.533,89.633 374.149,88.903 C374.792,88.17 374.985,87.352 375.021,86.81 C375.058,86.258 374.99,85.947 375.033,85.939 C375.053,85.932 375.187,86.232 375.208,86.815 C375.227,87.386 375.08,88.284 374.409,89.121 C373.766,89.951 372.507,90.646 371.073,90.47 C369.661,90.334 368.194,89.194 367.841,87.549 C367.459,85.913 368.299,84.257 369.518,83.531 C370.741,82.759 372.175,82.851 373.11,83.328 C374.074,83.798 374.59,84.547 374.817,85.072 C375.047,85.609 375.054,85.936 375.033,85.939" id="Fill-6" fill="#FAF9F6"></path>
            <path d="M397.422,80.922 C397.379,80.934 397.308,80.623 397.04,80.14 C396.775,79.665 396.252,79.008 395.358,78.619 C394.489,78.222 393.21,78.186 392.145,78.886 C391.081,79.548 390.364,81 390.698,82.429 C391.005,83.864 392.273,84.871 393.518,85.016 C394.781,85.195 395.921,84.616 396.538,83.887 C397.18,83.154 397.374,82.336 397.411,81.794 C397.447,81.242 397.379,80.931 397.422,80.922 C397.442,80.916 397.576,81.215 397.596,81.798 C397.616,82.37 397.468,83.268 396.797,84.104 C396.155,84.935 394.897,85.63 393.462,85.454 C392.049,85.318 390.583,84.178 390.231,82.533 C389.848,80.897 390.688,79.24 391.908,78.514 C393.129,77.743 394.564,77.835 395.499,78.312 C396.462,78.782 396.979,79.531 397.206,80.056 C397.436,80.592 397.443,80.92 397.422,80.922" id="Fill-7" fill="#FAF9F6"></path>
            <path d="M403.632,36.202 C404.861,41.685 401.412,47.125 395.929,48.354 C390.447,49.582 385.006,46.133 383.778,40.651 C382.55,35.168 385.999,29.728 391.481,28.5 C396.963,27.271 402.404,30.72 403.632,36.202" id="Fill-8" fill="#FAF9F6"></path>
            <path d="M398.265,33.513 C398.322,33.547 397.962,34.267 397.337,35.402 C396.711,36.539 395.818,38.091 394.806,39.791 C394.426,40.42 394.061,41.026 393.717,41.598 L393.603,41.788 L393.412,41.682 C390.844,40.262 389.022,39.176 389.073,39.081 C389.124,38.987 391.033,39.913 393.629,41.279 L393.325,41.364 C393.663,40.789 394.022,40.179 394.394,39.546 C395.407,37.846 396.345,36.321 397.046,35.23 C397.747,34.138 398.208,33.479 398.265,33.513" id="Fill-9" fill="#D4D5CF"></path>
            <path d="M56.358,150.829 C54.513,144.295 46.022,144.929 46.022,144.929 L46.255,149.473 C51.164,148.627 54.215,154.379 54.215,154.379 L56.358,150.829" id="Fill-10" fill="#D4D5CF"></path>
            <path d="M181.048,75.396 C190.899,78.38 197.027,67.02 197.027,67.02 L191.034,63.605 C188.105,70.564 178.267,69.759 178.267,69.759 L181.048,75.396" id="Fill-11" fill="#D4D5CF"></path>
            <path d="M262.814,136.378 C260.909,130.945 253.756,131.93 253.756,131.93 L254.194,135.764 C258.303,134.788 261.188,139.495 261.188,139.495 L262.814,136.378" id="Fill-12" fill="#D4D5CF"></path>
            <path d="M149.835,9.135 C147.93,3.703 140.777,4.687 140.777,4.687 L141.214,8.521 C145.324,7.545 148.209,12.253 148.209,12.253 L149.835,9.135" id="Fill-13" fill="#D4D5CF"></path>
            <path d="M64.494,78.644 C62.589,73.212 55.436,74.196 55.436,74.196 L55.873,78.029 C59.982,77.054 62.868,81.761 62.868,81.761 L64.494,78.644" id="Fill-14" fill="#E4E4DE"></path>
            <path d="M46.563,27.861 C40.882,28.793 40.608,36.008 40.608,36.008 L44.459,36.244 C44.213,32.028 49.35,30.005 49.35,30.005 L46.563,27.861" id="Fill-15" fill="#E4E4DE"></path>
            <path d="M5.665,196.846 C15.515,199.83 21.643,188.469 21.643,188.469 L15.651,185.054 C12.721,192.014 2.883,191.209 2.883,191.209 L5.665,196.846" id="Fill-16" fill="#E4E4DE"></path>
            <path d="M286.273,76.024 C286.939,71.463 281.5,69.504 281.5,69.504 L280.386,72.385 C283.664,73.22 283.962,77.631 283.962,77.631 L286.273,76.024" id="Fill-17" fill="#D4D5CF"></path>
            <path d="M253.526,25.927 C249.685,28.476 251.859,33.834 251.859,33.834 L254.748,32.739 C253.181,29.741 256.266,26.575 256.266,26.575 L253.526,25.927" id="Fill-18" fill="#E4E4DE"></path>
            <polyline id="Fill-19" fill="#F1F0EC" points="420.157 128.017 406.859 167.183 446.186 174.998 448.449 133.639 420.157 128.017"></polyline>
            <path d="M444.095,138.842 C444.141,138.861 444.021,139.279 443.653,139.965 C443.284,140.646 442.667,141.604 441.673,142.597 C440.686,143.583 439.29,144.599 437.505,145.194 C435.73,145.803 433.602,145.918 431.501,145.499 C429.397,145.102 427.452,144.252 426.015,143.032 C424.558,141.828 423.692,140.307 423.2,139.003 C422.708,137.684 422.562,136.55 422.524,135.777 C422.49,134.999 422.565,134.57 422.615,134.572905 C422.741,134.558 422.647,136.317 423.685,138.807 C424.215,140.027 425.072,141.417 426.451,142.507 C427.81,143.613 429.63,144.392 431.637,144.771 C433.641,145.171 435.626,145.079 437.297,144.545 C438.976,144.023 440.322,143.114 441.313,142.217 C443.296,140.384 443.991,138.777 444.095,138.842" id="Fill-20" fill="#FFFFFE"></path>
            <path d="M458.146,410.618 C458.146,410.762 355.579,410.879 229.084,410.879 C102.546,410.879 0,410.762 0,410.618 C0,410.475 102.546,410.358 229.084,410.358 C355.579,410.358 458.146,410.475 458.146,410.618" id="Fill-21" fill="#132529"></path>
            <polygon id="Fill-22" fill="#FAF9F6" points="16.83 293.184 260.684 293.184 260.684 102.288 16.83 102.288"></polygon>
            <path d="M260.684,293.184 C260.682,291.392 260.598,217.449 260.468,102.288 L260.684,102.504 C191.194,102.516 107.242,102.531 16.851,102.548 L16.83,102.548 L17.091,102.288 C17.081,171.126 17.072,236.222 17.064,293.184 L16.83,292.95 C161.593,293.089 258.633,293.182 260.684,293.184 C258.634,293.186 161.593,293.279 16.83,293.418 L16.597,293.418 L16.596,293.184 C16.589,236.222 16.58,171.126 16.57,102.288 L16.57,102.028 L16.851,102.028 C107.242,102.044 191.194,102.06 260.684,102.072 L260.9,102.072 L260.9,102.288 C260.77,217.449 260.686,291.393 260.684,293.184" id="Fill-23" fill="#132529"></path>
            <polyline id="Fill-24" fill="#132529" points="62.978 196.277 62.978 199.452 60.904 199.452 60.904 196.252 57.435 190.491 59.637 190.491 62.03 194.472 64.424 190.491 66.46 190.491 62.978 196.277"></polyline>
            <path d="M71.449,196.008 C71.449,194.818 70.694,194.101 69.695,194.101 C68.697,194.101 67.929,194.818 67.929,196.008 C67.929,197.199 68.697,197.916 69.695,197.916 C70.694,197.916 71.449,197.199 71.449,196.008 Z M65.906,196.008 C65.906,193.935 67.506,192.463 69.695,192.463 C71.884,192.463 73.472,193.935 73.472,196.008 C73.472,198.083 71.884,199.555 69.695,199.555 C67.506,199.555 65.906,198.083 65.906,196.008 L65.906,196.008 Z" id="Fill-25" fill="#132529"></path>
            <path d="M81.738,192.565 L81.738,199.452 L79.844,199.452 L79.844,198.633 C79.319,199.235 78.551,199.555 77.706,199.555 C75.978,199.555 74.761,198.582 74.761,196.457 L74.761,192.565 L76.758,192.565 L76.758,196.162 C76.758,197.314 77.271,197.826 78.154,197.826 C79.076,197.826 79.741,197.237 79.741,195.97 L79.741,192.565 L81.738,192.565" id="Fill-26" fill="#132529"></path>
            <path d="M87.867,192.463 L87.867,194.306 C87.7,194.293 87.572,194.28 87.419,194.28 C86.318,194.28 85.588,194.882 85.588,196.2 L85.588,199.452 L83.591,199.452 L83.591,192.565 L85.498,192.565 L85.498,193.474 C85.985,192.808 86.804,192.463 87.867,192.463" id="Fill-27" fill="#132529"></path>
            <path d="M100.012,194.971 C100.012,193.269 98.809,192.104 97.208,192.104 C95.608,192.104 94.404,193.269 94.404,194.971 C94.404,196.674 95.608,197.839 97.208,197.839 C98.809,197.839 100.012,196.674 100.012,194.971 Z M92.305,194.971 C92.305,192.309 94.379,190.337 97.208,190.337 C100.025,190.337 102.111,192.296 102.111,194.971 C102.111,197.647 100.025,199.606 97.208,199.606 C94.379,199.606 92.305,197.634 92.305,194.971 L92.305,194.971 Z" id="Fill-28" fill="#132529"></path>
            <path d="M107.803,192.463 L107.803,194.306 C107.637,194.293 107.509,194.28 107.355,194.28 C106.254,194.28 105.525,194.882 105.525,196.2 L105.525,199.452 L103.527,199.452 L103.527,192.565 L105.435,192.565 L105.435,193.474 C105.921,192.808 106.741,192.463 107.803,192.463" id="Fill-29" fill="#132529"></path>
            <path d="M113.984,196.008 C113.984,194.818 113.216,194.101 112.231,194.101 C111.232,194.101 110.464,194.818 110.464,196.008 C110.464,197.199 111.232,197.916 112.231,197.916 C113.216,197.916 113.984,197.199 113.984,196.008 Z M115.943,189.953 L115.943,199.452 L114.036,199.452 L114.036,198.658 C113.537,199.26 112.807,199.555 111.885,199.555 C109.939,199.555 108.441,198.172 108.441,196.008 C108.441,193.845 109.939,192.463 111.885,192.463 C112.73,192.463 113.447,192.731 113.946,193.295 L113.946,189.953 L115.943,189.953 L115.943,189.953 Z" id="Fill-30" fill="#132529"></path>
            <path d="M119.255,195.407 L122.648,195.407 C122.506,194.536 121.854,193.973 120.958,193.973 C120.048,193.973 119.396,194.524 119.255,195.407 Z M124.491,196.572 L119.28,196.572 C119.473,197.429 120.202,197.954 121.252,197.954 C121.982,197.954 122.506,197.737 122.981,197.289 L124.043,198.441 C123.403,199.171 122.442,199.555 121.201,199.555 C118.819,199.555 117.271,198.057 117.271,196.008 C117.271,193.947 118.845,192.463 120.945,192.463 C122.967,192.463 124.529,193.819 124.529,196.034 C124.529,196.188 124.504,196.405 124.491,196.572 L124.491,196.572 Z" id="Fill-31" fill="#132529"></path>
            <path d="M130.133,192.463 L130.133,194.306 C129.966,194.293 129.838,194.28 129.685,194.28 C128.584,194.28 127.854,194.882 127.854,196.2 L127.854,199.452 L125.857,199.452 L125.857,192.565 L127.764,192.565 L127.764,193.474 C128.251,192.808 129.07,192.463 130.133,192.463" id="Fill-32" fill="#132529"></path>
            <path d="M134.994,199.452 L136.991,199.452 L136.991,192.565 L134.994,192.565 L134.994,199.452 Z M134.751,190.491 C134.751,189.863 135.25,189.377 135.992,189.377 C136.735,189.377 137.234,189.838 137.234,190.452 C137.234,191.118 136.735,191.605 135.992,191.605 C135.25,191.605 134.751,191.118 134.751,190.491 L134.751,190.491 Z" id="Fill-33" fill="#132529"></path>
            <path d="M138.179,198.812 L138.845,197.379 C139.46,197.775 140.394,198.044 141.239,198.044 C142.161,198.044 142.506,197.801 142.506,197.417 C142.506,196.29 138.346,197.443 138.346,194.69 C138.346,193.384 139.524,192.463 141.534,192.463 C142.481,192.463 143.531,192.68 144.184,193.064 L143.518,194.485 C142.839,194.101 142.161,193.973 141.534,193.973 C140.637,193.973 140.254,194.255 140.254,194.613 C140.254,195.791 144.414,194.652 144.414,197.365 C144.414,198.646 143.224,199.555 141.162,199.555 C139.997,199.555 138.819,199.235 138.179,198.812" id="Fill-34" fill="#132529"></path>
            <path d="M148.839,194.971 C148.839,192.27 150.913,190.337 153.704,190.337 C155.253,190.337 156.546,190.901 157.391,191.924 L156.059,193.153 C155.458,192.463 154.702,192.104 153.806,192.104 C152.129,192.104 150.938,193.282 150.938,194.971 C150.938,196.661 152.129,197.839 153.806,197.839 C154.702,197.839 155.458,197.481 156.059,196.777 L157.391,198.006 C156.546,199.043 155.253,199.606 153.691,199.606 C150.913,199.606 148.839,197.673 148.839,194.971" id="Fill-35" fill="#132529"></path>
            <path d="M163.429,196.008 C163.429,194.818 162.673,194.101 161.675,194.101 C160.676,194.101 159.908,194.818 159.908,196.008 C159.908,197.199 160.676,197.916 161.675,197.916 C162.673,197.916 163.429,197.199 163.429,196.008 Z M157.885,196.008 C157.885,193.935 159.485,192.463 161.675,192.463 C163.864,192.463 165.451,193.935 165.451,196.008 C165.451,198.083 163.864,199.555 161.675,199.555 C159.485,199.555 157.885,198.083 157.885,196.008 L157.885,196.008 Z" id="Fill-36" fill="#132529"></path>
            <path d="M173.82,195.509 L173.82,199.452 L171.823,199.452 L171.823,195.817 C171.823,194.703 171.311,194.191 170.428,194.191 C169.468,194.191 168.776,194.779 168.776,196.047 L168.776,199.452 L166.779,199.452 L166.779,192.565 L168.687,192.565 L168.687,193.371 C169.225,192.782 170.031,192.463 170.965,192.463 C172.591,192.463 173.82,193.41 173.82,195.509" id="Fill-37" fill="#132529"></path>
            <path d="M181.6,199.452 L183.597,199.452 L183.597,192.565 L181.6,192.565 L181.6,199.452 Z M181.357,190.491 C181.357,189.863 181.856,189.377 182.599,189.377 C183.341,189.377 183.84,189.838 183.84,190.452 C183.84,191.118 183.341,191.605 182.599,191.605 C181.856,191.605 181.357,191.118 181.357,190.491 Z M177.811,192.424 L177.811,192.718 L179.577,192.718 L179.577,194.255 L177.862,194.255 L177.862,199.452 L175.865,199.452 L175.865,194.255 L174.802,194.255 L174.802,192.718 L175.865,192.718 L175.865,192.411 C175.865,190.862 176.812,189.851 178.527,189.851 C179.091,189.851 179.68,189.966 180.051,190.222 L179.526,191.669 C179.309,191.515 179.027,191.425 178.72,191.425 C178.131,191.425 177.811,191.745 177.811,192.424 L177.811,192.424 Z" id="Fill-38" fill="#132529"></path>
            <path d="M189.725,192.463 L189.725,194.306 C189.558,194.293 189.43,194.28 189.276,194.28 C188.175,194.28 187.446,194.882 187.446,196.2 L187.446,199.452 L185.449,199.452 L185.449,192.565 L187.356,192.565 L187.356,193.474 C187.843,192.808 188.662,192.463 189.725,192.463" id="Fill-39" fill="#132529"></path>
            <path d="M202.55,195.509 L202.55,199.452 L200.553,199.452 L200.553,195.817 C200.553,194.703 200.054,194.191 199.247,194.191 C198.351,194.191 197.724,194.767 197.724,195.996 L197.724,199.452 L195.727,199.452 L195.727,195.817 C195.727,194.703 195.253,194.191 194.421,194.191 C193.538,194.191 192.91,194.767 192.91,195.996 L192.91,199.452 L190.913,199.452 L190.913,192.565 L192.82,192.565 L192.82,193.359 C193.333,192.77 194.101,192.463 194.984,192.463 C195.944,192.463 196.764,192.834 197.25,193.589 C197.8,192.885 198.697,192.463 199.733,192.463 C201.372,192.463 202.55,193.41 202.55,195.509" id="Fill-40" fill="#132529"></path>
            <path d="M205.885,195.407 L209.278,195.407 C209.137,194.536 208.484,193.973 207.588,193.973 C206.679,193.973 206.026,194.524 205.885,195.407 Z M211.121,196.572 L205.911,196.572 C206.103,197.429 206.833,197.954 207.882,197.954 C208.612,197.954 209.137,197.737 209.611,197.289 L210.673,198.441 C210.033,199.171 209.073,199.555 207.831,199.555 C205.45,199.555 203.901,198.057 203.901,196.008 C203.901,193.947 205.476,192.463 207.575,192.463 C209.598,192.463 211.16,193.819 211.16,196.034 C211.16,196.188 211.134,196.405 211.121,196.572 L211.121,196.572 Z" id="Fill-41" fill="#132529"></path>
            <path d="M217.544,196.008 C217.544,194.818 216.776,194.101 215.79,194.101 C214.792,194.101 214.024,194.818 214.024,196.008 C214.024,197.199 214.792,197.916 215.79,197.916 C216.776,197.916 217.544,197.199 217.544,196.008 Z M219.503,189.953 L219.503,199.452 L217.595,199.452 L217.595,198.658 C217.096,199.26 216.366,199.555 215.444,199.555 C213.499,199.555 212.001,198.172 212.001,196.008 C212.001,193.845 213.499,192.463 215.444,192.463 C216.29,192.463 217.006,192.731 217.505,193.295 L217.505,189.953 L219.503,189.953 L219.503,189.953 Z" id="Fill-42" fill="#132529"></path>
            <path d="M221.086,190.491 L223.467,190.491 L223.07,196.341 L221.483,196.341 L221.086,190.491 Z M221.048,198.39 C221.048,197.737 221.56,197.25 222.277,197.25 C222.994,197.25 223.506,197.737 223.506,198.39 C223.506,199.03 222.994,199.555 222.277,199.555 C221.56,199.555 221.048,199.03 221.048,198.39 L221.048,198.39 Z" id="Fill-43" fill="#132529"></path>
            <polyline id="Fill-44" fill="#132529" points="77.167 211.295 74.242 211.295 74.242 210.534 80.97 210.534 80.97 211.295 78.046 211.295 78.046 218.855 77.167 218.855 77.167 211.295"></polyline>
            <path d="M87.945,215.23 L87.945,218.855 L87.101,218.855 L87.101,215.313 C87.101,213.993 86.412,213.316 85.223,213.316 C83.88,213.316 83.036,214.148 83.036,215.574 L83.036,218.855 L82.192,218.855 L82.192,210.035 L83.036,210.035 L83.036,213.696 C83.5,212.971 84.32,212.555 85.378,212.555 C86.899,212.555 87.945,213.435 87.945,215.23" id="Fill-45" fill="#132529"></path>
            <path d="M94.111,216.977 L94.111,215.954 L92.15,215.954 C90.938,215.954 90.546,216.43 90.546,217.071 C90.546,217.797 91.128,218.248 92.127,218.248 C93.077,218.248 93.778,217.797 94.111,216.977 Z M94.956,214.98 L94.956,218.855 L94.147,218.855 L94.147,217.88 C93.767,218.522 93.03,218.914 91.996,218.914 C90.581,218.914 89.714,218.177 89.714,217.096 C89.714,216.133 90.332,215.324 92.127,215.324 L94.111,215.324 L94.111,214.944 C94.111,213.874 93.505,213.292 92.34,213.292 C91.532,213.292 90.771,213.577 90.26,214.028 L89.88,213.399 C90.51,212.864 91.437,212.555 92.423,212.555 C94.04,212.555 94.956,213.363 94.956,214.98 L94.956,214.98 Z" id="Fill-46" fill="#132529"></path>
            <path d="M103,215.23 L103,218.855 L102.156,218.855 L102.156,215.313 C102.156,213.993 101.466,213.316 100.278,213.316 C98.935,213.316 98.09,214.148 98.09,215.574 L98.09,218.855 L97.247,218.855 L97.247,212.603 L98.055,212.603 L98.055,213.756 C98.506,212.995 99.351,212.555 100.432,212.555 C101.954,212.555 103,213.435 103,215.23" id="Fill-47" fill="#132529"></path>
            <polyline id="Fill-48" fill="#132529" points="107.609 215.717 106.135 217.071 106.135 218.855 105.291 218.855 105.291 210.035 106.135 210.035 106.135 216.014 109.867 212.603 110.914 212.603 108.239 215.158 111.163 218.855 110.129 218.855 107.609 215.717"></polyline>
            <path d="M111.375,218.142 L111.755,217.476 C112.254,217.868 113.098,218.177 113.978,218.177 C115.167,218.177 115.654,217.774 115.654,217.155 C115.654,215.527 111.6,216.811 111.6,214.338 C111.6,213.316 112.48,212.555 114.073,212.555 C114.881,212.555 115.761,212.78 116.284,213.138 L115.915,213.815 C115.368,213.435 114.715,213.28 114.073,213.28 C112.943,213.28 112.444,213.72 112.444,214.315 C112.444,216.002 116.498,214.731 116.498,217.131 C116.498,218.213 115.547,218.914 113.919,218.914 C112.884,218.914 111.886,218.581 111.375,218.142" id="Fill-49" fill="#132529"></path>
            <polyline id="Fill-50" fill="#132529" points="122.224 211.295 122.224 214.564 126.526 214.564 126.526 215.324 122.224 215.324 122.224 218.855 121.344 218.855 121.344 210.534 127.049 210.534 127.049 211.295 122.224 211.295"></polyline>
            <path d="M133.347,215.729 C133.347,214.267 132.36,213.292 131.029,213.292 C129.698,213.292 128.7,214.267 128.7,215.729 C128.7,217.191 129.698,218.165 131.029,218.165 C132.36,218.165 133.347,217.191 133.347,215.729 Z M127.844,215.729 C127.844,213.874 129.199,212.555 131.029,212.555 C132.86,212.555 134.203,213.874 134.203,215.729 C134.203,217.583 132.86,218.914 131.029,218.914 C129.199,218.914 127.844,217.583 127.844,215.729 L127.844,215.729 Z" id="Fill-51" fill="#132529"></path>
            <path d="M139.074,212.555 L139.074,213.375 L138.872,213.363 C137.564,213.363 136.768,214.195 136.768,215.669 L136.768,218.855 L135.924,218.855 L135.924,212.603 L136.732,212.603 L136.732,213.827 C137.125,212.995 137.921,212.555 139.074,212.555" id="Fill-52" fill="#132529"></path>
            <polyline id="Fill-53" fill="#132529" points="146.833 215.979 146.833 218.855 145.965 218.855 145.965 215.979 142.636 210.534 143.576 210.534 146.428 215.205 149.281 210.534 150.161 210.534 146.833 215.979"></polyline>
            <path d="M155.507,215.729 C155.507,214.267 154.521,213.292 153.19,213.292 C151.858,213.292 150.86,214.267 150.86,215.729 C150.86,217.191 151.858,218.165 153.19,218.165 C154.521,218.165 155.507,217.191 155.507,215.729 Z M150.004,215.729 C150.004,213.874 151.359,212.555 153.19,212.555 C155.02,212.555 156.363,213.874 156.363,215.729 C156.363,217.583 155.02,218.914 153.19,218.914 C151.359,218.914 150.004,217.583 150.004,215.729 L150.004,215.729 Z" id="Fill-54" fill="#132529"></path>
            <path d="M163.718,212.603 L163.718,218.855 L162.91,218.855 L162.91,217.714 C162.47,218.475 161.662,218.914 160.664,218.914 C159.071,218.914 158.025,218.023 158.025,216.228 L158.025,212.603 L158.869,212.603 L158.869,216.145 C158.869,217.476 159.558,218.153 160.747,218.153 C162.054,218.153 162.875,217.31 162.875,215.883 L162.875,212.603 L163.718,212.603" id="Fill-55" fill="#132529"></path>
            <path d="M169.231,212.555 L169.231,213.375 L169.028,213.363 C167.721,213.363 166.924,214.195 166.924,215.669 L166.924,218.855 L166.081,218.855 L166.081,212.603 L166.889,212.603 L166.889,213.827 C167.281,212.995 168.078,212.555 169.231,212.555" id="Fill-56" fill="#132529"></path>
            <path d="M181.257,214.694 C181.257,212.709 179.771,211.247 177.774,211.247 C175.765,211.247 174.268,212.709 174.268,214.694 C174.268,216.68 175.765,218.142 177.774,218.142 C179.771,218.142 181.257,216.68 181.257,214.694 Z M173.4,214.694 C173.4,212.27 175.254,210.463 177.774,210.463 C180.271,210.463 182.137,212.258 182.137,214.694 C182.137,217.131 180.271,218.926 177.774,218.926 C175.254,218.926 173.4,217.119 173.4,214.694 L173.4,214.694 Z" id="Fill-57" fill="#132529"></path>
            <path d="M187.078,212.555 L187.078,213.375 L186.876,213.363 C185.568,213.363 184.772,214.195 184.772,215.669 L184.772,218.855 L183.928,218.855 L183.928,212.603 L184.736,212.603 L184.736,213.827 C185.129,212.995 185.925,212.555 187.078,212.555" id="Fill-58" fill="#132529"></path>
            <path d="M193.412,215.729 C193.412,214.267 192.413,213.292 191.094,213.292 C189.762,213.292 188.764,214.267 188.764,215.729 C188.764,217.191 189.762,218.165 191.094,218.165 C192.413,218.165 193.412,217.191 193.412,215.729 Z M194.244,210.035 L194.244,218.855 L193.436,218.855 L193.436,217.618 C192.924,218.463 192.057,218.914 191.023,218.914 C189.239,218.914 187.908,217.618 187.908,215.729 C187.908,213.839 189.239,212.555 191.023,212.555 C192.021,212.555 192.877,212.983 193.4,213.791 L193.4,210.035 L194.244,210.035 L194.244,210.035 Z" id="Fill-59" fill="#132529"></path>
            <path d="M196.808,215.361 L201.242,215.361 C201.135,214.136 200.244,213.28 199.019,213.28 C197.807,213.28 196.915,214.136 196.808,215.361 Z M202.038,215.99 L196.808,215.99 C196.903,217.298 197.902,218.165 199.269,218.165 C200.029,218.165 200.707,217.892 201.183,217.345 L201.658,217.892 C201.099,218.558 200.232,218.914 199.245,218.914 C197.296,218.914 195.964,217.583 195.964,215.729 C195.964,213.874 197.26,212.555 199.019,212.555 C200.778,212.555 202.05,213.851 202.05,215.729 C202.05,215.8 202.038,215.895 202.038,215.99 L202.038,215.99 Z" id="Fill-60" fill="#132529"></path>
            <path d="M206.921,212.555 L206.921,213.375 L206.719,213.363 C205.411,213.363 204.615,214.195 204.615,215.669 L204.615,218.855 L203.771,218.855 L203.771,212.603 L204.579,212.603 L204.579,213.827 C204.972,212.995 205.768,212.555 206.921,212.555" id="Fill-61" fill="#132529"></path>
            <path d="M175.004,267.198 L102.51,267.198 C94.203,267.198 87.469,260.464 87.469,252.157 C87.469,243.851 94.203,237.116 102.51,237.116 L175.004,237.116 C183.312,237.116 190.046,243.851 190.046,252.157 C190.046,260.464 183.312,267.198 175.004,267.198" id="Fill-62" fill="#E0565F"></path>
            <path d="M128.866,253.687 C130.175,253.687 131.023,252.889 131.023,251.672 C131.023,250.455 130.175,249.658 128.866,249.658 L127.44,249.658 L127.44,253.687 L128.866,253.687 Z M126.349,248.735 L128.917,248.735 C130.822,248.735 132.123,249.91 132.123,251.672 C132.123,253.435 130.822,254.61 128.917,254.61 L126.349,254.61 L126.349,248.735 L126.349,248.735 Z" id="Fill-63" fill="#FFFFFE"></path>
            <path d="M138.083,251.672 C138.083,250.472 137.202,249.608 136.019,249.608 C134.836,249.608 133.954,250.472 133.954,251.672 C133.954,252.872 134.836,253.736 136.019,253.736 C137.202,253.736 138.083,252.872 138.083,251.672 Z M132.855,251.672 C132.855,249.935 134.197,248.651 136.019,248.651 C137.84,248.651 139.183,249.927 139.183,251.672 C139.183,253.418 137.84,254.694 136.019,254.694 C134.197,254.694 132.855,253.409 132.855,251.672 L132.855,251.672 Z" id="Fill-64" fill="#FFFFFE"></path>
            <polyline id="Fill-65" fill="#FFFFFE" points="145.554 248.735 145.554 254.61 144.656 254.61 141.417 250.632 141.417 254.61 140.334 254.61 140.334 248.735 141.232 248.735 144.471 252.713 144.471 248.735 145.554 248.735"></polyline>
            <polyline id="Fill-66" fill="#FFFFFE" points="151.532 253.694 151.532 254.61 147.126 254.61 147.126 248.735 151.414 248.735 151.414 249.65 148.217 249.65 148.217 251.177 151.053 251.177 151.053 252.075 148.217 252.075 148.217 253.694 151.532 253.694"></polyline>
            <path d="M140.777,138.673 C131.192,138.673 123.395,146.471 123.395,156.055 C123.395,165.64 131.192,173.437 140.777,173.437 C150.361,173.437 158.159,165.64 158.159,156.055 C158.159,146.471 150.361,138.673 140.777,138.673 Z M140.777,175.437 C130.089,175.437 121.395,166.742 121.395,156.055 C121.395,145.368 130.089,136.673 140.777,136.673 C151.464,136.673 160.159,145.368 160.159,156.055 C160.159,166.742 151.464,175.437 140.777,175.437 L140.777,175.437 Z" id="Fill-67" fill="#E0565F"></path>
            <path d="M139.371,162.028 C139.135,162.028 138.9,161.945 138.711,161.779 C137.015,160.287 134.116,157.701 133.744,157.143 C133.438,156.683 133.562,156.062 134.021,155.756 C134.475,155.452 135.086,155.571 135.397,156.017 C135.667,156.356 137.504,158.038 139.347,159.672 L149.161,150.357 C149.561,149.977 150.194,149.992 150.575,150.394 C150.955,150.794 150.939,151.427 150.538,151.807 L140.06,161.753 C139.867,161.936 139.619,162.028 139.371,162.028" id="Fill-68" fill="#E0565F"></path>
            <path d="M260.684,120.937 C260.684,121.08 206.228,121.197 139.069,121.197 C71.886,121.197 17.442,121.08 17.442,120.937 C17.442,120.793 71.886,120.676 139.069,120.676 C206.228,120.676 260.684,120.793 260.684,120.937" id="Fill-69" fill="#132529"></path>
            <path d="M26.876,111.349 C26.876,112.131 26.242,112.765 25.46,112.765 C24.678,112.765 24.045,112.131 24.045,111.349 C24.045,110.568 24.678,109.934 25.46,109.934 C26.242,109.934 26.876,110.568 26.876,111.349" id="Fill-70" fill="#132529"></path>
            <path d="M32.156,111.349 C32.156,112.131 31.522,112.765 30.741,112.765 C29.959,112.765 29.325,112.131 29.325,111.349 C29.325,110.568 29.959,109.934 30.741,109.934 C31.522,109.934 32.156,110.568 32.156,111.349" id="Fill-71" fill="#132529"></path>
            <g id="Group-75" transform="translate(34.000000, 109.000000)">
                <mask id="mask-4" fill="white">
                    <use xlink:href="#path-3"></use>
                </mask>
                <g id="Clip-73"></g>
                <path d="M3.356,2.349 C3.356,3.131 2.722,3.765 1.94,3.765 C1.158,3.765 0.525,3.131 0.525,2.349 C0.525,1.568 1.158,0.934 1.94,0.934 C2.722,0.934 3.356,1.568 3.356,2.349" id="Fill-72" fill="#132529" mask="url(#mask-4)"></path>
                <path d="M386.99,121.537 C386.99,121.537 399.127,114.153 401.862,116.322 C405.809,119.454 407.125,124.74 407.125,124.74 C407.125,124.74 413.535,100.291 419.652,101.219 C423.161,101.75 421.439,104.485 419.867,107.917 C418.407,111.104 415.916,122.801 415.916,122.801 C415.916,122.801 427.514,109.04 430.922,109.288 C433.56,109.481 433.939,111.8 430.146,115.52 C426.354,119.239 420.052,130.957 420.052,130.957 C420.052,130.957 428.177,123.383 431.534,123.342 C434.211,123.309 435.94,125.167 432.475,128.176 C429.01,131.184 423.768,133.441 420.971,138.881 C417.524,145.588 410.174,162.306 410.174,162.306 L384.449,153.198 C384.449,153.198 380.262,136.133 380.095,131.986 C380.095,131.986 380.448,123.226 380.398,121.665 C380.348,120.105 384.486,119.705 385.742,122.7 C386.998,125.695 386.427,128.837 386.937,130.829 C387.447,132.821 388.353,134.667 389.809,135.558 C391.266,136.448 394.972,136.51 395.919,135.408 C396.866,134.307 398.013,131.102 398.263,129.131 C398.513,127.159 398.191,124.045 398.191,124.045 C398.191,124.045 387.511,128.385 386.99,121.537" id="Fill-74" fill="#F1AD92" mask="url(#mask-4)"></path>
            </g>
            <path d="M131.948,310.162 L114.072,303.466 C114.072,303.466 95.874,292.811 92.504,296.595 C92.504,296.595 88.904,294.88 87.305,298.719 C86.378,300.943 89.436,304.172 89.436,304.172 C89.436,304.172 88.484,305.137 89.991,308.403 C91.499,311.669 108.774,321.97 108.774,321.97 C108.774,321.97 131.233,334.218 140.315,340.076 L155.985,318.765 L153.806,317.95 C153.806,317.95 152.513,307.329 148.165,304.497 C143.435,301.415 137.727,293.077 136.471,289.812 C135.214,286.545 129.185,288.053 130.19,294.836 C131.195,301.619 136.471,303.378 135.968,307.901 C135.466,312.423 131.948,310.162 131.948,310.162" id="Fill-76" fill="#F1AD92"></path>
            <path d="M104.546,312.641 C104.475,312.766 100.993,310.948 96.769,308.58 C92.543,306.212 89.175,304.191 89.246,304.066 C89.316,303.94 92.798,305.758 97.023,308.126 C101.248,310.493 104.616,312.515 104.546,312.641" id="Fill-77" fill="#EA8E6C"></path>
            <path d="M113.269,307.615 C113.238,307.679 112.017,307.185 110.061,306.338 C108.107,305.487 105.425,304.267 102.525,302.785 C99.627,301.301 97.071,299.819 95.284,298.649 C94.394,298.058 93.682,297.569 93.211,297.2 C92.736,296.838 92.483,296.624 92.504,296.595 C92.551,296.528 93.652,297.25 95.479,298.335 C97.306,299.42 99.875,300.843 102.763,302.321 C105.651,303.798 108.302,305.069 110.216,306.003 C112.13,306.936 113.3,307.549 113.269,307.615" id="Fill-78" fill="#EA8E6C"></path>
            <path d="M117.03,317.462 C117.01,317.494 116.447,317.186 115.446,316.603 C114.374,315.962 112.953,315.113 111.233,314.087 L111.186,314.059 L111.16,314.002 C110.37,312.296 109.389,310.288 108.125,308.192 C107.485,307.16 106.783,306.047 105.851,305.187 C104.922,304.324 103.442,304.174 102.329,304.922 C102.09,305.057 101.802,305.342 101.768,305.435 L101.809,305.554 L101.881,305.777 C101.926,305.923 101.983,306.073 102.038,306.222 C102.254,306.819 102.49,307.406 102.72,307.984 C103.192,309.134 103.649,310.25 104.088,311.322 C104.977,313.442 105.793,315.388 106.506,317.088 L106.473,317.036 C107.942,318.757 109.157,320.181 110.067,321.248 C110.448,321.713 110.765,322.099 111.027,322.419 C111.242,322.691 111.348,322.841 111.333,322.854 C111.318,322.867 111.183,322.743 110.941,322.495 C110.656,322.194 110.313,321.832 109.9,321.396 C108.957,320.358 107.697,318.973 106.175,317.299 L106.156,317.277 L106.142,317.246 C105.398,315.579 104.548,313.642 103.639,311.512 C103.191,310.44 102.725,309.325 102.245,308.175 C102.011,307.596 101.774,307.009 101.55,306.4 C101.494,306.248 101.437,306.097 101.387,305.936 L101.309,305.696 C101.281,305.61 101.262,305.455 101.257,305.339 C101.35,305.023 101.493,304.958 101.621,304.807 C101.757,304.687 101.899,304.578 102.048,304.484 C102.691,304.075 103.451,303.864 104.204,303.93 C104.961,303.979 105.648,304.341 106.183,304.798 C107.216,305.766 107.889,306.882 108.538,307.943 C109.8,310.083 110.75,312.11 111.507,313.851 L111.433,313.766 C113.116,314.851 114.507,315.747 115.556,316.424 C116.524,317.063 117.05,317.431 117.03,317.462" id="Fill-79" fill="#EA8E6C"></path>
            <path d="M134.952,317.634 C134.928,317.706 134.094,317.473 132.756,317.096 C131.42,316.733 129.56,316.214 127.471,316.163 C125.387,316.115 123.532,316.701 122.377,317.41 C121.203,318.111 120.685,318.827 120.613,318.765 C120.569,318.745 120.992,317.925 122.177,317.101 C123.342,316.271 125.295,315.591 127.482,315.642 C129.664,315.697 131.549,316.289 132.866,316.745 C134.186,317.214 134.974,317.57 134.952,317.634" id="Fill-80" fill="#EA8E6C"></path>
            <path d="M133.608,312.912 C133.728,313.002 133.283,313.776 132.851,314.769 C132.412,315.759 132.144,316.61 131.998,316.582 C131.86,316.562 131.908,315.614 132.374,314.559 C132.835,313.502 133.501,312.825 133.608,312.912" id="Fill-81" fill="#EA8E6C"></path>
            <path d="M236.637,227.931 C237.871,219.506 247.68,207.426 256.362,207.413 C251.386,200.2 251.309,190.051 256.176,182.766 C259.526,177.753 264.928,174.068 267.219,168.511 C269.811,162.224 267.822,155.121 268.069,148.344 C268.431,138.424 273.592,129.365 278.619,120.748 C283.22,112.858 288.835,104.209 297.892,102.271 C303.624,101.045 309.567,102.854 314.947,105.145 C340.693,116.111 360.714,139.221 367.586,165.904 C369.23,172.292 370.332,179.202 374.783,184.138 C379.498,189.366 387.754,192.202 389.169,199.041 C390.183,203.944 387.035,208.875 387.507,213.858 C387.903,218.031 395.72,230.197 397.522,233.998 C400.628,240.547 399.505,247.622 396.343,254.145 C393.182,260.667 385.136,267.02 377.997,268.796 L298.194,242.204 C290.686,246.478 283.208,263.013 274.588,264.028 C265.969,265.044 255.453,268.796 247.16,259.721 C238.467,250.209 235.403,236.356 236.637,227.931" id="Fill-82" fill="#132529"></path>
            <path d="M368.961,148.557 C368.068,155.235 369.898,166.276 373.548,171.982 C375.998,175.811 380.086,178.302 384.119,180.493 C388.152,182.683 392.376,184.785 395.433,188.168 C398.491,191.551 400.13,196.624 398.087,200.676 C405.276,203.356 408.501,212.514 405.863,219.597 C403.225,226.68 395.993,231.444 388.439,232.861 L355.524,222.959 L348.297,180.957 L367.296,148.557" id="Fill-83" fill="#132529"></path>
            <path d="M372.999828,191.378 C373.006,191.363 373.227,191.459 373.643,191.658 C374.049,191.874 374.696,192.118 375.441,192.591 C376.967,193.473 379.076,195.002 381.211,197.401 C382.297,198.583 383.304,200.041 384.285,201.671 C385.187,203.34 386.1,205.184 386.68,207.27 C387.962,211.381 388.243,216.376 386.769,221.287 L386.649,220.986 C388.544,222.041 390.374,223.419 392.005,225.055 C396.207,229.223 398.607,234.641 399.182,239.709 C399.743,244.818 398.527,249.445 396.827,252.88 C395.115,256.346 392.992,258.703 391.422,260.152 C390.62,260.867 389.974,261.396 389.505,261.712 C389.046,262.04 388.8,262.204 388.79,262.19 C388.779,262.175 389.005,261.982 389.442,261.629 C389.888,261.287 390.508,260.736 391.282,260.005 C392.797,258.523 394.85,256.156 396.495,252.72 C398.129,249.315 399.28,244.76 398.706,239.765 C398.117,234.806 395.753,229.505 391.636,225.423 C390.039,223.82 388.25,222.471 386.399,221.435 L386.218,221.334 L386.279,221.133 C387.725,216.342 387.477,211.449 386.246,207.399 C385.69,205.344 384.806,203.523 383.934,201.869 C382.985,200.256 382.01,198.804 380.954,197.624 C378.882,195.227 376.831,193.672 375.345,192.749 C374.621,192.255 373.993,191.986 373.601,191.743 C373.2,191.518 372.993,191.392 372.999828,191.378" id="Fill-84" fill="#334F55"></path>
            <path d="M275.631,234.874 C275.631,234.874 260.925,239.347 255.769,246.846 C252.123,252.151 214.782,333.015 214.782,333.015 L158.099,315.972 L137.834,342.739 L200.9,377.696 C212.593,384.178 226.814,384.115 238.45,377.531 C244.902,373.881 250.16,368.442 253.59,361.869 L269.626,331.146 L275.631,234.874" id="Fill-85" fill="#E0565F"></path>
            <path d="M260.583,411 L269.433,372.852 L262.727,345.152 C258.413,330.888 254.711,307.654 259.404,288.941 L275.08,235.128 L292.315,227.202 L331.756,220.418 C333.274,220.923 373,232.143 373,232.143 C378.5,233.421 380.707,234.297 380.707,234.297 L385.261,263.755 L371.565,312.308 L365.601,360.685 L378.704,411 L260.583,411" id="Fill-86" fill="#E0565F"></path>
            <path d="M283.377,231.313 L294.814,226.194 L346.364,226.912 L358.555,233.988 C358.555,233.988 315.968,280.993 305.28,282.547 C278.397,286.456 283.377,231.313 283.377,231.313" id="Fill-87" fill="#F1AD92"></path>
            <path d="M379.587,233.89 C379.587,233.89 387.308,235.627 393.927,249.747 C400.547,263.867 411.246,303.166 411.246,303.166 L415.821,261.521 L453.091,265.62 L445.878,365.151 C445.878,365.151 432.689,384.279 410.626,382.514 C388.563,380.748 360.554,311.009 360.554,311.009 L379.587,233.89" id="Fill-88" fill="#E0565F"></path>
            <path d="M405.43,354.020009 C405.422,354.019 405.42,353.938 405.422,353.779 C405.431,353.588 405.44,353.357 405.453,353.072 C405.492,352.41 405.547,351.506 405.616,350.364 C405.757,348.012 406.038,344.613 406.427,340.419 C407.204,332.028 408.627,320.471 410.368,307.737 C412.109,294.999 413.589,283.46 414.458,275.083 C414.894,270.896 415.23,267.505 415.434,265.159 C415.544,264.020991 415.63,263.119 415.695,262.459 C415.727,262.177 415.754,261.946 415.776,261.758 C415.797,261.601 415.812,261.52 415.821,261.520991 C415.83,261.520991 415.833,261.603 415.829,261.762 C415.821,261.951 415.811,262.184 415.799,262.467 C415.759,263.129 415.705,264.033 415.636,265.175 C415.494,267.527 415.214,270.925 414.824,275.12 C414.047,283.512 412.625,295.069 410.883,307.807 C409.142,320.54 407.664,332.079 406.794,340.455 C406.358,344.643 406.021,348.034 405.818,350.381 C405.708,351.519 405.621,352.42 405.557,353.08 C405.524,353.362 405.498,353.593 405.476,353.782 C405.455,353.94 405.44,354.020991 405.43,354.020009" id="Fill-89" fill="#132529"></path>
            <path d="M215.427,354.492 C215.394,354.506 215.249,354.241 215.014,353.747 C214.775,353.256 214.475,352.524 214.149,351.602 C213.492,349.762 212.809,347.124 212.516,344.146 C212.231,341.165 212.396,338.446 212.687,336.514 C212.831,335.547 212.983,334.771 213.125,334.242 C213.26,333.713 213.352,333.425 213.387,333.432838 C213.47,333.45 213.245,334.633 213.053,336.559 C212.858,338.483 212.754,341.16 213.034,344.096 C213.323,347.029 213.939,349.638 214.499,351.488 C215.057,353.341 215.505,354.459 215.427,354.492" id="Fill-90" fill="#132529"></path>
            <path d="M221.696,355.415 C221.667,355.437 221.435,355.172 221.039,354.672 C220.637,354.177 220.102,353.424 219.483,352.465 C218.244,350.551 216.752,347.746 215.6,344.45 C214.457,341.151 213.885,338.025 213.669,335.755 C213.559,334.619 213.511,333.697 213.518,333.06 C213.519,332.422 213.536,332.07 213.572,332.068995 C213.659,332.066 213.724,333.471 214.034,335.711 C214.342,337.95 214.963,341.021 216.092,344.279 C217.229,347.533 218.649,350.326 219.797,352.273 C220.944,354.222 221.766,355.363 221.696,355.415" id="Fill-91" fill="#132529"></path>
            <path d="M265.819,266.489931 C265.837,266.495 265.771,266.773 265.63,267.297 C265.472,267.865 265.26,268.626 264.995,269.582 C264.42,271.613 263.611,274.468 262.618,277.973 C260.681,285.064 257.985,294.912 256.694,306.063 C256.049,311.631 255.92,316.992 256.475,321.815 C256.987,326.641 258.052,330.904 259.1,334.423 C260.155,337.945 261.153,340.753 261.836,342.695 C262.165,343.63 262.427,344.375 262.623,344.932 C262.798,345.445 262.882,345.717 262.866,345.724102 C262.849,345.73 262.732,345.47 262.524,344.969 C262.306,344.421 262.013,343.687 261.645,342.765 C260.904,340.843 259.851,338.051 258.748,334.529 C257.651,331.013 256.541,326.731 255.998,321.867 C255.412,317.009 255.528,311.597 256.176,306.004 C257.474,294.8 260.235,284.943 262.263,277.872 C263.296,274.335 264.179,271.488 264.8,269.524 C265.106,268.579 265.349,267.828 265.53,267.267 C265.703,266.752 265.801,266.485 265.819,266.489931" id="Fill-92" fill="#132529"></path>
            <path d="M370.041,332.069079 C370.033,332.072 369.987,331.989 369.906,331.824 C369.814,331.631 369.699,331.388 369.556,331.085 C369.244,330.395 368.809,329.438 368.258,328.221 C367.708,326.972 367.003,325.456 366.251,323.668 C365.529,321.86 364.71,319.81 363.805,317.546 C362.925,315.268 362.079,312.728 361.108,310.024 C360.683,308.651 360.244,307.232 359.792,305.77 C359.567,305.037 359.339,304.295 359.109,303.542 C358.894,302.785 358.707,302.009 358.501,301.228 C356.825,294.992 355.396,287.985 354.975,280.52 C354.52,273.066 355.228,265.862 357.131,259.654 C358.913,253.404 362.045,248.277 365.385,244.694 C368.722,241.073 372.2,238.984 374.689,237.871 C375.945,237.325 376.945,236.957 377.642,236.777 C377.965,236.687 378.224,236.613 378.431,236.556 C378.609,236.509 378.702,236.489 378.704074,236.498 C378.707,236.507 378.619,236.544 378.446,236.608 C378.244,236.678 377.99,236.767 377.674,236.877 C376.99,237.089 376.007,237.485 374.774,238.055 C372.33,239.216 368.921,241.33 365.657,244.944 C362.387,248.522 359.331,253.594 357.59,259.791 C355.731,265.95 355.044,273.082 355.496,280.489 C355.913,287.905 357.32,294.885 358.964,301.106 C359.166,301.886 359.365,302.655 359.561,303.415 C359.787,304.167 360.01,304.908 360.231,305.639 C360.673,307.099 361.103,308.518 361.519,309.889 C362.469,312.593 363.294,315.134 364.15,317.417 C365.026,319.687 365.82,321.743 366.52,323.557 C367.245,325.354 367.923,326.88 368.444,328.141 C368.957,329.372 369.361,330.343 369.652,331.042 C369.776,331.354 369.876,331.604 369.955,331.802 C370.02,331.975 370.049,332.065 370.041,332.069079" id="Fill-93" fill="#132529"></path>
            <path d="M366.044,357.089 L366.615,352.462 C366.436,354.115 366.254,355.726 366.044,357.089 M367.525,345.08 L369.313,330.572 C369.319,330.583 369.325,330.596 369.331,330.608 C369.225,331.633 368.252,340.931 367.525,345.079" id="Fill-94" fill="#A2A5A2"></path>
            <path d="M363.164,361.648 C363.131,361.648 363.098,361.647 363.065,361.646 C361.7,361.578 359.775,357.038 359.288,355.761 C350.986,333.974 350.964,310.526 355.687,287.701 C356.359,292.495 357.374,297.036 358.501,301.228 C358.707,302.009 358.894,302.785 359.109,303.542 C359.339,304.295 359.567,305.037 359.792,305.77 C360.183,307.034 360.564,308.267 360.935,309.465 L360.554,311.009 C360.554,311.009 363.952,319.469 369.313,330.572 L367.525,345.08 C367.173,347.082 366.9,349.825 366.615,352.462 L366.044,357.089 C366.003,357.359 365.96,357.62 365.917,357.869 C365.623,359.544 364.828,361.648 363.164,361.648" id="Fill-95" fill="#A93B44"></path>
            <path d="M369.331,330.608 C369.325,330.596 369.319,330.583 369.313,330.572 C363.952,319.469 360.554,311.009 360.554,311.009 L360.935,309.465 C360.993,309.652 361.051,309.838 361.108,310.024 C362.079,312.728 362.925,315.268 363.805,317.546 C364.71,319.81 365.529,321.86 366.251,323.668 C367.003,325.456 367.708,326.972 368.258,328.221 C368.688,329.17 369.047,329.962 369.333,330.591 C369.332,330.597 369.332,330.602 369.331,330.608" id="Fill-96" fill="#A93B44"></path>
            <path d="M369.333,330.591 C369.047,329.962 368.688,329.17 368.258,328.221 C367.708,326.972 367.003,325.456 366.251,323.668 C365.529,321.86 364.71,319.81 363.805,317.546 C362.925,315.268 362.079,312.728 361.108,310.024 C361.051,309.838 360.993,309.652 360.935,309.465 C360.564,308.267 360.183,307.034 359.792,305.77 C359.567,305.037 359.339,304.295 359.109,303.542 C358.894,302.785 358.707,302.009 358.501,301.228 C357.374,297.036 356.359,292.495 355.687,287.701 C355.736,287.463 355.786,287.224 355.837,286.986 L355.937,287.714 C357.473,298.411 360.253,307.17 363.539,316.347 C365.31,321.293 369.34,330.516 369.34,330.516 C369.34,330.516 369.338,330.542 369.333,330.591" id="Fill-97" fill="#051317"></path>
            <path d="M351.857,376.281 C351.873,376.292 351.739,376.498 351.469,376.883 C351.166,377.307 350.768,377.862 350.273,378.552 C350.006,378.917 349.714,379.318 349.397,379.752 C349.061,380.179 348.662,380.613 348.251,381.097 C347.408,382.043 346.512,383.184 345.335,384.268 C344.762,384.827 344.165,385.413 343.543,386.022 C342.914,386.626 342.192,387.179 341.48,387.792 C340.079,389.049 338.417,390.181 336.703,391.417 C333.179,393.75 329.089,395.997 324.55,397.801 C319.987,399.545 315.453,400.658 311.28,401.325 C309.181,401.575 307.191,401.866 305.308,401.89 C304.37,401.919 303.463,402.001 302.592,401.982 C301.721,401.954 300.885,401.928 300.086,401.903 C298.486,401.902 297.054,401.667 295.793,401.541 C295.164,401.464 294.575,401.414 294.04,401.326 C293.511,401.222 293.026,401.124 292.583,401.036 C291.751,400.862 291.083,400.724 290.572,400.617 C290.114,400.516 289.876,400.454 289.878972,400.437 C289.883,400.419 290.129,400.446 290.593,400.515 C291.107,400.596 291.78,400.703 292.617,400.836 C293.061,400.911 293.547,400.992 294.076,401.081 C294.611,401.154 295.198,401.189 295.826,401.251 C297.084,401.35 298.508,401.558 300.099,401.534 C300.894,401.549 301.724,401.564 302.589,401.58 C303.456,401.589 304.354,401.497 305.286,401.458 C307.154,401.417 309.127,401.112 311.208,400.852 C315.343,400.163 319.836,399.045 324.361,397.316 C328.862,395.527 332.924,393.311 336.435,391.02 C338.142,389.803 339.801,388.694 341.205,387.459 C341.917,386.858 342.641,386.317 343.273,385.725 C343.899,385.128 344.501,384.554 345.076,384.005 C346.262,382.946 347.172,381.829 348.031,380.905 C348.45,380.435 348.859,380.011 349.204,379.596 C349.533,379.173 349.836,378.783 350.112,378.429 C350.639,377.764 351.061,377.23 351.384,376.822 C351.68,376.458 351.842,376.272 351.857,376.281" id="Fill-98" fill="#132529"></path>
            <path d="M343.723,361.028825 C343.759,361.035 343.71,361.423 343.59,362.121 C343.48,362.82 343.247,363.82 342.893,365.036 C342.191,367.47 340.859,370.75 338.754,374.011 C336.637,377.267 334.187,379.823 332.254,381.457 C331.288,382.278 330.47,382.9 329.877,383.285 C329.289,383.68 328.955,383.883 328.934,383.854 C328.879,383.778 330.157,382.876 332.008,381.182 C333.861,379.493 336.23,376.937 338.316,373.728 C340.391,370.514 341.757,367.307 342.542,364.926 C343.332,362.544 343.631,361.01 343.723,361.028825" id="Fill-99" fill="#132529"></path>
            <path d="M325.57,95.897 C339.524,95.992 353.173,103.87 360.235,115.905 C367.297,127.941 367.518,143.698 360.796,155.926 C358.504,160.095 355.207,164.042 350.677,165.495 C352.218,141.58 342.686,117.176 325.343,100.638" id="Fill-100" fill="#E0565F"></path>
            <path d="M341.902,99.508 C339.83,95.2 342.047,89.811 345.742,86.777 C349.437,83.743 354.251,82.517 358.9,81.407 C363.549,80.297 368.368,79.144 372.144,76.213 C371.599,83.703 369.738,91.41 364.89,97.145 C360.042,102.881 351.644,106.077 344.722,103.162" id="Fill-101" fill="#E0565F"></path>
            <path d="M346.705,104.444 C343.522,105.782 339.729,104.945 336.88,102.994 C334.032,101.043 331.995,98.12 330.324,95.099 C328.27,91.388 326.658,87.38 326.111,83.174 C325.564,78.968 326.138,74.544 328.22,70.848 C333.695,76.68 339.723,81.581 342.852,88.942 C344.691,93.266 344.467,100.198 342.497,104.463" id="Fill-102" fill="#E0565F"></path>
            <path d="M362.209,128.692962 C362.244,128.688 362.339,129.182 362.481,130.084 C362.557,130.534 362.636,131.087 362.687,131.733 C362.743,132.379 362.833,133.113 362.848,133.93 C362.939,135.561 362.911,137.51 362.748,139.665 C362.555,141.818 362.213,144.174 361.645,146.606 C361.056,149.032 360.301,151.292 359.504,153.3 C358.678,155.298 357.826,157.052 357.01,158.467 C356.629,159.19 356.217,159.805 355.877,160.356 C355.54,160.91 355.22,161.368 354.95,161.736 C354.418,162.477 354.11,162.875 354.081,162.855 C354.051,162.834 354.302,162.396 354.781,161.624 C355.024,161.241 355.317,160.77 355.628,160.205 C355.943,159.642 356.329,159.019 356.687,158.291 C357.455,156.864 358.264,155.111 359.057,153.123 C359.823,151.125 360.556,148.886 361.138,146.485 C361.7,144.08 362.053,141.752 362.269,139.623 C362.457,137.491 362.523,135.561 362.48,133.942 C362.489,133.131 362.424,132.4 362.396,131.756 C362.374,131.111 362.325,130.559 362.28,130.107 C362.2,129.202 362.172,128.698 362.209,128.692962" id="Fill-103" fill="#132529"></path>
            <path d="M359.086,101.874 C359.108,101.901 358.718,102.212 357.978,102.756 C357.182,103.193 355.989,103.834 354.367,104.153 C351.149,104.886 346.503,104.734 341.597,103.425 L341.451,103.386 L341.418,103.237 C341.351,102.938 341.279,102.617 341.208,102.293 C340.681,99.698 340.557,97.139 340.877,94.855 C341.167,92.565 341.96,90.574 342.977,89.15 C343.96,87.683 345.16,86.867 345.944,86.317 C346.799,85.854 347.275,85.617 347.291,85.65 C347.307,85.681 346.864,85.98 346.057,86.485 C345.321,87.078 344.19,87.914 343.282,89.356 C342.338,90.758 341.609,92.687 341.352,94.917 C341.067,97.14 341.202,99.644 341.717,102.189 C341.788,102.506 341.858,102.821 341.922,103.114 L341.744,102.926 C346.555,104.216 351.14,104.429 354.293,103.802 C355.889,103.535 357.067,102.961 357.88,102.585 C358.632,102.104 359.064,101.847 359.086,101.874" id="Fill-104" fill="#132529"></path>
            <path d="M363.182113,88.915 C363.197,89.01 361.719,89.217 359.427,89.896 C358.279,90.228 356.943,90.719 355.499,91.352 C354.064,92.007 352.528,92.817 351.002,93.807 C349.483,94.812 348.128,95.898 346.955,96.951 C345.798,98.024 344.814,99.053 344.051,99.973 C342.514,101.804 341.735,103.076 341.654,103.025 C341.623,103.006 341.796,102.676 342.139,102.094 C342.472,101.507 343.025,100.696 343.766,99.741 C344.502,98.78 345.471,97.708 346.629,96.599 C347.801,95.509 349.172,94.394 350.715,93.371 C352.268,92.364 353.839,91.553 355.306,90.912 C356.784,90.294 358.153,89.832 359.329,89.542 C360.5,89.243 361.464,89.06 362.135,88.989 C362.806,88.907 363.177,88.879 363.182113,88.915" id="Fill-105" fill="#132529"></path>
            <path d="M346.49,104.324 C346.507,104.328 346.494,104.431 346.451,104.624 C346.419,104.822 346.327,105.099 346.184,105.45 C345.894,106.146 345.281,107.101 344.206,107.951 C343.135,108.774 341.556,109.496 339.711,109.403 C337.864,109.34 335.951,108.222 334.762,106.487 C333.573,104.753 333.221,102.565 333.83,100.819 C334.409,99.064 335.652,97.852 336.805,97.15 C337.987,96.455 339.098,96.228 339.852,96.209 C340.231,96.203 340.523,96.217 340.718,96.258 C340.915,96.288 341.015,96.313 341.013,96.33 C341.007,96.385 340.595,96.327 339.868,96.411 C339.144,96.49 338.097,96.764 337.001,97.463 C335.929,98.167 334.795,99.34 334.287,100.964 C333.753,102.571 334.087,104.575 335.191,106.193 C336.301,107.806 338.049,108.841 339.741,108.923 C341.438,109.037 342.941,108.402 343.985,107.656 C345.033,106.886 345.666,106.009 346.001,105.362 C346.342,104.714 346.437,104.309 346.49,104.324" id="Fill-106" fill="#132529"></path>
            <path d="M334.367,104.574 C334.318,104.624 334.019,104.029 334.494,103.25 C334.715,102.883 335.136,102.506 335.68,102.322 C336.22,102.127 336.846,102.091 337.466,102.136 C339.962,102.313 341.777,103.286 341.71,103.401 C341.654,103.546 339.813,102.821 337.431,102.655 C336.253,102.535 335.229,102.846 334.796,103.461 C334.331,104.042 334.448,104.567 334.367,104.574" id="Fill-107" fill="#132529"></path>
            <path d="M328.22,70.848 C328.318,70.893 327.115,72.309 326.694,75.126 C326.463,76.518 326.433,78.207 326.457,80.089 C326.48,81.966 326.564,84.034 326.99,86.143 C327.938,90.343 329.656,93.957 331.26,96.267 C332.072,97.43 332.788,98.334 333.296,98.943 C333.802,99.555 334.119,99.859 334.094,99.889 C334.034,99.964 332.672,98.787 330.962,96.482 C329.243,94.168 327.453,90.548 326.479,86.247 C326.043,84.082 325.974,81.981 325.977,80.091 C325.979,78.204 326.047,76.482 326.331,75.062 C326.596,73.639 327.065,72.544 327.473,71.85 C327.885,71.154 328.2,70.832 328.22,70.848" id="Fill-108" fill="#132529"></path>
            <path d="M333.402,82.712 C333.455,82.672 334.018,83.304 334.808,84.421 C335.596,85.536 336.592,87.152 337.464,89.055 C338.337,90.957 338.905,92.772 339.221,94.102 C339.537,95.433 339.628,96.276 339.564,96.289 C339.402,96.327 338.722,93.018 336.991,89.272 C335.277,85.521 333.261,82.81 333.402,82.712" id="Fill-109" fill="#132529"></path>
            <path d="M331.711,88.942 C331.815,88.853 333.499,90.556 335.706,92.535 C337.905,94.523 339.666,96.174 339.564,96.289 C339.475,96.389 337.566,94.919 335.355,92.92 C333.134,90.929 331.594,89.038 331.711,88.942" id="Fill-110" fill="#132529"></path>
            <path d="M357.881,112.403 C357.885,112.409 357.836,112.457 357.737,112.545 C357.596,112.664 357.451,112.788 357.297,112.919 C356.916,113.246 356.334,113.684 355.59,114.188 C354.106,115.198 351.906,116.398 349.295,117.26 C346.68,118.114 344.197,118.453 342.403,118.518 C341.505,118.553 340.777,118.547 340.277,118.509 C340.074,118.495 339.884,118.481 339.7,118.468 C339.569,118.457 339.5,118.447 339.5,118.44 C339.501,118.433 339.57,118.428 339.702,118.426 C339.886,118.427 340.077,118.427 340.279,118.428 C340.779,118.441 341.504,118.425 342.395,118.371 C344.177,118.268 346.636,117.91 349.23,117.062 C351.82,116.207 354.012,115.038 355.509,114.065 C356.258,113.579 356.851,113.162 357.247,112.856 C357.41,112.735 357.562,112.622 357.711,112.512 C357.818,112.436 357.877,112.398 357.881,112.403" id="Fill-111" fill="#FAF9F6"></path>
            <path d="M363.772,124.506 C363.777,124.511 363.726,124.559 363.627,124.646 C363.484,124.764 363.338,124.886 363.181,125.016 C362.797,125.339 362.212,125.774 361.466,126.278 C359.98,127.288 357.794,128.509 355.207,129.446 C352.617,130.376 350.153,130.831 348.364,131.002 C347.469,131.089 346.741,131.127 346.239,131.124 C346.036,131.124 345.844,131.123 345.66,131.123 C345.528,131.12 345.459,131.115 345.459,131.108 C345.459,131.101 345.528,131.091 345.66,131.081 C345.843,131.069 346.034,131.056 346.236,131.043 C346.736,131.021 347.46,130.96 348.348,130.855 C350.125,130.648 352.564,130.173 355.136,129.25 C357.705,128.32 359.886,127.129 361.386,126.154 C362.137,125.669 362.733,125.254 363.132,124.952 C363.297,124.833 363.451,124.721 363.6,124.613 C363.709,124.537 363.767,124.5 363.772,124.506" id="Fill-112" fill="#FAF9F6"></path>
            <path d="M362.136,142.157 C362.144,142.17 361.993,142.28 361.713,142.47 C361.434,142.662 361.014,142.917 360.482,143.208 C359.421,143.791 357.877,144.471 356.083,144.943 C354.288,145.41 352.608,145.572 351.397,145.584 C350.791,145.591 350.3,145.574 349.964,145.543 C349.626,145.515 349.44,145.492 349.440996,145.478 C349.442,145.464 349.63,145.459 349.966,145.462 C350.303,145.468 350.792,145.462 351.392,145.437 C352.594,145.388 354.254,145.203 356.03,144.741 C357.805,144.274 359.342,143.623 360.414,143.077 C360.951,142.805 361.38,142.571 361.67,142.401 C361.963,142.233 362.129,142.146 362.136,142.157" id="Fill-113" fill="#FAF9F6"></path>
            <path d="M365.529,139.457 C365.54,139.514 364.935,139.677 364.178,139.823 C363.422,139.969 362.799,140.041 362.789,139.985 C362.778,139.928 363.382,139.764 364.139,139.619 C364.896,139.473 365.518,139.401 365.529,139.457" id="Fill-114" fill="#FAF9F6"></path>
            <path d="M355.606036,160.212 C355.613,160.265 354.59,160.423 353.324,160.327 C352.057,160.237 351.069,159.932 351.084,159.881 C351.098,159.821 352.093,160.031 353.339,160.119 C354.585,160.214 355.6,160.151 355.606036,160.212" id="Fill-115" fill="#FAF9F6"></path>
            <path d="M336.629,107.92 C336.656,107.97 336.059,108.353 335.296,108.774 C334.531,109.196 333.889,109.497 333.861,109.446 C333.834,109.396 334.43,109.013 335.195,108.591 C335.959,108.17 336.601,107.869 336.629,107.92" id="Fill-116" fill="#FAF9F6"></path>
            <path d="M331.662,97.423 C331.687,97.487 330.221,97.926 328.714,99.008 C327.196,100.076 326.299,101.316 326.248,101.27 C326.228,101.256 326.424,100.929 326.821,100.458 C327.216,99.987 327.827,99.385 328.593,98.839 C329.362,98.294 330.131,97.916 330.707,97.697 C331.282,97.478 331.655,97.4 331.662,97.423" id="Fill-117" fill="#FAF9F6"></path>
            <path d="M340.671,109.048 C340.602,109.039 340.949,107.687 340.723,106.018 C340.517,104.345 339.837,103.126 339.901,103.099 C339.922,103.088 340.119,103.374 340.347,103.885 C340.577,104.396 340.819,105.14 340.929,105.991 C341.039,106.842 340.994,107.623 340.902,108.175 C340.811,108.728 340.694,109.055 340.671,109.048" id="Fill-118" fill="#FAF9F6"></path>
            <path d="M371.611,76.434 C371.611,76.434 371.26,76.887 370.515,77.602 C369.773,78.318 368.615,79.273 367.056,80.263 C365.498,81.253 363.536,82.256 361.306,83.236 C359.078,84.223 356.584,85.198 354.056,86.411 C351.534,87.628 349.226,89.017 347.423,90.641 C345.62,92.26 344.324,94.063 343.529,95.712 C342.737,97.366 342.425,98.841 342.34,99.86 C342.253,100.883 342.325,101.453 342.292,101.454 C342.292,101.454 342.272,101.313 342.256,101.042 C342.23,100.771 342.235,100.37 342.26,99.854 C342.321,98.824 342.613,97.329 343.396,95.648 C344.182,93.974 345.479,92.142 347.296,90.499 C349.11,88.849 351.432,87.445 353.965,86.223 C356.504,85.005 359.002,84.036 361.228,83.06 C363.459,82.092 365.418,81.107 366.978,80.138 C368.539,79.169 369.705,78.237 370.461,77.542 C370.837,77.193 371.126,76.917 371.312,76.72 C371.503,76.529 371.611,76.434 371.611,76.434" id="Fill-119" fill="#FAF9F6"></path>
            <path d="M368.907,88.303 C368.913,88.307 368.867,88.384 368.774,88.529 C368.646,88.722 368.509,88.928 368.358,89.157 C367.999,89.703 367.436,90.466 366.705,91.379 C365.245,93.206 363.011,95.574 360.189,97.771 C357.359,99.962 354.511,101.539 352.379,102.499 C351.313,102.982 350.435,103.338 349.816,103.55 C349.557,103.64 349.324,103.722 349.105,103.798 C348.942,103.852 348.855,103.877 348.852921,103.87 C348.85,103.863 348.932,103.825 349.091,103.758 C349.305,103.671 349.534,103.578 349.788,103.474 C350.396,103.239 351.263,102.864 352.317,102.366 C354.425,101.375 357.246,99.786 360.061,97.607 C362.87,95.421 365.107,93.083 366.59,91.286 C367.335,90.388 367.913,89.641 368.292,89.11 C368.455,88.89 368.602,88.691 368.739,88.505 C368.843,88.369 368.901,88.298 368.907,88.303" id="Fill-120" fill="#FAF9F6"></path>
            <path d="M327.165907,74.251 C327.165907,74.251 328.399,74.721 330.197,75.856 C331.993,76.982 334.303,78.855 336.327,81.399 C338.341,83.951 339.636,86.629 340.323,88.635 C341.016,90.644 341.193,91.9520095 341.193,91.9520095 C341.186,91.953 341.16,91.875 341.117,91.725 C341.062,91.52 341.004,91.303 340.94,91.067 C340.8,90.494 340.546,89.675 340.184,88.685 C339.466,86.703 338.162,84.06 336.164,81.529 C334.156,79.005 331.881,77.131 330.117,75.979 C329.235,75.4 328.497,74.966 327.969,74.699 C327.754,74.583 327.556,74.477 327.37,74.376 C327.233,74.3 327.163,74.257 327.165907,74.251" id="Fill-121" fill="#FAF9F6"></path>
            <path d="M277.015,111.855 C277.406,117.155 273.906,121.89 270.379,125.866 C266.852,129.842 262.928,133.986 262.166,139.246 C260.815,148.568 269.941,157.222 268.059,166.451 C267.05,171.398 263.001,175.371 262.279,180.367 C261.581,185.199 264.171,189.929 267.38,193.608 C270.59,197.287 274.309,196.749 277.148,200.721 C280.139,204.905 284.955,209.198 289.466,211.669 C299.694,217.27 311.969,209.166 316.903,207.712" id="Fill-122" fill="#132529"></path>
            <path d="M354.363,133.577 C359.078,131.525 359.448,114.63 347.619,112.678 C342.875,111.896 338.922,109.58 334.933,106.895 C331.401,104.518 330.353,98.484 327.363,95.453 C320.028,88.017 308.576,84.935 298.5,87.683 C288.423,90.432 280.124,98.904 277.581,109.034 C275.862,115.88 277.036,123.973 282.431,128.523 C288.695,133.802 297.98,132.63 306.004,130.987 C314.03,129.345 323.113,127.725 329.812,132.438 C333.853,135.279 336.17,139.903 338.639,144.181 C341.109,148.46 344.21,152.828 348.88,154.436 C348.88,154.436 352.437,162.794 349.534,168.612 C346.63,174.429 352.948,164.507 352.948,164.507 C352.948,164.507 364.464,144.029 354.363,133.577" id="Fill-123" fill="#132529"></path>
            <path d="M294.448,252.157 C294.382,241.127 294.452,210.152 294.448,210.209 C294.448,210.209 276.926,207.26 273.345,184.383 C271.564,173.006 272.177,154.36 273.171,139.119 C274.066,125.401 283.193,108.588 296.861,110.064 L339.524,120.947 C343.675,121.396 346.795,124.947 346.703,129.122 L344.106,235.075 L294.448,252.157" id="Fill-124" fill="#F1AD92"></path>
            <path d="M280.432,152.188 C280.375,153.737 281.637,155.064 283.254,155.153 C284.868,155.244 286.225,154.065 286.283,152.516 C286.341,150.967 285.078,149.639 283.465,149.549 C281.848,149.458 280.491,150.64 280.432,152.188" id="Fill-125" fill="#132529"></path>
            <path d="M277.195,148.828 C277.557,149.212 279.783,147.572 282.939,147.588 C286.092,147.558 288.405,149.186 288.748,148.8 C288.917,148.63 288.547,147.939 287.541,147.202 C286.549,146.469 284.858,145.754 282.891,145.757983 C280.926,145.764 279.27,146.485 278.318,147.223 C277.346,147.965 277.016,148.656 277.195,148.828" id="Fill-126" fill="#132529"></path>
            <path d="M308.216,153.858 C308.58,154.241 310.808,152.602 313.962,152.617 C317.114,152.587 319.427,154.215 319.77,153.83 C319.938,153.659 319.574,152.968 318.562,152.232 C317.572,151.498 315.88,150.783 313.915,150.786983 C311.948,150.794 310.294,151.514 309.34,152.252 C308.371,152.995 308.039,153.686 308.216,153.858" id="Fill-127" fill="#132529"></path>
            <path d="M296.711,172.866 C296.726,172.687 294.764,172.344 291.587,171.93 C290.781,171.845 290.018,171.683 289.883,171.133 C289.695,170.55 290.035,169.682 290.427,168.745 C291.189,166.797 291.987,164.755 292.824,162.614 C296.153,153.884 298.565,146.705 298.212,146.574 C297.86,146.443 294.875,153.413 291.546,162.143 C290.745,164.296 289.978,166.348 289.249,168.311 C288.942,169.226 288.415,170.264 288.824,171.473 C289.04,172.076 289.63,172.514 290.146,172.654 C290.663,172.813 291.116,172.823 291.515,172.848 C294.713,173.027 296.699,173.046 296.711,172.866" id="Fill-128" fill="#132529"></path>
            <path d="M294.448,210.209 C294.448,210.209 309.831,211.236 325.093,202.107 C324.836,202.162 316.66,218.005 294.745,215.61 L294.448,210.209" id="Fill-129" fill="#EA8E6C"></path>
            <path d="M297.621,181.977 C297.245,180.035 299.529,179.405 301.21,178.361 C302.889,177.318 303.855,175.929 305.428,177.127 C306.328,177.811 306.97,178.794 307.374,179.849 C307.645,180.56 307.816,181.333 307.688,182.083 C307.533,182.995 306.954,183.782 306.282,184.419 C305.334,185.319 304.147,185.996 302.856,186.212 C301.566,186.426 300.173,186.149 299.146,185.339 C298.119,184.529 297.513,183.167 297.732,181.878" id="Fill-130" fill="#EA8E6C"></path>
            <path d="M305.994,175.07 C305.481,175.039 305.466,178.465 302.529,180.89 C299.597,183.323 295.945,182.93 295.918,183.409 C295.87,183.624 296.73,184.076 298.27,184.121 C299.783,184.177 301.991,183.696 303.789,182.212 C305.582,180.725 306.355,178.737 306.474,177.332 C306.609,175.901 306.228,175.05 305.994,175.07" id="Fill-131" fill="#132529"></path>
            <path d="M307.748,146.807 C308.057,147.665 311.21,147.266 314.911,147.72 C318.622,148.1 321.605,149.191 322.098,148.422 C322.319,148.054 321.799,147.246 320.594,146.413 C319.4,145.581 317.492,144.788 315.269,144.535 C313.047,144.287 311.011,144.636 309.661,145.182 C308.3,145.726 307.615,146.399 307.748,146.807" id="Fill-132" fill="#132529"></path>
            <path d="M277.633,137.912 C278.187,138.63 280.363,137.891 282.978,137.861 C285.591,137.74 287.805,138.354 288.317,137.605 C288.541,137.241 288.193,136.523 287.227,135.842 C286.276,135.164 284.682,134.608 282.885,134.657 C281.089,134.711 279.531,135.357 278.62,136.089 C277.695,136.824 277.39,137.561 277.633,137.912" id="Fill-133" fill="#132529"></path>
            <path d="M349.203,197.456 C342.914,198.724 342.353,195.523 337.654,191.155 C332.955,186.787 330.528,180.096 331.334,173.731 C332.045,168.114 335.073,162.4 333.126,157.084 C330.551,150.055 320.699,147.892 318.084,140.879 C316.564,136.802 317.928,132.033 316.206,128.039 C314.587,124.282 310.634,122.118 306.787,120.728 C302.94,119.337 298.815,118.377 295.585,115.866 C292.355,113.355 290.34,108.617 292.424,105.096 C309.485,107.141 326.3,111.227 342.397,117.238 C346.13,118.632 350.05,120.308 352.257,123.625 C354.591,127.135 354.48,131.671 354.284,135.882 C353.325,156.417 352.367,176.951 351.409,197.486" id="Fill-134" fill="#132529"></path>
            <path d="M363.776,189.781708 C363.79,189.791 363.875,189.695 364.026,189.496 C364.167,189.291 364.422,189.011 364.657,188.582 C365.173,187.753 365.795,186.418 366.164,184.583 C366.53,182.758 366.564,180.392 365.797,177.829 C365.082,175.273 363.3,172.527 360.474,170.671 C357.761,168.758 354.228,167.425 351.983,164.381 C350.864,162.895 350.389,160.966 350.742,159.011 C351.048,157.049 351.945,155.125 352.731,153.077 C354.48,148.979 354.497,143.861 352.437,139.423 C351.398,137.216 349.859,135.16 347.797,133.658 C345.749,132.109 343.248,131.311 340.782,130.75 C338.305,130.185 335.835,129.857 333.542,129.165 C331.254,128.481 329.067,127.456 327.477,125.848 C325.847,124.261 325.157,122.062 324.847,119.848 C324.535,117.636 324.369,115.341 323.77,113.199 C322.652,108.91 320.472,105.11 317.598,102.38 C314.725,99.632 311.205,98.056 307.882,97.56 C304.547,97.04 301.405,97.658 299.042,98.898 C296.653,100.114 294.995,101.8 293.928,103.325 C292.865,104.87 292.37,106.259 292.139,107.206 C291.902,108.156 291.916811,108.677 291.916811,108.677 C292.065,108.739 292.095,106.532 294.246,103.554 C295.329,102.108 296.973,100.521 299.293,99.401 C301.584,98.259 304.583,97.722 307.772,98.262 C310.946,98.78 314.303,100.331 317.02,102.981 C319.746,105.619 321.819,109.284 322.874,113.432 C323.44,115.504 323.585,117.689 323.898,119.99 C324.195,122.255 324.957,124.764 326.776,126.539 C328.539,128.327 330.876,129.405 333.254,130.123 C335.657,130.848 338.134,131.174 340.559,131.73 C342.971,132.278 345.322,133.04 347.205,134.464 C349.116,135.85 350.561,137.766 351.545,139.839 C353.49,144.031 353.516,148.811 351.865,152.748 C351.11,154.762 350.191,156.738 349.868,158.878 C349.486,161.006 350.06,163.27 351.309,164.872 C353.804,168.152 357.441,169.43 360.074,171.258 C362.812,173.009 364.508,175.544 365.26,177.998 C366.047,180.443 366.077,182.733 365.778,184.515 C365.152,188.133 363.626,189.716 363.776,189.781708" id="Fill-135" fill="#334F55"></path>
            <path d="M334.02,167.056 C328.841,178.973 327.881,192.674 331.348,205.197 C332.383,208.939 333.813,212.818 332.928,216.598 C331.971,220.691 328.55,223.65 326.054,227.03 C321.757,232.851 320.083,240.533 321.568,247.613 C323.052,254.694 327.673,261.055 333.947,264.657 C334.607,260.897 338.106,258.333 341.557,256.697 C345.007,255.062 348.821,253.85 351.452,251.083 C354.084,248.317 354.829,243.243 351.769,240.959 C360.573,238.659 365.562,228.202 363.709,219.293 C361.856,210.385 354.611,203.346 346.371,199.487" id="Fill-136" fill="#132529"></path>
            <path d="M343.408,255.861 C341.833,256.725 340.306,257.496 340.112,259.281 C339.883,261.376 341.892,265.052 342.614,267.031 C344.025,270.903 342.962,275.559 340.008,278.434 C337.055,281.309 332.373,282.247 328.54,280.733 C331.357,280.948 333.748,278.199 333.999,275.385 C334.25,272.571 332.884,269.855 331.205,267.582 C329.526,265.31 327.493,263.289 326.068,260.849 C323.17,255.881 318.865,242.364 322.178,234.795" id="Fill-137" fill="#132529"></path>
            <path d="M351.412,241.307 C351.401,241.292 351.589,241.135 351.952,240.851 C352.319,240.569 352.851,240.143 353.522,239.579 C354.855,238.447 356.747,236.735 358.663,234.263 C360.567,231.805 362.516,228.544 363.534,224.546 C364.534,220.581 364.607,215.847 362.889,211.414 C362.034,209.204 360.757,207.247 359.271,205.569 C357.799,203.877 356.196,202.402 354.691,200.968 C353.185,199.536 351.764,198.145 350.588,196.697 C349.407,195.248 348.515,193.737 347.898,192.273 C346.618,189.348 346.567,186.636 347.015,184.923 C347.243,184.064 347.529,183.43 347.763,183.029 C348.003,182.629 348.134,182.425 348.15,182.434649 C348.218,182.467 347.608,183.271 347.214,184.969 C346.837,186.656 346.941,189.282 348.235,192.126 C348.86,193.548 349.753,195.018 350.921,196.423 C352.09,197.833 353.508,199.2 355.021,200.62 C356.531,202.041 358.153,203.517 359.656,205.235 C361.172,206.934 362.497,208.954 363.375,211.226 C365.139,215.783 365.045,220.625 363.999,224.665 C362.932,228.742 360.916,232.031 358.952,234.491 C356.975,236.963 355.03,238.647 353.65,239.736 C352.956,240.279 352.402,240.681 352.014,240.936 C351.629,241.194 351.422,241.321 351.412,241.307" id="Fill-138" fill="#334F55"></path>
            <path d="M64.016,360.741 C66.544,363.908 70.984,362.528 72.947,360.374 C74.91,358.221 75.609,355.234 76.238,352.388 C77.674,345.886 79.105,339.069 77.329,332.653 C76.798,330.733 75.949,328.84 74.492,327.484 C73.035,326.127 70.881,325.401 68.991,326.029 C66.756,326.774 65.483,329.089 64.595,331.272 C61.985,337.686 60.83,344.688 61.242,351.602 C61.434,354.83 62.027,358.192 64.016,360.741" id="Fill-139" fill="#E0565F"></path>
            <path d="M67.91,362.605 C66.492,362.605 65.083,362.078 64.016,360.741 C62.027,358.192 61.434,354.83 61.242,351.602 C61.187,350.683 61.16,349.764 61.16,348.844 C61.163,342.838 62.332,336.834 64.595,331.272 C65.483,329.089 66.756,326.774 68.991,326.029 C69.461,325.873 69.946,325.801 70.434,325.801 C71.908,325.801 73.397,326.464 74.492,327.484 C75.949,328.84 76.798,330.733 77.329,332.653 C77.919,334.783 78.155,336.958 78.155,339.15 C78.154,343.561 77.197,348.045 76.238,352.388 C75.609,355.234 74.91,358.221 72.947,360.374 C71.813,361.619 69.852,362.605 67.91,362.605" id="Fill-140" fill="#C8444D"></path>
            <path d="M73.763,376.973 C77.434,374.777 81.885,374.241 86.141,374.673 C88.427,374.904 90.829,375.433 92.475,377.035 C94.122,378.638 94.602,381.611 92.926,383.183 C91.928,384.118 90.469,384.343 89.103,384.412 C85.803,384.582 82.108,384.232 79.599,386.381 C78.168,387.608 77.286,389.552 75.524,390.222 C73.8,390.877 71.752,389.964 70.719,388.437 C69.688,386.908 69.532,384.927 69.854,383.111 C69.854,383.111 70.066,379.186 73.763,376.973" id="Fill-141" fill="#E0565F"></path>
            <path d="M57.945,365.897 C60.276,362.748 60.479,358.359 59.123,354.684 C57.766,351.01 55.033,347.984 51.952,345.566 C48.339,342.732 44.168,340.612 39.748,339.364 C38.009,338.872 36.185,338.514 34.4,338.798 C32.615,339.082 30.865,340.114 30.128,341.764 C29.038,344.204 30.406,346.993 31.837,349.25 C34.359,353.225 37.193,357.001 40.306,360.532 C42.811,363.373 45.65,366.152 49.265,367.279 C52.88,368.407 56.537,368.018 58.255,365.451" id="Fill-142" fill="#E0565F"></path>
            <path d="M67.004,410.731 C67.048,410.731 67.085,410.19 67.119,409.212 C67.157,408.11 67.204,406.726 67.26,405.078 C67.343,403.337 67.466,401.264 67.805,398.993 C68.144,396.729 68.74,394.259 69.548,391.742 C70.391,389.238 71.467,386.943 72.775,385.078 C74.073,383.206 75.632,381.813 77.127,380.972 C78.616,380.116 79.975,379.721 80.919,379.525 C81.873,379.365 82.406,379.255 82.4040056,379.213 C82.402,379.17 81.862,379.196 80.877,379.285 C79.903,379.412 78.484,379.75 76.911,380.588 C75.331,381.411 73.674,382.831 72.309,384.744 C70.932,386.65 69.815,388.997 68.957,391.546 C68.135,394.108 67.551,396.601 67.237,398.912 C66.925,401.221 66.847,403.314 66.82,405.066 C66.799,406.819 66.839,408.235 66.877,409.213 C66.917,410.191 66.962,410.731 67.004,410.731" id="Fill-143" fill="#132529"></path>
            <path d="M67.089,407.552013 C67.11,407.549 67.108,407.308 67.085,406.85 C67.05,406.325 67.007,405.664 66.954,404.853 C66.84,403.12 66.683,400.611 66.581,397.507 C66.344,391.301 66.339,382.714 66.778,373.248 C67.224,363.779 68.068,355.234 68.939,349.085 C69.14,347.545 69.353,346.157 69.558,344.942 C69.751,343.723 69.914,342.672 70.083,341.82 C70.222,341.02 70.337,340.367 70.427,339.85 C70.499,339.397 70.527,339.157 70.506,339.151949 C70.485,339.148 70.416,339.378 70.304,339.822 C70.183,340.335 70.031,340.981 69.845,341.774 C69.64,342.62 69.441,343.666 69.215,344.881 C68.977,346.095 68.733,347.482 68.504,349.021 C67.518,355.167 66.604,363.73 66.156,373.219 C65.716,382.705 65.791,391.312 66.141,397.527 C66.299,400.635 66.524,403.145 66.712,404.874 C66.813,405.683 66.895,406.341 66.96,406.863 C67.023,407.318 67.067,407.554 67.089,407.552013" id="Fill-144" fill="#132529"></path>
            <path d="M66.089,391.005016 C66.131,391 66.078,390.259 65.942,388.918 C65.781,387.582 65.475,385.655 64.948,383.305 C64.398,380.962 63.662,378.184 62.59,375.184 C61.562,372.169 60.205,368.93 58.533,365.653 C55.249,359.055 51.019,353.758 47.426,350.538 C46.576,349.678 45.653,349.075 44.907,348.476 C44.522,348.191 44.18,347.902 43.836,347.68 C43.491,347.473 43.171,347.28 42.873,347.102 C41.714,346.411 41.066,346.05 41.045,346.087 C40.954,346.229 43.639,347.59 47.127,350.862 C50.601,354.128 54.721,359.394 57.978,365.936 C59.636,369.184 60.999,372.392 62.05,375.375 C63.144,378.345 63.919,381.091 64.52,383.407 C65.098,385.731 65.468,387.634 65.703,388.953 C65.911,390.277 66.046,391.009 66.089,391.005016" id="Fill-145" fill="#132529"></path>
            <path d="M218.66,162.211 C216.816,155.677 208.324,156.311 208.324,156.311 L208.557,160.856 C213.466,160.008 216.517,165.761 216.517,165.761 L218.66,162.211" id="Fill-146" fill="#E0565F"></path>
            <path d="M135.109,86.197 C130.525,86.683 129.977,92.439 129.977,92.439 L133.045,92.803 C133.04,89.421 137.24,88.038 137.24,88.038 L135.109,86.197" id="Fill-147" fill="#E0565F"></path>
            <path d="M177.793,25.22 C180.589,32.345 190.046,30.688 190.046,30.688 L189.278,25.616 C183.865,27.113 179.802,20.998 179.802,20.998 L177.793,25.22" id="Fill-148" fill="#E0565F"></path>
            <path d="M71.158,145.583 C66.574,146.07 66.026,151.825 66.026,151.825 L69.094,152.19 C69.089,148.807 73.289,147.424 73.289,147.424 L71.158,145.583" id="Fill-149" fill="#E0565F"></path>
            <path d="M90.046,47.987 C90.712,43.425 85.272,41.467 85.272,41.467 L84.158,44.348 C87.436,45.183 87.733,49.594 87.733,49.594 L90.046,47.987" id="Fill-150" fill="#E0565F"></path>
            <path d="M11.675,117.997 C10.852,125.15 20.326,126.882 20.326,126.882 L22.036,122.201 C16.352,121.688 15.531,114.992 15.531,114.992 L11.675,117.997" id="Fill-151" fill="#E0565F"></path>
            <path d="M236.852,83.484 C241.455,83.746 242.927,78.156 242.927,78.156 L239.96,77.299 C239.416,80.637 235.048,81.322 235.048,81.322 L236.852,83.484" id="Fill-152" fill="#E0565F"></path>
        </g>
    </g>
</svg>