<svg xmlns="http://www.w3.org/2000/svg" viewBox="0 0 443.47 164.42"><defs><style>.cls-1{fill:#f26722;}.cls-2{fill:#1b2473;}</style></defs><title>Asset 1</title><g id="Layer_2" data-name="Layer 2"><g id="Layer_1-2" data-name="Layer 1"><path class="cls-1" d="M169.77,42.09,151,51.47l-5.15,5.15a10,10,0,0,1-8.58,1.72,9.64,9.64,0,0,1-5.66-4.77,1.23,1.23,0,0,1,.6-1.67L168,35.07l.48,0c-4-12.37-16.47-21.39-31.23-21.39-18,0-32.6,13.45-32.6,30s14.6,30,32.6,30,32.6-13.45,32.6-30C169.86,43.19,169.81,42.64,169.77,42.09Zm-44-1.38a9.8,9.8,0,0,1-.48-3.1,10.09,10.09,0,0,1,19-4.84c.08.17.17.34.25.53L125.9,41.18A4.43,4.43,0,0,1,125.73,40.71Z"/><path class="cls-2" d="M224.76,75.49a69.42,69.42,0,0,1,15.45-18.87l.39,22.3H223C223.56,77.77,224.13,76.64,224.76,75.49Z"/><path class="cls-2" d="M279.58,49.76a13.24,13.24,0,0,0-2.83-6.87,9.4,9.4,0,0,0-5.66-3.43v24a4.11,4.11,0,0,0,1.41,0c2.09-.36,3.41-2.23,4.25-3.43A14.93,14.93,0,0,0,279.58,49.76Zm31-20.83V68.87a21.93,21.93,0,0,0,0-39.94Zm0,0V68.87a21.93,21.93,0,0,0,0-39.94Zm-31,20.83a13.24,13.24,0,0,0-2.83-6.87,9.4,9.4,0,0,0-5.66-3.43v24a4.11,4.11,0,0,0,1.41,0c2.09-.36,3.41-2.23,4.25-3.43A14.93,14.93,0,0,0,279.58,49.76Zm0,0a13.24,13.24,0,0,0-2.83-6.87,9.4,9.4,0,0,0-5.66-3.43v24a4.11,4.11,0,0,0,1.41,0c2.09-.36,3.41-2.23,4.25-3.43A14.93,14.93,0,0,0,279.58,49.76Zm31-20.83V68.87a21.93,21.93,0,0,0,0-39.94Zm0,0V68.87a21.93,21.93,0,0,0,0-39.94Zm-31,20.83a13.24,13.24,0,0,0-2.83-6.87,9.4,9.4,0,0,0-5.66-3.43v24a4.11,4.11,0,0,0,1.41,0c2.09-.36,3.41-2.23,4.25-3.43A14.93,14.93,0,0,0,279.58,49.76ZM313.12,0C243.48,0,187,51.47,187,115H439.23C439.23,51.47,382.77,0,313.12,0ZM253.07,106.38h-12l-.29-17.16H219.36A94.09,94.09,0,0,0,217,106.38H201.6a76.3,76.3,0,0,1,1.72-18c3.41-14.94,11-24.74,17.15-32.6,10-12.63,22.88-21.43,32.6-27.45Zm42,0h-12L272.8,77.21v29.17H259.08V25.74a41.16,41.16,0,0,1,15.44,1.75c3.5,1.11,7,2.28,10.29,5.26,6.94,6.32,8.29,16.84,6.87,24.54-1.24,6.67-4.58,10.41-6.87,13.06,3.44,9.35,6.87,19.66,10.3,29Zm1.72-22.31V14.58c23.67-2,40.06,13.71,39.46,37.24-.47,18.29-10.25,29-26.94,31.89v22.67H296.83V85.79m54.9,20.59h-12V15.44l12,3.43Zm32.6-56.5a.87.87,0,0,1-1.34.72L371.46,43a1.72,1.72,0,0,0-2.57,1.5v43.2a1.72,1.72,0,0,0,2.57,1.49L383,81.52a.86.86,0,0,1,1.34.72v13.4a.84.84,0,0,1-.38.7l-11,7.58a17.06,17.06,0,0,1-8.84,2.46,7.26,7.26,0,0,1-7.25-7.26V33a7.24,7.24,0,0,1,7.25-7.25A17.15,17.15,0,0,1,373,28.19l11,7.58a.86.86,0,0,1,.38.71Zm36.37,55.93-23.38.57A9.09,9.09,0,0,1,388,97.32l1.22-45.81a5.5,5.5,0,0,1,4-5.06,7.31,7.31,0,0,1,8.26,3,150.27,150.27,0,0,1,15.44,19.15,148.59,148.59,0,0,1,11.92,21.05,10.37,10.37,0,0,1,.67,10.52A10.08,10.08,0,0,1,420.7,105.81ZM401.49,71V92.48a.16.16,0,0,0,.17.17H413.2a.17.17,0,0,0,.16-.26A37.74,37.74,0,0,0,401.49,71Zm-90.94-42.1V68.87a21.93,21.93,0,0,0,0-39.94Zm-33.8,14a9.4,9.4,0,0,0-5.66-3.43v24a4.11,4.11,0,0,0,1.41,0c2.09-.36,3.41-2.23,4.25-3.43a14.93,14.93,0,0,0,2.83-10.29A13.24,13.24,0,0,0,276.75,42.89Zm2.83,6.87a13.24,13.24,0,0,0-2.83-6.87,9.4,9.4,0,0,0-5.66-3.43v24a4.11,4.11,0,0,0,1.41,0c2.09-.36,3.41-2.23,4.25-3.43A14.93,14.93,0,0,0,279.58,49.76Zm31-20.83V68.87a21.93,21.93,0,0,0,0-39.94Zm0,0V68.87a21.93,21.93,0,0,0,0-39.94Zm-31,20.83a13.24,13.24,0,0,0-2.83-6.87,9.4,9.4,0,0,0-5.66-3.43v24a4.11,4.11,0,0,0,1.41,0c2.09-.36,3.41-2.23,4.25-3.43A14.93,14.93,0,0,0,279.58,49.76Zm0,0a13.24,13.24,0,0,0-2.83-6.87,9.4,9.4,0,0,0-5.66-3.43v24a4.11,4.11,0,0,0,1.41,0c2.09-.36,3.41-2.23,4.25-3.43A14.93,14.93,0,0,0,279.58,49.76Zm0,0a13.24,13.24,0,0,0-2.83-6.87,9.4,9.4,0,0,0-5.66-3.43v24a4.11,4.11,0,0,0,1.41,0c2.09-.36,3.41-2.23,4.25-3.43A14.93,14.93,0,0,0,279.58,49.76Z"/><path class="cls-2" d="M183.38,89.22H91.09L99.24,103h81.67a113.38,113.38,0,0,0-.74,12H89.22l-7.14-12L73.93,89.22l-7.12-12L58.66,63.48l-7.14-12L28.1,12H11.39A6.86,6.86,0,1,1,13.5,5.15H41.18L53.41,25.74h51.32a35.88,35.88,0,0,0-4.56,12H60.53l8.15,13.72h31.49a35.88,35.88,0,0,0,4.56,12H75.82L84,77.21h35.72a34.47,34.47,0,0,0,30,0H187A119,119,0,0,0,183.38,89.22Z"/><path class="cls-2" d="M200.38,51.47a117.25,117.25,0,0,0-7.27,12H167.87c3.6-2.28,6.47-6.62,7.87-12Z"/><path class="cls-2" d="M224.27,25.74a124.17,124.17,0,0,0-12.87,12H176.14a22.6,22.6,0,0,0-6.09-12Z"/><path class="cls-1" d="M93.66,149.31h8.83c0,.78,0,1.61,0,2.39,0,1.76,0,5,2.93,5a2.75,2.75,0,0,0,2.78-3c0-3.22-2.64-5-5.23-7.22l-2.69-2.23c-4.7-3.94-6.14-6.69-6.14-11.11,0-1.61,0-11.63,11.66-11.63,11,0,11,8.93,11,12.1a17.73,17.73,0,0,1-.14,2.18H108.1v-1.4c0-2.29,0-5.3-2.64-5.3s-2.54,2.49-2.54,2.91c0,1,0,2.18,5.18,6.75l4.51,3.94c4.61,4,4.61,8.16,4.61,9.82s0,11.89-11.8,11.89-11.81-9.3-11.81-13.35C93.61,150.5,93.61,149.88,93.66,149.31Z"/><path class="cls-1" d="M127.2,122.31h9.11V151c0,2.29,0,5.66,2.45,5.66s2.35-3.37,2.35-4.05V122.31h9.17v29.28c0,3.64,0,12.83-11.57,12.83s-11.51-10.28-11.51-10.7Z"/><path class="cls-1" d="M161.4,122.31h13.87c9.46,0,9.36,8.62,9.36,13.55,0,8.36-3.41,11.73-10.65,11.73,0,0-2.12,0-3.41-.1v16.15H161.4Zm9.84,7.69a2.92,2.92,0,0,0-.67.1v9.66a9.57,9.57,0,0,0,1.15.05c1.68,0,3.84,0,3.84-4.21S175.18,130,171.24,130Z"/><path class="cls-1" d="M194.6,122.31h20v8.15H203.77v7.79h9.6v8.2h-9.6v9h11.28v8.15H194.6Z"/><path class="cls-1" d="M225.21,122.31H239.8c4.7,0,8.16,3.58,8.16,10.49,0,3-.38,7.21-4.18,9.24,4.18,2,4.18,6.33,4.18,8.1l-.1,6.44c0,2.75,0,4.93.77,7.06H239.8c-.53-1.09-.81-2.29-.81-5.14l-.05-8.83c0-3.22-1.25-3.94-4.66-3.74v17.71h-9.07Zm13.87,11.37c0-4.26-2.11-4.05-4.8-4.1v9.19C238,138.67,239.08,139.18,239.08,133.68Z"/><path class="cls-1" d="M282.07,137.58h-9.16v-5.66c0-.37,0-2.86-2.21-2.86-2.4,0-2.4,2.49-2.4,3.74v20.51c0,.36,0,3.42,2.35,3.42s2.26-3.06,2.26-4.36V147h9.16c0,8.47,0,17.4-11.61,17.4-11.33,0-11.33-10-11.33-12.1V134.2c0-3.11,0-12.67,11.66-12.67C282.07,121.53,282.07,128.91,282.07,137.58Z"/><path class="cls-1" d="M292.62,122.31h20v8.15H301.79v7.79h9.6v8.2h-9.6v9h11.28v8.15H292.62Z"/><path class="cls-1" d="M323.23,122.31h9.84l7.1,28v-28h8.4v41.33h-10l-7-27.78v27.78h-8.35Z"/><path class="cls-1" d="M358.69,122.31h20.49v7.94h-5.62v33.39H364.4V130.25h-5.71Z"/><path class="cls-1" d="M388.87,122.31h14.58c4.71,0,8.16,3.58,8.16,10.49,0,3-.38,7.21-4.17,9.24,4.17,2,4.17,6.33,4.17,8.1l-.09,6.44c0,2.75,0,4.93.76,7.06h-8.83c-.52-1.09-.81-2.29-.81-5.14l-.05-8.83c0-3.22-1.25-3.94-4.65-3.74v17.71h-9.07Zm13.87,11.37c0-4.26-2.12-4.05-4.8-4.1v9.19C401.63,138.67,402.74,139.18,402.74,133.68Z"/><path class="cls-1" d="M423,122.31h20v8.15H432.19v7.79h9.6v8.2h-9.6v9h11.28v8.15H423Z"/></g></g></svg>