<svg xmlns="http://www.w3.org/2000/svg" viewBox="0 0 4414.46 4805"><defs><style>.cls-1{fill:#de2324;}.cls-2{fill:none;stroke:#fff;stroke-width:21px;}.cls-2,.cls-3{stroke-miterlimit:10;}.cls-3{fill:#fff;stroke:#000;stroke-width:15px;}.cls-4{fill:#201d0e;}.cls-5{fill:#ababab;}</style></defs><title>logo</title><g id="Layer_2" data-name="Layer 2"><g id="Layer_1-2" data-name="Layer 1"><polygon class="cls-1" points="2277.96 0 4395.46 3906 160.46 3906 2277.96 0"/><polygon class="cls-2" points="2277.71 270.5 4163.96 3772.5 391.46 3772.5 2277.71 270.5"/><path class="cls-3" d="M598.82,2800l580.64,1106c-389.6-.61-776.56-3.63-1167-5.57Z"/><path class="cls-3" d="M1048.46,4268.67c.12-46.52-20.76-53-53.4-52.62-84.83.92-169.69.31-254.54.31-4.64,0-9.3.3-13.92-.11-12-1.07-15.07-4.32-15.49-15.9a100.93,100.93,0,0,1,.5-11.77c3.66-44.21,13.54-53.27,58-53.27q132.24,0,264.48-.06c13.93,0,14.13-.26,14.19-13.75.1-36.7,0-73.43,0-110.14,0-7.21-.28-14.43.06-21.64.3-6.58-2.15-9.79-9.06-9.39-4,.21-7.94,0-11.92,0q-152.13,0-304.26,0c-6.61,0-13.24.4-19.85.54-14.89.33-26.7,7-36.36,17.66-4.42,4.85-8,10.42-11.92,15.68-8.16,10.81-11.95,11.58-22.54,3.58s-20.82-16.21-31.06-24.52c-11.73-9.51-24.61-13.51-40.2-13.27-53.67.81-107.37.32-161.06.32h-89.5q-42.74,0-85.49,0c-6.23,0-11.85-.2-11.81,8.78.22,45.9.14,91.79,0,137.69,0,5.53,1.68,8.69,7.77,8.51,4.64-.12,9.28,0,13.92,0,85.51,0,171,.53,256.51-.36,21.78-.21,42.07,9.79,48.52,37.12,2.29,9.71,3,19.38,3.46,29.19s-4.65,14.51-14.15,15c-5.28.25-10.59.11-15.89.11q-156.11,0-312.2,0c-4.64,0-9.3.3-13.92-.06-7.78-.57-10.25,2.8-10.19,10.34q.36,65.91,0,131.79c-.06,8.45,2.75,11.66,11.39,11.44,17.88-.43,35.79-.22,53.67-.06,5.86,0,12.53-.61,14.92,6.72,2.13,6.55-1.36,11-6.12,15.32-28.69,25.72-37.45,59.31-37.53,95.9q-.36,124.89,0,249.8c0,35.2,12.21,47.46,47.35,48.31,2.65.06,5.29,0,7.94,0q141.21,0,282.38,0c32,0,43.54-8.23,53.34-38.77,3-9.32,4.58-19.07,6.49-28.7,1.31-6.63,4.94-11.1,11.82-10.85s10.4,5,11.13,11.64c.3,2.6.38,5.24.74,7.84,2.11,15.22,8.22,28.87,17,41.43,8.11,11.52,18.7,18.2,33.43,17.47,7.27-.35,14.58-.06,21.86-.06,98.12,0,196.21-.2,294.31.14,25.1.1,44.91-6.32,47-45.29.12-2.6,0-5.24,0-7.86C1048.34,4578.12,1048.12,4423.39,1048.46,4268.67Zm-183.8,355.81c-5.68,15.46-16.81,25.52-33.79,26.05-24.47.75-49,.95-73.47-.14-21.42-1-37-14.57-42.58-35.25-3.09-11.4-4.05-23.14-4-35,.22-35.37-.19-70.76.26-106.12.12-9.14-2.05-12.49-12-12.39-47.67.51-95.37.61-143.05,0-11.53-.14-12.68,4.8-12.59,14,.34,36.69.1,73.38.16,110.06,0,11.17-.37,22.28-4.28,32.93-7.26,19.85-21.24,31.45-42.82,32.14-21.19.65-42.41.61-63.57.16-18.78-.42-31.32-10.07-36.12-27.85a99.61,99.61,0,0,1-3.36-25.21c-.32-47.81,0-95.64-.2-143.46-.08-20.6,7.5-38.38,19.95-54.25,12.72-16.25,30.18-22.14,50.63-22,54.31.3,108.62.1,162.92.1H811.52c5.29,0,10.61-.1,15.89.18,27.75,1.53,40.91,14.81,41.23,42.22.3,25.54.06,51.1.06,76.64,0,33.42-.14,66.82.1,100.24C868.86,4606.73,867.82,4615.85,864.66,4624.48Z"/><path class="cls-3" d="M2711.46,4263.67c.12-46.52-20.76-53-53.4-52.62-84.83.92-169.69.31-254.54.31-4.64,0-9.3.3-13.92-.11-12-1.07-15.07-4.32-15.49-15.9a100.93,100.93,0,0,1,.5-11.77c3.66-44.21,13.54-53.27,58-53.27q132.24,0,264.48-.06c13.93,0,14.13-.26,14.19-13.75.1-36.7,0-73.43,0-110.14,0-7.21-.28-14.43.06-21.64.3-6.58-2.15-9.79-9.06-9.39-4,.21-7.94,0-11.92,0q-152.13,0-304.26,0c-6.61,0-13.24.4-19.85.54-14.89.33-26.7,7-36.36,17.66-4.42,4.85-8,10.42-11.92,15.68-8.16,10.81-12,11.58-22.54,3.58s-20.82-16.21-31.06-24.52c-11.73-9.51-24.61-13.51-40.2-13.27-53.67.81-107.37.32-161.06.32h-89.5q-42.74,0-85.49,0c-6.23,0-11.85-.2-11.81,8.78.22,45.9.14,91.79,0,137.69,0,5.53,1.68,8.69,7.77,8.51,4.64-.12,9.28,0,13.92,0,85.51,0,171,.53,256.51-.36,21.78-.21,42.07,9.79,48.52,37.12,2.29,9.71,3,19.38,3.46,29.19s-4.65,14.51-14.15,15c-5.28.25-10.59.11-15.89.11q-156.11,0-312.2,0c-4.64,0-9.3.3-13.92-.06-7.78-.57-10.25,2.8-10.19,10.34q.36,65.91,0,131.79c-.06,8.45,2.75,11.66,11.39,11.44,17.88-.43,35.79-.22,53.67-.06,5.86,0,12.53-.61,14.92,6.72,2.13,6.55-1.36,11-6.12,15.32-28.69,25.72-37.45,59.31-37.53,95.9q-.36,124.89,0,249.8c0,35.2,12.21,47.46,47.35,48.31,2.65.06,5.29,0,7.94,0q141.21,0,282.38,0c32,0,43.54-8.23,53.34-38.77,3-9.32,4.58-19.07,6.49-28.7,1.31-6.63,4.94-11.1,11.82-10.85s10.4,5,11.13,11.64c.3,2.6.38,5.24.74,7.84,2.11,15.22,8.22,28.87,17,41.43,8.11,11.52,18.7,18.2,33.43,17.47,7.27-.35,14.58-.06,21.86-.06,98.12,0,196.21-.2,294.31.14,25.1.1,44.91-6.32,47-45.29.12-2.6,0-5.24,0-7.86C2711.34,4573.12,2711.12,4418.39,2711.46,4263.67Zm-183.8,355.81c-5.68,15.46-16.81,25.52-33.79,26.05-24.47.75-49,.95-73.47-.14-21.42-1-37-14.57-42.58-35.25-3.09-11.4-4.05-23.14-4-35,.22-35.37-.19-70.76.26-106.12.12-9.14-2.05-12.49-12-12.39-47.67.51-95.37.61-143.05,0-11.53-.14-12.68,4.8-12.59,14,.34,36.69.1,73.38.16,110.06,0,11.17-.37,22.28-4.28,32.93-7.26,19.85-21.24,31.45-42.82,32.14-21.19.65-42.41.61-63.57.16-18.78-.42-31.32-10.07-36.12-27.85a99.61,99.61,0,0,1-3.36-25.21c-.32-47.81,0-95.64-.2-143.46-.08-20.6,7.5-38.38,20-54.25,12.72-16.25,30.18-22.14,50.63-22,54.31.3,108.62.1,162.92.1h184.78c5.29,0,10.61-.1,15.89.18,27.75,1.53,40.91,14.81,41.23,42.22.3,25.54.06,51.1.06,76.64,0,33.42-.14,66.82.1,100.24C2531.86,4601.73,2530.82,4610.85,2527.66,4619.48Z"/><path class="cls-3" d="M1784,4085.89a230.17,230.17,0,0,0-1-23c-3.11-31.25-21.5-51.33-48.51-64.51-12.39-6-26-6.19-39.6-6.18q-129.12.13-258.23,0c-5.14,0-10.35.42-15.4-.29-12.09-1.71-15.51-8.57-9.48-18.89,2.58-4.41,6-8.29,9.11-12.42q146.16-197.34,292.26-394.71c3.64-4.92,8.66-9.19,9.9-17.9h-13.44c-54.6,0-109.2.36-163.79-.28-11.66-.14-18.68,4.12-25.53,12.9-81.35,104.3-162.77,208.54-242.39,314.18-44.43,58.95-89.14,117.7-129.79,179.41a65,65,0,0,0-11.14,37.72q.6,282.32.27,564.64c0,23.76-.4,47.54.13,71.3.81,36.22,17.58,52.49,53.75,53.13,1.93,0,3.86,0,5.78,0q262.08,0,524.17-.05c8.33,0,16.8,0,25-1.36,21.23-3.59,32.36-15.42,36.44-36.67,1.71-8.93,1.59-17.88,1.59-26.87Q1784.09,4401,1784,4085.89Zm-171.64,496c0,9-.1,18-.66,26.94-1.55,24.52-13.91,37.39-38.25,39.93a148.66,148.66,0,0,1-15.38.4q-96.28,0-192.55,0c-28.22,0-40.33-9.9-47.29-37.47-3.34-13.25-3.65-26.67-3.66-40.13q-.09-183.89,0-367.77c0-10.22.07-20.42,2.43-30.59,3.62-15.58,12.91-24.79,28.36-27.57a121.19,121.19,0,0,1,21-1.72q94.35-.18,188.7-.05a113.88,113.88,0,0,1,13.46.48c28.8,3.47,43.62,19.54,43.72,48.6.25,68.67.08,137.35.08,206Q1612.43,4490.38,1612.39,4581.85Z"/><path class="cls-4" d="M3324.45,4804.4l-7.46.6-41.95-.28c-5-.83-10-1.89-15-.46a981.44,981.44,0,0,0-269.85-.08c-5.07-1.44-10-.34-15,.5l-49.46-.13c-5.44-1.67-11-2.93-16.28-5.06-21-8.52-33.68-23.78-37.26-46.2-.59-3.73-1.13-7.48-1.37-11.24-2.78-44.06,22.94-70.72,67.44-69,15.12.59,30.2,3,45.24,5.06a125,125,0,0,0,43.37-2.12c11.5-2.48,19-9,22-20.76a156.72,156.72,0,0,0,4.84-39.15q.15-224.54,0-449.07a200.22,200.22,0,0,0-4.22-39.31c-2-10.12-7.25-17.2-18.18-19.05-36.66-6.23-73-5.77-108.69,5.66-9.21,2.94-13.94,9.82-16.58,19-6.48,22.53-9.24,45.55-9.93,68.84-.38,13.28-1.16,26.4-6,38.91-9.48,24.41-33,39.17-59.89,37.77-27.14-1.42-45.36-16.56-53-43.38-3.32-11.7-3.92-23.55-3.4-35.5,1.95-45.19,4.71-90.35.09-135.56a87.51,87.51,0,0,1,2.54-29.91c7.25-29.43,26.13-46.39,55.34-52.86a159.46,159.46,0,0,1,47.23-2.8c48,3.82,96.1,5.16,144.13,5.47,117.69.76,235.44,2.48,353-5.32,1.89-.13,3.79-.13,5.69-.19,31-1.05,59.31,4.68,79.08,30.8,5.33-.46,5.78-4.91,8-7.46,15.64-18.4,35.4-27.93,59.68-27.95,37.42,0,74.52,4.7,111.59,8.71,67.23,7.26,133.9,4.51,200.36-7a87.18,87.18,0,0,1,20.75-1.49c27.33,1.83,46,16.77,53.61,43a87.25,87.25,0,0,1,1.31,43c-5,23.23-21,36.8-43.9,41.75-11,2.38-22.37,3.58-33.94,2-13.78-1.85-27.7-2.79-41.59-3.67-22.22-1.39-28.49,5.35-26,27.79,1.25,11.24,3.15,22.4,7.14,33.08q76.54,204.78,153.14,409.54c.65,1.75,1.6,3.39,2.57,5.39,6.29-4.4,6.81-11.62,9.08-17.58Q4016.5,4364,4090,4169.1c6.07-16,9.9-32.4,10-49.59.09-16-2-19.15-18.26-18.94-17.68.24-35.34,2.21-53,3.71a99.08,99.08,0,0,1-41.06-5c-18.9-6.51-30.77-19.75-35-38.87-3.9-17.49-2.88-35.09,4.48-51.76,10.35-23.41,29.84-33,54.4-34.34,21.62-1.21,43.21,1.1,64.26,4.81,62.48,11,124.69,7.91,187.15.5,26.35-3.13,52.86-5.54,79.5-5.52a74.28,74.28,0,0,1,39.57,11.15c39.82,24.39,43.63,77.31,7.65,107.21-11.78,9.78-25.35,13.29-40.64,11.67-15.65-1.65-31.09-5-47.18-2.83-17.66,2.42-30.95,10.57-39.86,25.53a182.46,182.46,0,0,0-12.58,25.27q-106.5,265-212.7,530.09c-6.32,15.75-12.12,31.7-18.67,47.35a143.42,143.42,0,0,1-17.45,31.24c-38.16,50.78-116.11,44.78-145.67-11.36-14.4-27.36-22.68-57.2-34-85.81q-95.56-241.95-190.78-484c-5.75-14.61-10.56-29.63-17.12-43.86-13.47-29.22-31.88-38.93-64-33.55-26.57,4.44-51.56,2.49-75-14.69a138.26,138.26,0,0,0-3.94,56c2.6,20.65,3,41.39,3.1,62.14.07,9.4-.29,18.77-2.77,28.05-7.7,28.71-25.94,44.42-53.17,45.22-28.66.83-51.2-15.15-60.09-42.66-3.51-10.87-4.72-22.09-4.92-33.43-.4-22.76-4.07-45-9.86-67-3.15-12-10.34-19.39-22.55-22.91-32.85-9.49-66.17-9.63-99.67-5.58-11.66,1.41-18.88,8.24-21.58,20.46-3,13.67-3.77,27.4-3.78,41.21q-.14,222.65-.05,445.29c0,13.24.82,26.38,4.7,39.18,3.81,12.62,12.09,19.68,25,22.88,21,5.19,41.55,1.52,62.17-1.49,10.71-1.57,21.34-2.63,32.12-1.37,55.64,6.47,64.62,47.44,56.67,83.57-4.86,22.09-18.63,36.56-40.28,43.61C3331.56,4801.84,3328,4803.15,3324.45,4804.4Z"/><path class="cls-5" d="M3935.5,4631c8.88-23.07,17.54-45.21,25.94-67.45q73.32-194.06,146.64-388.11a164.69,164.69,0,0,0,11.1-58.91c0-22.69-8-31.91-31-34.6-19-2.23-37.82,2-56.73,3.13-8.28.49-16.33.68-24.51-.56-26.59-4-37.87-17.83-37-45.44s15-43.68,40.41-45.68c21-1.64,41.94,1,62.35,4.5,65,11.24,129.71,8,194.7.32,25.05-3,50.3-5.53,75.7-5.06a56.74,56.74,0,0,1,35,12.6c25.13,19.73,22.18,59.47-5.54,75.42-7.36,4.24-15.2,4.73-23.76,3.8-16.88-1.82-33.56-5-50.95-2.26-22.17,3.49-38.79,14-51.13,32.22-6.42,9.45-10.9,19.8-15.12,30.33q-107.09,266.93-214.25,533.83c-8.19,20.4-14.72,41.52-25.85,60.68-11.35,19.52-27.09,32.91-50.65,35.34-34.32,3.54-57.88-8.39-71.54-40.28-16.82-39.27-31.32-79.53-47-119.3Q3735.71,4395.23,3649,4175c-6.21-15.79-11.82-31.82-18.42-47.44-11.87-28.15-35.45-52.06-84.44-44.28-11.94,1.9-23.67,3-35.7.56-33.43-6.91-47-46.73-24.29-72.21,11.05-12.39,25.27-18.2,42-18.49,26-.44,51.9,2.22,77.58,5.34,79.62,9.69,158.94,10.6,238.08-4,17.94-3.31,34.86-1.16,45.93,14.69,12.07,17.3,12.83,37.11,4,55.68-9.24,19.41-28.83,20.86-47.44,20.77-14.5-.07-29-2.26-43.5-3.44-5-.42-10.1-1.11-15.12-.89-22,.95-32.38,9.84-35.63,31.48-3.17,21.14,2.6,41.18,9.86,60.72q45.67,122.84,91.69,245.56,35.63,95.4,71.3,190.78C3927.48,4616.62,3928.67,4624.21,3935.5,4631Z"/><path class="cls-5" d="M3175.78,4390.27q0,110.35,0,220.71c0,15.75.48,31.42,4.87,46.73,6,20.75,19.51,32.72,40.74,37.49,23.52,5.28,46.62,2,69.68-1.86a88.56,88.56,0,0,1,39.42,1.86c13.06,3.7,21.92,11.81,26.11,25,11.11,34.95-9.13,64.1-45.83,65.51-33.62,1.29-67.05-2.17-100.37-5.52a870.54,870.54,0,0,0-174.21.21c-32.06,3.19-64.22,6.32-96.58,5.45-11.67-.31-22.72-2.36-32.4-9-15.31-10.46-21.45-33.52-15.49-56.59,4.41-17.08,17.14-26.83,38.07-28.3,16.53-1.15,32.81,2.34,49,4.62a151.42,151.42,0,0,0,50.9-1.77c19.78-3.92,32.75-15.26,37.67-35.21a186,186,0,0,0,5.37-44.78q.12-222.6-.05-445.2c0-17.58-1.53-35.14-6.37-52.23q-5.61-19.81-25.3-25.73c-7.24-2.17-14.52-4.15-22.23-4.55-29.13-1.5-58.11-1.48-86.93,4.21-25.7,5.08-41.81,19.2-46.91,45.22-4.24,21.62-7.36,43.35-8.07,65.39-.31,10-.27,20-3.88,29.75-6.74,18.17-21.29,28.55-40.42,28.25-19.77-.32-32.23-10.11-37.17-31.12-5.69-24.21-3-48.89-.75-73.19a297.79,297.79,0,0,0-.31-60.15,295.41,295.41,0,0,1-1.34-43.31c1.17-29,16.73-46.25,45.18-52.4,14.44-3.12,28.94-2.87,43.45-2q88.09,5.61,176.36,5.76c63.28.15,126.59.8,189.84-.71,42.33-1,84.77-.79,127-4.88a111.81,111.81,0,0,1,35.85,1.95c26,5.88,40.6,21.56,42.82,48.25a233.39,233.39,0,0,1-2.06,54.55,149.17,149.17,0,0,0-.44,45.09c3.33,21.87,3,43.87,2.86,65.86a59.83,59.83,0,0,1-2.85,18.55c-5.74,17.34-15.65,26.05-32.17,27.53-17,1.53-33.51-7.22-40.69-22.19-5.55-11.56-6.82-24.08-7.18-36.73a275.89,275.89,0,0,0-11.26-72.38c-5.44-18-16.75-28.76-34.64-33.92-35.32-10.19-71.27-10.2-107.24-6.06-21.91,2.52-34.53,15.74-38.58,37.94-2.85,15.63-3.45,31.21-3.47,46.9Q3175.67,4281.8,3175.78,4390.27Z"/></g></g></svg>