<svg width="25" height="25" viewBox="0 0 25 25" fill="none" xmlns="http://www.w3.org/2000/svg">
<path d="M0 3.5V21.5H25V3.5H0ZM1 4.5H24V5.75C23.8047 5.91992 15.0371 13.5684 14.2188 14.2812L14.1719 14.3281C13.5234 14.8926 12.8594 15 12.5 15C12.1426 15 11.4766 14.8926 10.8281 14.3281C10.6426 14.166 9.30664 13.0117 8.34375 12.1719C5.48633 9.67969 1.14648 5.87891 1 5.75V4.5ZM1 7.07812C1.86719 7.83398 4.94336 10.5117 7.5625 12.7969L1 17.9844V7.07812ZM24 7.07812V17.9844L17.4375 12.7969C20.0566 10.5117 23.1328 7.83398 24 7.07812ZM8.32812 13.4688C8.93555 13.998 10.0332 14.957 10.1719 15.0781L10.1875 15.0938C11.0332 15.8203 11.9316 16 12.5 16C13.0723 16 13.9785 15.8184 14.8281 15.0781C14.9688 14.957 16.0742 14.0039 16.6875 13.4688L24 19.25V20.5H1V19.25L8.32812 13.4688Z" fill="#858585"/>
</svg>
