<svg width="50" height="50" viewBox="0 0 50 50" fill="none" xmlns="http://www.w3.org/2000/svg">
<path d="M5 7C2.25 7 0 9.25 0 12V38C0 40.75 2.25 43 5 43H45C47.75 43 50 40.75 50 38V12C50 9.25 47.75 7 45 7H5ZM5 9H45C46.668 9 48 10.332 48 12V38C48 39.668 46.668 41 45 41H5C3.33203 41 2 39.668 2 38V12C2 10.332 3.33203 9 5 9ZM17 13C10.3828 13 5 18.3828 5 25C5 31.6172 10.3828 37 17 37C20.0781 37 22.875 35.8164 25 33.9062C27.125 35.8164 29.9258 37 33 37C39.6172 37 45 31.6172 45 25C45 18.3828 39.6172 13 33 13C29.9258 13 27.125 14.1836 25 16.0938C22.875 14.1836 20.0781 13 17 13ZM33 15C38.5352 15 43 19.4648 43 25C43 30.5352 38.5352 35 33 35C30.4492 35 28.1094 34.0664 26.3438 32.5C27.9961 30.4414 29 27.8398 29 25C29 22.1602 27.9961 19.5586 26.3438 17.5C28.1094 15.9336 30.4492 15 33 15Z" fill="#858585"/>
</svg>
