<?xml version="1.0" encoding="utf-8"?>
<svg xmlns="http://www.w3.org/2000/svg" viewBox="0 0 50 50" fill="#858585"><path d="M 25 4 C 18.9375 4 14 8.9375 14 15 L 14 20.84375 C 11.527344 23.519531 10 27.078125 10 31 C 10 39.273438 16.726563 46 25 46 C 33.273438 46 40 39.273438 40 31 C 40 22.726563 33.273438 16 25 16 C 21.621094 16 18.511719 17.136719 16 19.03125 L 16 15 C 16 10.015625 20.015625 6 25 6 C 29.382813 6 33.027344 9.121094 33.84375 13.25 C 33.867188 13.640625 34.121094 13.980469 34.484375 14.121094 C 34.851563 14.261719 35.265625 14.175781 35.542969 13.898438 C 35.824219 13.625 35.914063 13.210938 35.78125 12.84375 C 34.78125 7.792969 30.332031 4 25 4 Z M 25 18 C 32.191406 18 38 23.808594 38 31 C 38 38.191406 32.191406 44 25 44 C 17.808594 44 12 38.191406 12 31 C 12 23.808594 17.808594 18 25 18 Z M 25 28 C 23.34375 28 22 29.34375 22 31 C 22 32.300781 22.839844 33.398438 24 33.8125 L 24 37 L 26 37 L 26 33.8125 C 27.160156 33.398438 28 32.300781 28 31 C 28 29.34375 26.65625 28 25 28 Z" fill="#858585"/></svg>
