<?xml version="1.0" encoding="UTF-8"?>
<svg width="24px" height="26px" viewBox="0 0 24 26" version="1.1" xmlns="http://www.w3.org/2000/svg" xmlns:xlink="http://www.w3.org/1999/xlink">
    <!-- Generator: Sketch 63.1 (92452) - https://sketch.com -->
    <title>icons8-search</title>
    <desc>Created with Sketch.</desc>
    <g id="Page-1" stroke="none" stroke-width="1" fill="none" fill-rule="evenodd" opacity="0.359119234">
        <g id="Desktop-HD-Copy" transform="translate(-203.000000, -471.000000)" fill="#000000" fill-rule="nonzero">
            <g id="Group-2" transform="translate(94.000000, 444.000000)">
                <g id="icons8-search" transform="translate(109.000000, 27.000000)">
                    <path d="M9.48837209,0 C4.24273284,0 0,4.49183268 0,10.0454545 C0,15.599077 4.24273284,20.0909091 9.48837209,20.0909091 C11.361192,20.0909091 13.094477,19.509233 14.5639535,18.5213068 L21.4186047,25.7784091 L23.7906977,23.2670455 L17.0232558,16.1207386 C18.2398259,14.431108 18.9767442,12.3375354 18.9767442,10.0454545 C18.9767442,4.49183268 14.7340119,0 9.48837209,0 Z M9.48837209,2.36363636 C13.5065408,2.36363636 16.744186,5.79137059 16.744186,10.0454545 C16.744186,14.2995385 13.5065408,17.7272727 9.48837209,17.7272727 C5.47020335,17.7272727 2.23255814,14.2995385 2.23255814,10.0454545 C2.23255814,5.79137059 5.47020335,2.36363636 9.48837209,2.36363636 Z" id="Shape"></path>
                </g>
            </g>
        </g>
    </g>
</svg>