<?xml version="1.0" encoding="UTF-8"?>
<svg xmlns="http://www.w3.org/2000/svg" xmlns:xlink="http://www.w3.org/1999/xlink" width="52pt" height="52pt" viewBox="0 0 52 52" version="1.1">
<g id="surface1">
<path style=" stroke:none;fill-rule:nonzero;fill:#FFFFFF;fill-opacity:1;" d="M 26.0625 2.3125 C 25.914063 2.320313 25.765625 2.335938 25.625 2.375 C 24.992188 2.5 24.460938 2.914063 24.1875 3.5 L 17.6875 16.75 L 2.9375 18.9375 C 2.210938 19.070313 1.609375 19.59375 1.390625 20.304688 C 1.164063 21.015625 1.351563 21.789063 1.875 22.3125 L 12.4375 32.6875 L 10 47.3125 C 9.875 48.054688 10.171875 48.8125 10.78125 49.265625 C 11.390625 49.710938 12.203125 49.78125 12.875 49.4375 L 26 42.5 L 39.125 49.4375 C 39.796875 49.78125 40.609375 49.710938 41.21875 49.265625 C 41.828125 48.8125 42.125 48.054688 42 47.3125 L 39.5625 32.6875 L 50.125 22.3125 C 50.648438 21.789063 50.835938 21.015625 50.609375 20.304688 C 50.390625 19.59375 49.789063 19.070313 49.0625 18.9375 L 34.3125 16.75 L 27.8125 3.5 C 27.5 2.804688 26.828125 2.34375 26.0625 2.3125 Z M 26 8.9375 L 31.25 19.5 C 31.546875 20.078125 32.109375 20.476563 32.75 20.5625 L 44.4375 22.3125 L 36 30.5625 C 35.515625 31.007813 35.28125 31.664063 35.375 32.3125 L 37.375 44 L 26.9375 38.5 C 26.351563 38.1875 25.648438 38.1875 25.0625 38.5 L 14.625 44 L 16.625 32.3125 C 16.71875 31.664063 16.484375 31.007813 16 30.5625 L 7.5625 22.3125 L 19.25 20.5625 C 19.890625 20.476563 20.453125 20.078125 20.75 19.5 Z "/>
</g>
</svg>
