<svg width="109" height="109" viewBox="0 0 109 109" fill="none" xmlns="http://www.w3.org/2000/svg">
<g clip-path="url(#clip0)">
<path d="M17.0203 58.1482C15.1148 59.8012 14.9067 62.7343 16.5597 64.6398L38.6734 90.1312C40.3264 92.0367 43.2595 92.2448 45.165 90.5918L79.315 60.9669C80.7679 59.7065 81.6998 57.9461 81.912 56.0328L81.9226 55.9443L82.0331 34.3915L82.0304 34.489C82.2092 31.9701 80.2852 29.7523 77.7663 29.5735L77.8678 29.5807L56.5107 26.6509L56.4216 26.6489C54.5014 26.5933 52.6232 27.2629 51.1703 28.5232L17.0203 58.1482ZM19.0306 60.4656L53.1806 30.8406C54.0496 30.0868 55.1691 29.6947 56.3144 29.7165L77.4985 32.6298L77.5492 32.6334C78.4114 32.6946 79.0318 33.4097 78.9706 34.2719L78.967 34.3226L78.8561 55.7013C78.7199 56.8427 78.1737 57.8956 77.3046 58.6495L43.1546 88.2744C42.5029 88.8398 41.5562 88.7727 40.9908 88.1209L18.8771 62.6295C18.3078 61.9732 18.3743 61.0349 19.0306 60.4656ZM64.1504 37.5698C61.6022 39.7804 61.3257 43.6771 63.5363 46.2253C65.7468 48.7736 69.6435 49.05 72.1917 46.8394C74.74 44.6289 75.0165 40.7322 72.8059 38.184C70.5953 35.6357 66.6986 35.3593 64.1504 37.5698ZM66.1607 39.8872C67.4552 38.7643 69.3655 38.8998 70.4885 40.1943C71.6114 41.4888 71.4759 43.3991 70.1814 44.522C68.8869 45.645 66.9766 45.5095 65.8537 44.215C64.7307 42.9205 64.8662 41.0102 66.1607 39.8872Z" fill="#FFFCFC"/>
</g>
<defs>
<clipPath id="clip0">
<rect width="76.6966" height="76.6966" fill="white" transform="translate(0.169922 50.4283) rotate(-40.9415)"/>
</clipPath>
</defs>
</svg>
