<svg width="50" height="50" viewBox="0 0 50 50" fill="none" xmlns="http://www.w3.org/2000/svg">
<path d="M5 7C2.24219 7 0 9.24219 0 12V38C0 40.7578 2.24219 43 5 43H45C47.7578 43 50 40.7578 50 38V12C50 9.24219 47.7578 7 45 7H5ZM29.6875 19.4062C31.0508 19.4062 32.4688 19.9688 32.4688 19.9688L31.9688 22.4062C31.9688 22.4062 30.8906 21.6875 29.9375 21.6875C28.4688 21.6875 27.9375 22.168 27.9375 22.8125C27.9375 24.0742 32.0312 24.2969 32.0312 27.125C32.0312 29.4766 29.1133 31.0938 27 31.0938C24.8867 31.0938 23.7812 30.4688 23.7812 30.4688L24.3125 28.0938C24.3125 28.0938 25.418 28.75 27.125 28.75C28.8281 28.75 29.0625 28.0234 29.0625 27.7188C29.0625 25.9141 25 26.418 25 22.9062C25 20.9648 26.5859 19.4062 29.6875 19.4062ZM16.4688 19.625H19.625L15.125 30.75H11.875L9.5 21.75C9.5 21.75 11.9961 23.0234 13.5312 26.4688C13.5977 26.8867 13.7812 27.5625 13.7812 27.5625L16.4688 19.625ZM20.7812 19.625H23.7812L22 30.75H19.0312L20.7812 19.625ZM36.8125 19.625H39.9062L42.1875 30.75H39.5L39.1875 29.1562H35.5L34.9062 30.75H31.9688L36.8125 19.625ZM6.25 19.6562H10.8125C11.9766 19.6562 12.4062 20.75 12.4062 20.75L13.4062 25.8125C12.0547 21.4531 6.25 19.6562 6.25 19.6562ZM37.9375 22.8438L36.3125 27.0312H38.75L37.9375 22.8438Z" fill="#858585"/>
</svg>
